STARTFONT 2.3
FONT -FontForge-Source Code Pro-Book-R-Normal--20-200-72-72-M-120-ISO10646-1
SIZE 20 72 72  2
FONTBOUNDINGBOX 22 34 -6 -9
COMMENT "Generated by fontforge, http://fontforge.sourceforge.net"
COMMENT "Copyright 2010, 2012 Adobe Systems Incorporated (http://www.adobe.com/), with Reserved Font Name `Source'."
STARTPROPERTIES 42
FOUNDRY "FontForge"
FAMILY_NAME "Source Code Pro"
WEIGHT_NAME "Book"
SLANT "R"
SETWIDTH_NAME "Normal"
ADD_STYLE_NAME ""
PIXEL_SIZE 20
POINT_SIZE 200
RESOLUTION_X 72
RESOLUTION_Y 72
SPACING "M"
AVERAGE_WIDTH 120
CHARSET_REGISTRY "ISO10646"
CHARSET_ENCODING "1"
FONTNAME_REGISTRY ""
CHARSET_COLLECTIONS "ASCII ISOLatin1Encoding ISO8859-2 ISO8859-9 ISO8859-4 ISO10646-1"
BITS_PER_PIXEL 2
FONT_NAME "SourceCodePro-It"
FACE_NAME "Source Code Pro Italic"
COPYRIGHT "Copyright 2010, 2012 Adobe Systems Incorporated (http://www.adobe.com/), with Reserved Font Name `Source'."
FONT_VERSION "1.050;PS 1.000;hotconv 16.6.51;makeotf.lib2.5.65220"
FONT_ASCENT 15
FONT_DESCENT 5
UNDERLINE_POSITION -2
UNDERLINE_THICKNESS 1
X_HEIGHT 9
CAP_HEIGHT 12
RAW_ASCENT 750
RAW_DESCENT 250
ITALIC_ANGLE 5056
NORM_SPACE 12
RELATIVE_WEIGHT 40
RELATIVE_SETWIDTH 50
SUPERSCRIPT_X 1
SUPERSCRIPT_Y 7
SUPERSCRIPT_SIZE 12
SUBSCRIPT_X 0
SUBSCRIPT_Y 1
SUBSCRIPT_SIZE 12
FIGURE_WIDTH 12
AVG_LOWERCASE_WIDTH 120
AVG_UPPERCASE_WIDTH 120
ENDPROPERTIES
CHARS 1269
STARTCHAR space
ENCODING 32
SWIDTH 600 0
DWIDTH 12 0
BBX 1 1 0 0
BITMAP
00
ENDCHAR
STARTCHAR exclam
ENCODING 33
SWIDTH 600 0
DWIDTH 12 0
BBX 5 13 3 0
BITMAP
01C0
02C0
0280
0340
0700
0700
0A00
0900
0000
0000
2D00
7D00
3800
ENDCHAR
STARTCHAR quotedbl
ENCODING 34
SWIDTH 600 0
DWIDTH 12 0
BBX 8 7 3 7
BITMAP
2D1E
3C1E
382D
782C
7428
7034
A034
ENDCHAR
STARTCHAR numbersign
ENCODING 35
SWIDTH 600 0
DWIDTH 12 0
BBX 10 13 1 0
BITMAP
009090
0090C0
00C180
018240
1FFFF0
030300
060600
090900
BFFF80
181800
242400
303000
606000
ENDCHAR
STARTCHAR dollar
ENCODING 36
SWIDTH 600 0
DWIDTH 12 0
BBX 10 17 1 -2
BITMAP
000C00
001C00
001800
02FE00
0A42D0
0D0040
0E0000
07D000
01BD00
001F40
000380
500380
B80B40
1BF900
024000
034000
030000
ENDCHAR
STARTCHAR percent
ENCODING 37
SWIDTH 600 0
DWIDTH 12 0
BBX 13 13 -1 0
BITMAP
07E00080
1D240380
34280D00
30242400
34704000
1F800000
00000000
0041B900
01834B00
0A0A0700
28090600
600A1D00
0002E400
ENDCHAR
STARTCHAR ampersand
ENCODING 38
SWIDTH 600 0
DWIDTH 12 0
BBX 12 13 0 0
BITMAP
002F40
00D280
028280
028340
029E00
01F400
07D01D
1DB028
743870
B01DD0
B00B80
781EE0
1BE464
ENDCHAR
STARTCHAR quotesingle
ENCODING 39
SWIDTH 600 0
DWIDTH 12 0
BBX 4 7 5 7
BITMAP
2D
2D
3C
38
34
34
70
ENDCHAR
STARTCHAR parenleft
ENCODING 40
SWIDTH 600 0
DWIDTH 12 0
BBX 7 18 4 -3
BITMAP
0018
00B4
02D0
0B40
1D00
2800
7400
B000
A000
D000
D000
D000
D000
A000
7000
3800
1D00
0900
ENDCHAR
STARTCHAR parenright
ENCODING 41
SWIDTH 600 0
DWIDTH 12 0
BBX 7 18 1 -4
BITMAP
0240
01D0
00A0
0074
0038
0028
002C
001C
002C
0028
0038
0074
00A0
01D0
0380
1E00
7800
D000
ENDCHAR
STARTCHAR asterisk
ENCODING 42
SWIDTH 600 0
DWIDTH 12 0
BBX 9 9 2 2
BITMAP
005000
00D000
00C000
A5C640
1FF900
0BD000
1DA000
347000
902400
ENDCHAR
STARTCHAR plus
ENCODING 43
SWIDTH 600 0
DWIDTH 12 0
BBX 10 9 1 2
BITMAP
00A000
00A000
00A000
00A000
7FFFD0
00A000
00A000
00A000
00A000
ENDCHAR
STARTCHAR comma
ENCODING 44
SWIDTH 600 0
DWIDTH 12 0
BBX 5 7 2 -4
BITMAP
0B40
1F80
0F80
0340
0B00
6800
9000
ENDCHAR
STARTCHAR hyphen
ENCODING 45
SWIDTH 600 0
DWIDTH 12 0
BBX 10 1 1 6
BITMAP
7FFFD0
ENDCHAR
STARTCHAR period
ENCODING 46
SWIDTH 600 0
DWIDTH 12 0
BBX 4 3 3 0
BITMAP
2D
7E
78
ENDCHAR
STARTCHAR slash
ENCODING 47
SWIDTH 600 0
DWIDTH 12 0
BBX 12 17 0 -3
BITMAP
00000D
000028
000074
0000A0
0001C0
000340
000B00
001D00
002800
007000
00E000
02C000
034000
0A0000
1D0000
380000
700000
ENDCHAR
STARTCHAR zero
ENCODING 48
SWIDTH 600 0
DWIDTH 12 0
BBX 10 13 1 0
BITMAP
01BE00
0742C0
1D00D0
2800A0
7400B0
70B0A0
A0F0A0
A0A0E0
A001D0
A00280
700740
381D00
0BE400
ENDCHAR
STARTCHAR one
ENCODING 49
SWIDTH 600 0
DWIDTH 12 0
BBX 9 13 1 0
BITMAP
006D00
03FD00
001C00
002C00
003800
003400
007400
007000
00B000
00A000
00E000
01D000
FFFF80
ENDCHAR
STARTCHAR two
ENCODING 50
SWIDTH 600 0
DWIDTH 12 0
BBX 9 13 1 0
BITMAP
02FD00
1E0740
0402C0
0002C0
000280
000740
000E00
002C00
00B400
02D000
0F0000
780000
FFFF80
ENDCHAR
STARTCHAR three
ENCODING 51
SWIDTH 600 0
DWIDTH 12 0
BBX 10 13 1 0
BITMAP
02FE00
0E07C0
0001D0
0001D0
0002C0
001B40
02F800
001E00
000380
000380
400340
E41E00
2FE400
ENDCHAR
STARTCHAR four
ENCODING 52
SWIDTH 600 0
DWIDTH 12 0
BBX 11 13 0 0
BITMAP
0000B4
0002F0
000AA0
002CA0
00B0D0
02C1D0
0B01C0
2C02C0
7FFFF8
000340
000740
000700
000B00
ENDCHAR
STARTCHAR five
ENCODING 53
SWIDTH 600 0
DWIDTH 12 0
BBX 11 13 0 0
BITMAP
01FFF8
028000
028000
034000
070000
0BBF40
0A41D0
0000B0
0000B0
0000A0
1001D0
790780
0BF900
ENDCHAR
STARTCHAR six
ENCODING 54
SWIDTH 600 0
DWIDTH 12 0
BBX 10 13 1 0
BITMAP
006F90
0390A0
0E0000
2C0000
340000
71BE00
BA0780
B401C0
A001C0
B001C0
740380
2D1A00
0BF400
ENDCHAR
STARTCHAR seven
ENCODING 55
SWIDTH 600 0
DWIDTH 12 0
BBX 10 13 2 0
BITMAP
BFFFD0
000380
000E00
002800
007000
00D000
02C000
034000
0B0000
0E0000
1D0000
2C0000
2C0000
ENDCHAR
STARTCHAR eight
ENCODING 56
SWIDTH 600 0
DWIDTH 12 0
BBX 10 13 1 0
BITMAP
01BE40
0742C0
0E00E0
0E00A0
0701D0
03D780
1FBE00
381E00
B00380
A00280
B00280
381B40
1BF800
ENDCHAR
STARTCHAR nine
ENCODING 57
SWIDTH 600 0
DWIDTH 12 0
BBX 10 13 1 0
BITMAP
02FE00
0A4780
2C01D0
3400E0
3400A0
3401E0
2D0AE0
0BE4D0
0001C0
000380
000B00
A06D00
6FE000
ENDCHAR
STARTCHAR colon
ENCODING 58
SWIDTH 600 0
DWIDTH 12 0
BBX 5 10 3 0
BITMAP
0780
0FC0
0B40
0000
0000
0000
0000
2D00
7E00
7800
ENDCHAR
STARTCHAR semicolon
ENCODING 59
SWIDTH 600 0
DWIDTH 12 0
BBX 6 14 2 -4
BITMAP
01E0
03F0
02D0
0000
0000
0000
0000
0B40
1F80
0F80
0340
0B00
6800
9000
ENDCHAR
STARTCHAR less
ENCODING 60
SWIDTH 600 0
DWIDTH 12 0
BBX 8 11 2 1
BITMAP
0002
001D
00A0
0740
2D00
B000
2D00
0740
00A0
001D
0002
ENDCHAR
STARTCHAR equal
ENCODING 61
SWIDTH 600 0
DWIDTH 12 0
BBX 10 5 1 4
BITMAP
7FFFD0
000000
000000
000000
7FFFD0
ENDCHAR
STARTCHAR greater
ENCODING 62
SWIDTH 600 0
DWIDTH 12 0
BBX 8 11 2 1
BITMAP
8000
7400
0A00
01D0
0078
000E
0078
01D0
0A00
7400
8000
ENDCHAR
STARTCHAR question
ENCODING 63
SWIDTH 600 0
DWIDTH 12 0
BBX 8 13 3 0
BITMAP
1BE4
742D
001D
002C
00B4
0780
0E00
1C00
0000
0000
7800
BC00
7800
ENDCHAR
STARTCHAR at
ENCODING 64
SWIDTH 600 0
DWIDTH 12 0
BBX 12 16 0 -3
BITMAP
001BE4
01E42C
03400D
0A0009
1C0009
2806BC
302E5C
70A018
609028
60A074
606E64
700000
300000
280000
0E4280
02FE00
ENDCHAR
STARTCHAR A
ENCODING 65
SWIDTH 600 0
DWIDTH 12 0
BBX 11 13 -1 0
BITMAP
0002E0
0007A0
000AA0
001C70
002870
007470
00E074
01D034
03FFF8
0B0038
0E0028
2C002C
74002C
ENDCHAR
STARTCHAR B
ENCODING 66
SWIDTH 600 0
DWIDTH 12 0
BBX 10 13 1 0
BITMAP
0BFE40
0E01E0
0D00B0
1D00A0
1C00D0
2D5780
3EBE00
380280
7401D0
7001D0
B002C0
E01B40
FFF900
ENDCHAR
STARTCHAR C
ENCODING 67
SWIDTH 600 0
DWIDTH 12 0
BBX 11 13 1 0
BITMAP
006FD0
02D074
0B4010
1D0000
2C0000
340000
740000
740000
740000
740000
380000
1E0680
06FE00
ENDCHAR
STARTCHAR D
ENCODING 68
SWIDTH 600 0
DWIDTH 12 0
BBX 11 13 0 0
BITMAP
03FE40
0741E0
070078
0B002C
0E002C
0D001C
1D002C
1C002C
2C0038
3800B0
3801D0
741B40
7FF800
ENDCHAR
STARTCHAR E
ENCODING 69
SWIDTH 600 0
DWIDTH 12 0
BBX 11 13 1 0
BITMAP
07FFF8
070000
0B0000
0E0000
0E0000
1D0000
1FFF80
2C0000
380000
380000
740000
700000
BFFF80
ENDCHAR
STARTCHAR F
ENCODING 70
SWIDTH 600 0
DWIDTH 12 0
BBX 11 13 1 0
BITMAP
03FFFC
034000
074000
0B0000
0B0000
0E0000
0FFF80
1D0000
2C0000
2C0000
380000
340000
740000
ENDCHAR
STARTCHAR G
ENCODING 71
SWIDTH 600 0
DWIDTH 12 0
BBX 11 13 1 0
BITMAP
006F90
02D0B4
0E0010
2C0000
380000
740000
B01FE0
B000E0
B000D0
B001C0
7401C0
2D0780
06F900
ENDCHAR
STARTCHAR H
ENCODING 72
SWIDTH 600 0
DWIDTH 12 0
BBX 12 13 0 0
BITMAP
03400E
07400D
0B001D
0B001C
0E002C
0E0028
1FFFF4
2C0074
2C0070
3800B0
3400E0
7400D0
B001D0
ENDCHAR
STARTCHAR I
ENCODING 73
SWIDTH 600 0
DWIDTH 12 0
BBX 11 13 1 0
BITMAP
0BFFF4
002800
003800
003400
007400
00B000
00A000
00E000
00D000
01D000
01C000
02C000
FFFF00
ENDCHAR
STARTCHAR J
ENCODING 74
SWIDTH 600 0
DWIDTH 12 0
BBX 11 13 0 0
BITMAP
01FFF8
000034
000074
000070
0000B0
0000E0
0000D0
0001D0
0001C0
000280
100740
781E00
1BF400
ENDCHAR
STARTCHAR K
ENCODING 75
SWIDTH 600 0
DWIDTH 12 0
BBX 11 13 1 0
BITMAP
0B0028
0E00E0
0D0380
1D0E00
1C3800
2DF000
3FB400
3E2C00
781D00
700E00
B00740
E00380
D002C0
ENDCHAR
STARTCHAR L
ENCODING 76
SWIDTH 600 0
DWIDTH 12 0
BBX 9 13 2 0
BITMAP
0B0000
0B0000
0E0000
0D0000
1D0000
2C0000
2C0000
380000
340000
740000
B00000
B00000
FFFF40
ENDCHAR
STARTCHAR M
ENCODING 77
SWIDTH 600 0
DWIDTH 12 0
BBX 12 13 0 0
BITMAP
07C01E
07C03D
0AC06D
0AD0EC
0DD2AC
1DA368
1CAA34
2C6C34
287870
3410B0
7400A0
7000D0
A001D0
ENDCHAR
STARTCHAR N
ENCODING 78
SWIDTH 600 0
DWIDTH 12 0
BBX 12 13 0 0
BITMAP
03C00E
07D00D
07A01D
0AA01C
0A7028
0D3438
1D2834
1C1C74
2C0D70
280AA0
3407A0
7403D0
7002C0
ENDCHAR
STARTCHAR O
ENCODING 79
SWIDTH 600 0
DWIDTH 12 0
BBX 11 13 1 0
BITMAP
01BE40
0B41D0
1D00B0
380074
B00074
E00074
E00074
D000B0
D000E0
E001D0
B00380
781E00
1BE400
ENDCHAR
STARTCHAR P
ENCODING 80
SWIDTH 600 0
DWIDTH 12 0
BBX 11 13 1 0
BITMAP
07FF80
0B01F0
0E0074
0E0034
1D0074
1C00B0
2C06D0
3FFE00
380000
740000
700000
B00000
E00000
ENDCHAR
STARTCHAR Q
ENCODING 81
SWIDTH 600 0
DWIDTH 12 0
BBX 11 16 1 -3
BITMAP
01BE40
0B41D0
1D00B0
380074
B00074
A00074
E00074
D000B0
D000E0
E001D0
B00380
781E00
1BF400
02C000
01E000
006F80
ENDCHAR
STARTCHAR R
ENCODING 82
SWIDTH 600 0
DWIDTH 12 0
BBX 11 13 0 0
BITMAP
02FF90
034078
07402C
07002C
0B0038
0A01E0
0FFE40
1D1D00
1C0E00
2C0B00
280340
3802C0
7401D0
ENDCHAR
STARTCHAR S
ENCODING 83
SWIDTH 600 0
DWIDTH 12 0
BBX 10 13 1 0
BITMAP
01BE40
0742D0
0E0040
0D0000
0F0000
07D000
00BD00
001F00
000780
000380
900740
B41E00
1BE400
ENDCHAR
STARTCHAR T
ENCODING 84
SWIDTH 600 0
DWIDTH 12 0
BBX 11 13 2 0
BITMAP
FFFFF4
00A000
00E000
01D000
01D000
02C000
028000
038000
034000
074000
0B0000
0A0000
0E0000
ENDCHAR
STARTCHAR U
ENCODING 85
SWIDTH 600 0
DWIDTH 12 0
BBX 11 13 1 0
BITMAP
0D0038
1D0034
2C0074
2C0070
3800B0
3400E0
7400D0
B001D0
B001C0
B00280
700740
381E00
1BE400
ENDCHAR
STARTCHAR V
ENCODING 86
SWIDTH 600 0
DWIDTH 12 0
BBX 11 13 2 0
BITMAP
B00074
7400A0
7401D0
740380
340740
380E00
381C00
283800
287000
2CE000
1DC000
1F4000
1F0000
ENDCHAR
STARTCHAR W
ENCODING 87
SWIDTH 600 0
DWIDTH 12 0
BBX 12 13 1 0
BITMAP
34000A
74000D
74001C
701028
707434
70F470
B1E8A0
A268D0
A719D0
AA19C0
AC1E80
F81F40
F41F00
ENDCHAR
STARTCHAR X
ENCODING 88
SWIDTH 600 0
DWIDTH 12 0
BBX 12 13 0 0
BITMAP
07400E
02C028
01D0B0
00E1D0
00B380
003E00
003C00
00AD00
02CB00
074740
1E0380
3802C0
B000E0
ENDCHAR
STARTCHAR Y
ENCODING 89
SWIDTH 600 0
DWIDTH 12 0
BBX 11 13 2 0
BITMAP
B00074
7401D0
380380
2C0B00
1C1D00
0D3800
0AA000
07C000
034000
074000
0B0000
0A0000
0E0000
ENDCHAR
STARTCHAR Z
ENCODING 90
SWIDTH 600 0
DWIDTH 12 0
BBX 12 13 0 0
BITMAP
07FFFE
000038
0000B0
0002D0
000780
001E00
003C00
00B400
01D000
078000
0E0000
2C0000
7FFFE0
ENDCHAR
STARTCHAR bracketleft
ENCODING 91
SWIDTH 600 0
DWIDTH 12 0
BBX 10 17 2 -3
BITMAP
00FFD0
01C000
028000
024000
034000
030000
070000
0A0000
090000
0D0000
0C0000
1C0000
280000
240000
340000
300000
7FF000
ENDCHAR
STARTCHAR backslash
ENCODING 92
SWIDTH 600 0
DWIDTH 12 0
BBX 4 17 4 -3
BITMAP
D0
D0
A0
A0
70
70
34
34
28
18
1C
0C
0D
0A
0A
07
07
ENDCHAR
STARTCHAR bracketright
ENCODING 93
SWIDTH 600 0
DWIDTH 12 0
BBX 9 17 0 -3
BITMAP
01FFC0
0001C0
000280
000240
000340
000300
000700
000A00
000900
000D00
000C00
001C00
002800
002400
003400
003000
BFF000
ENDCHAR
STARTCHAR asciicircum
ENCODING 94
SWIDTH 600 0
DWIDTH 12 0
BBX 8 8 2 5
BITMAP
03C0
07D0
0AA0
0D70
1C34
2828
341C
A00A
ENDCHAR
STARTCHAR underscore
ENCODING 95
SWIDTH 600 0
DWIDTH 12 0
BBX 11 1 -1 -3
BITMAP
7FFFF4
ENDCHAR
STARTCHAR grave
ENCODING 96
SWIDTH 600 0
DWIDTH 12 0
BBX 4 4 5 12
BITMAP
60
74
2D
09
ENDCHAR
STARTCHAR a
ENCODING 97
SWIDTH 600 0
DWIDTH 12 0
BBX 10 10 1 0
BITMAP
02FD70
0E46E0
2800E0
7400D0
B001D0
E001C0
E00280
B00380
741B40
1F9340
ENDCHAR
STARTCHAR b
ENCODING 98
SWIDTH 600 0
DWIDTH 12 0
BBX 11 14 0 0
BITMAP
02C000
028000
038000
034000
071F90
0B90B0
0A0038
0D0038
0D0038
1C0038
2C0074
2C00E0
3E0780
71FD00
ENDCHAR
STARTCHAR c
ENCODING 99
SWIDTH 600 0
DWIDTH 12 0
BBX 10 10 1 0
BITMAP
01BF80
0B41E0
2C0000
740000
700000
B00000
B00000
740000
2D0780
07F900
ENDCHAR
STARTCHAR d
ENCODING 100
SWIDTH 600 0
DWIDTH 12 0
BBX 11 14 1 0
BITMAP
00002C
000038
000034
000074
02F970
0E46F0
2800E0
7400D0
B001D0
E001C0
E002C0
B00380
741B40
1F9340
ENDCHAR
STARTCHAR e
ENCODING 101
SWIDTH 600 0
DWIDTH 12 0
BBX 10 10 1 0
BITMAP
01BE00
0B42C0
2C00D0
7400D0
BFFFD0
A00000
B00000
740000
3D0740
0BF900
ENDCHAR
STARTCHAR f
ENCODING 102
SWIDTH 600 0
DWIDTH 12 0
BBX 11 14 2 0
BITMAP
001BE4
00B410
01D000
02C000
BFFF80
038000
074000
070000
0B0000
0A0000
0E0000
0D0000
1D0000
2C0000
ENDCHAR
STARTCHAR g
ENCODING 103
SWIDTH 600 0
DWIDTH 12 0
BBX 11 14 0 -4
BITMAP
00BF5C
0391B8
0A0038
1D0034
2C0070
3800B0
3800A0
2C01E0
1E5AD0
02A1C0
0002C0
000380
641A00
2FE400
ENDCHAR
STARTCHAR h
ENCODING 104
SWIDTH 600 0
DWIDTH 12 0
BBX 11 14 0 0
BITMAP
02C000
028000
038000
034000
071BE0
0B6474
0B4038
0D0038
0D0074
1C0070
2C00B0
2800E0
3800E0
7401D0
ENDCHAR
STARTCHAR i
ENCODING 105
SWIDTH 600 0
DWIDTH 12 0
BBX 8 14 2 0
BITMAP
00F0
00E0
0000
0000
BFD0
01C0
02C0
0380
0340
0740
0B00
0B00
0744
02F9
ENDCHAR
STARTCHAR j
ENCODING 106
SWIDTH 600 0
DWIDTH 12 0
BBX 10 18 0 -4
BITMAP
0002D0
0002D0
000000
000000
07FF80
000380
000740
000740
000B00
000A00
000E00
000D00
001D00
002C00
002800
007400
81E000
BF8000
ENDCHAR
STARTCHAR k
ENCODING 107
SWIDTH 600 0
DWIDTH 12 0
BBX 11 14 1 0
BITMAP
074000
070000
0B0000
0E0000
0D00B4
1D02D0
1C0F00
2C7C00
39F400
3FA800
7D1D00
B40B00
B00740
E002C0
ENDCHAR
STARTCHAR l
ENCODING 108
SWIDTH 600 0
DWIDTH 12 0
BBX 6 14 3 0
BITMAP
FF80
0340
0740
0700
0B00
0E00
0D00
1D00
2C00
2800
3800
3400
3810
1BE0
ENDCHAR
STARTCHAR m
ENCODING 109
SWIDTH 600 0
DWIDTH 12 0
BBX 12 10 0 0
BITMAP
0CB8B8
1E1E5D
2C1D1D
282C1C
38282C
343838
743434
B07074
A0B070
E0A0B0
ENDCHAR
STARTCHAR n
ENCODING 110
SWIDTH 600 0
DWIDTH 12 0
BBX 11 10 0 0
BITMAP
071BE0
0A6474
0B4038
0D0038
1D0074
1C0070
2C00B0
2800E0
3800E0
7401D0
ENDCHAR
STARTCHAR o
ENCODING 111
SWIDTH 600 0
DWIDTH 12 0
BBX 10 10 1 0
BITMAP
02FD00
1E0780
3801D0
B000E0
E000E0
E000D0
E002C0
B00780
781E00
1BE400
ENDCHAR
STARTCHAR p
ENCODING 112
SWIDTH 600 0
DWIDTH 12 0
BBX 11 14 0 -4
BITMAP
071F90
0B90B0
0E0038
0D0038
1D0038
1C0038
2C0074
2800E0
3E07C0
75FE00
700000
B00000
A00000
E00000
ENDCHAR
STARTCHAR q
ENCODING 113
SWIDTH 600 0
DWIDTH 12 0
BBX 10 14 1 -4
BITMAP
02FD70
0E46E0
2800E0
7400D0
B001D0
E001C0
E00280
B00380
741B40
1F9740
000B00
000A00
000E00
000D00
ENDCHAR
STARTCHAR r
ENCODING 114
SWIDTH 600 0
DWIDTH 12 0
BBX 9 10 2 0
BITMAP
1C2F80
1C9040
2A0000
2C0000
340000
740000
700000
B00000
A00000
E00000
ENDCHAR
STARTCHAR s
ENCODING 115
SWIDTH 600 0
DWIDTH 12 0
BBX 9 10 1 0
BITMAP
06FE00
0E06C0
1C0000
1E0000
07E400
007E00
000740
000340
B40B00
1BF900
ENDCHAR
STARTCHAR t
ENCODING 116
SWIDTH 600 0
DWIDTH 12 0
BBX 10 13 1 0
BITMAP
00A000
00D000
01D000
7FFFE0
028000
038000
074000
070000
0B0000
0A0000
0A0000
0B4100
02FE40
ENDCHAR
STARTCHAR u
ENCODING 117
SWIDTH 600 0
DWIDTH 12 0
BBX 10 10 1 0
BITMAP
2C00B0
2800E0
3800D0
7401D0
7001C0
B002C0
A00280
E00B80
B46740
2F8300
ENDCHAR
STARTCHAR v
ENCODING 118
SWIDTH 600 0
DWIDTH 12 0
BBX 10 10 2 0
BITMAP
D001D0
E00280
A00740
700E00
742C00
343400
38A000
29D000
1E8000
1F0000
ENDCHAR
STARTCHAR w
ENCODING 119
SWIDTH 600 0
DWIDTH 12 0
BBX 12 10 1 0
BITMAP
D0141D
D0B428
D0E434
D1A470
D368A0
D729D0
DA2A80
ED2B40
F82F00
F42E00
ENDCHAR
STARTCHAR x
ENCODING 120
SWIDTH 600 0
DWIDTH 12 0
BBX 11 10 0 0
BITMAP
074078
0380E0
01D280
00AB00
007C00
00BC00
02DD00
0B4B00
1D0380
7402C0
ENDCHAR
STARTCHAR y
ENCODING 121
SWIDTH 600 0
DWIDTH 12 0
BBX 13 14 -1 -4
BITMAP
03400740
03800A00
02801C00
01C03800
00D0B000
00E1D000
00A28000
00770000
003D0000
003C0000
00740000
00E00000
02800000
BE000000
ENDCHAR
STARTCHAR z
ENCODING 122
SWIDTH 600 0
DWIDTH 12 0
BBX 11 10 0 0
BITMAP
0BFFF8
0000E0
0003C0
000B00
002C00
00B400
02D000
0B4000
1D0000
7FFFD0
ENDCHAR
STARTCHAR braceleft
ENCODING 123
SWIDTH 600 0
DWIDTH 12 0
BBX 10 17 2 -3
BITMAP
001FE0
007400
00A000
00D000
00D000
01C000
01C000
074000
BD0000
0B0000
070000
060000
0A0000
0D0000
0C0000
0D0000
0BF400
ENDCHAR
STARTCHAR bar
ENCODING 124
SWIDTH 600 0
DWIDTH 12 0
BBX 2 20 5 -5
BITMAP
A0
A0
A0
A0
A0
A0
A0
A0
A0
A0
A0
A0
A0
A0
A0
A0
A0
A0
A0
A0
ENDCHAR
STARTCHAR braceright
ENCODING 125
SWIDTH 600 0
DWIDTH 12 0
BBX 10 17 0 -3
BITMAP
01FD00
000B00
000700
000600
000900
000D00
000C00
000D00
000BE0
002D00
003400
007000
007000
00A000
009000
02C000
BE4000
ENDCHAR
STARTCHAR asciitilde
ENCODING 126
SWIDTH 600 0
DWIDTH 12 0
BBX 10 3 1 5
BITMAP
1B8090
34A1C0
602E40
ENDCHAR
STARTCHAR uni00A0
ENCODING 160
SWIDTH 600 0
DWIDTH 12 0
BBX 1 1 0 0
BITMAP
00
ENDCHAR
STARTCHAR exclamdown
ENCODING 161
SWIDTH 600 0
DWIDTH 12 0
BBX 5 14 3 -4
BITMAP
0780
0F80
0B40
0000
0000
0D00
0C00
1C00
2800
2800
3400
7400
7000
B000
ENDCHAR
STARTCHAR cent
ENCODING 162
SWIDTH 600 0
DWIDTH 12 0
BBX 8 13 2 0
BITMAP
0024
0030
06FE
1E66
7490
B090
E0C0
E080
E180
7658
1FE4
0300
0600
ENDCHAR
STARTCHAR sterling
ENCODING 163
SWIDTH 600 0
DWIDTH 12 0
BBX 11 13 0 0
BITMAP
001FE0
00B428
00D000
01C000
01C000
01C000
1FFFC0
00D000
01C000
02C000
034000
1E0000
7FFFD0
ENDCHAR
STARTCHAR currency
ENCODING 164
SWIDTH 600 0
DWIDTH 12 0
BBX 12 9 0 2
BITMAP
090009
07AFA8
03D1E0
0700B0
0A00B0
0E00E0
0B46C0
2EFAD0
600060
ENDCHAR
STARTCHAR yen
ENCODING 165
SWIDTH 600 0
DWIDTH 12 0
BBX 11 13 1 0
BITMAP
1D0028
0E00B0
0B01D0
034340
024900
019800
7FFFD0
00D000
FFFFC0
01C000
02C000
028000
038000
ENDCHAR
STARTCHAR brokenbar
ENCODING 166
SWIDTH 600 0
DWIDTH 12 0
BBX 2 20 5 -5
BITMAP
A0
A0
A0
A0
A0
A0
A0
A0
A0
00
00
A0
A0
A0
A0
A0
A0
A0
A0
A0
ENDCHAR
STARTCHAR section
ENCODING 167
SWIDTH 600 0
DWIDTH 12 0
BBX 9 15 1 -1
BITMAP
00BE00
028280
038000
028000
0BF400
1D6D00
280B40
280280
1E0280
07D740
00BE00
002C00
001C00
747800
1FE000
ENDCHAR
STARTCHAR dieresis
ENCODING 168
SWIDTH 600 0
DWIDTH 12 0
BBX 6 2 4 12
BITMAP
74B0
74B0
ENDCHAR
STARTCHAR copyright
ENCODING 169
SWIDTH 600 0
DWIDTH 12 0
BBX 12 13 0 0
BITMAP
006FD0
029068
0A000C
182F49
30E046
628006
634005
534009
52820C
60BD24
300060
1D0680
06F900
ENDCHAR
STARTCHAR ordfeminine
ENCODING 170
SWIDTH 600 0
DWIDTH 12 0
BBX 7 6 3 8
BITMAP
07EC
291C
7018
6024
7474
2F60
ENDCHAR
STARTCHAR guillemotleft
ENCODING 171
SWIDTH 600 0
DWIDTH 12 0
BBX 10 8 1 1
BITMAP
018090
074280
1D0B00
742C00
703800
381D00
1D0A00
090200
ENDCHAR
STARTCHAR logicalnot
ENCODING 172
SWIDTH 600 0
DWIDTH 12 0
BBX 10 5 1 2
BITMAP
7FFFD0
0000D0
0000D0
0000D0
0000D0
ENDCHAR
STARTCHAR uni00AD
ENCODING 173
SWIDTH 600 0
DWIDTH 12 0
BBX 10 1 1 6
BITMAP
7FFFD0
ENDCHAR
STARTCHAR registered
ENCODING 174
SWIDTH 600 0
DWIDTH 12 0
BBX 8 8 3 6
BITMAP
06F4
2919
63E2
87D2
8882
8899
6068
1F90
ENDCHAR
STARTCHAR macron
ENCODING 175
SWIDTH 600 0
DWIDTH 12 0
BBX 6 1 4 12
BITMAP
7FE0
ENDCHAR
STARTCHAR degree
ENCODING 176
SWIDTH 600 0
DWIDTH 12 0
BBX 6 5 4 9
BITMAP
1B80
3490
5090
61C0
2E40
ENDCHAR
STARTCHAR plusminus
ENCODING 177
SWIDTH 600 0
DWIDTH 12 0
BBX 10 11 1 0
BITMAP
00A000
00A000
00A000
00A000
7FFFD0
00A000
00A000
00A000
00A000
000000
7FFFD0
ENDCHAR
STARTCHAR two.sups
ENCODING 178
SWIDTH 600 0
DWIDTH 12 0
BBX 7 8 3 7
BITMAP
07E0
0934
0028
0034
00A0
0280
1D00
7FF0
ENDCHAR
STARTCHAR three.sups
ENCODING 179
SWIDTH 600 0
DWIDTH 12 0
BBX 6 9 4 7
BITMAP
1F80
10D0
00A0
01D0
0F40
0280
00C0
D2C0
7E00
ENDCHAR
STARTCHAR acute
ENCODING 180
SWIDTH 600 0
DWIDTH 12 0
BBX 4 4 6 12
BITMAP
06
1E
78
90
ENDCHAR
STARTCHAR uni00B5
ENCODING 181
SWIDTH 600 0
DWIDTH 12 0
BBX 11 14 0 -4
BITMAP
0B002C
0A0038
0E0034
1D0074
1C0070
2C00A0
2800A0
3802D0
3D19D0
77E0B0
A00000
A00000
E00000
D00000
ENDCHAR
STARTCHAR paragraph
ENCODING 182
SWIDTH 600 0
DWIDTH 12 0
BBX 9 15 2 -2
BITMAP
06F680
2FF380
BFF340
FFE740
FFDB00
FFDA00
FFCE00
3F8D00
055D00
002C00
002800
003800
003400
007400
007000
ENDCHAR
STARTCHAR periodcentered
ENCODING 183
SWIDTH 600 0
DWIDTH 12 0
BBX 4 3 4 6
BITMAP
7C
BD
78
ENDCHAR
STARTCHAR cedilla
ENCODING 184
SWIDTH 600 0
DWIDTH 12 0
BBX 4 5 2 -5
BITMAP
08
2D
0A
1D
E4
ENDCHAR
STARTCHAR one.sups
ENCODING 185
SWIDTH 600 0
DWIDTH 12 0
BBX 7 8 3 7
BITMAP
06E0
00D0
00D0
01C0
0180
0280
0240
7FF8
ENDCHAR
STARTCHAR ordmasculine
ENCODING 186
SWIDTH 600 0
DWIDTH 12 0
BBX 7 6 3 8
BITMAP
06E4
292C
301C
701C
3474
1F90
ENDCHAR
STARTCHAR guillemotright
ENCODING 187
SWIDTH 600 0
DWIDTH 12 0
BBX 9 8 1 1
BITMAP
240800
1C0E00
0E0740
074380
0B0780
2D0E00
B03800
805000
ENDCHAR
STARTCHAR onequarter
ENCODING 188
SWIDTH 600 0
DWIDTH 12 0
BBX 13 13 -1 0
BITMAP
0AC00080
01C00380
02800D00
02402400
03404000
03000000
00000000
00402000
01809000
0A018800
28061800
600BFE00
00002400
ENDCHAR
STARTCHAR onehalf
ENCODING 189
SWIDTH 600 0
DWIDTH 12 0
BBX 13 13 -1 0
BITMAP
0AC00080
01C00380
02800D00
02402400
03404000
03000000
00000000
0041B800
01824D00
0A000C00
28002400
60019000
000BFD00
ENDCHAR
STARTCHAR threequarters
ENCODING 190
SWIDTH 600 0
DWIDTH 12 0
BBX 13 13 -1 0
BITMAP
07E00080
04700380
03C00D00
00A02400
24A04000
1F800000
00000000
00402000
01809000
0A018800
28061800
600BFE00
00002400
ENDCHAR
STARTCHAR questiondown
ENCODING 191
SWIDTH 600 0
DWIDTH 12 0
BBX 7 14 1 -4
BITMAP
003C
00BC
0078
0000
0000
0070
00E0
02C0
1E00
3800
B000
A000
B468
2FE0
ENDCHAR
STARTCHAR Agrave
ENCODING 192
SWIDTH 600 0
DWIDTH 12 0
BBX 11 18 -1 0
BITMAP
000200
000780
0001D0
000060
000000
0002E0
0007A0
000AA0
001C70
002870
007470
00E074
01D034
03FFF8
0B0038
0E0028
2C002C
74002C
ENDCHAR
STARTCHAR Aacute
ENCODING 193
SWIDTH 600 0
DWIDTH 12 0
BBX 12 17 -1 0
BITMAP
000009
000078
000190
000000
0002E0
0007A0
000AA0
001C70
002870
007470
00E074
01D034
03FFF8
0B0038
0E0028
2C002C
74002C
ENDCHAR
STARTCHAR Acircumflex
ENCODING 194
SWIDTH 600 0
DWIDTH 12 0
BBX 12 17 -1 0
BITMAP
0001F4
00076C
001809
000000
0002E0
0007A0
000AA0
001C70
002870
007470
00E074
01D034
03FFF8
0B0038
0E0028
2C002C
74002C
ENDCHAR
STARTCHAR Atilde
ENCODING 195
SWIDTH 600 0
DWIDTH 12 0
BBX 13 17 -1 0
BITMAP
00010000
000FD340
00247E00
00000000
0002E000
0007A000
000AA000
001C7000
00287000
00747000
00E07400
01D03400
03FFF800
0B003800
0E002800
2C002C00
74002C00
ENDCHAR
STARTCHAR Adieresis
ENCODING 196
SWIDTH 600 0
DWIDTH 12 0
BBX 12 16 -1 0
BITMAP
000A0D
000A0D
000000
0002E0
0007A0
000AA0
001C70
002870
007470
00E074
01D034
03FFF8
0B0038
0E0028
2C002C
74002C
ENDCHAR
STARTCHAR Aring
ENCODING 197
SWIDTH 600 0
DWIDTH 12 0
BBX 11 18 -1 0
BITMAP
0001F4
000258
000318
0001E0
000000
0002E0
0007A0
000AA0
001C70
002870
007470
00E074
01D034
03FFF8
0B0038
0E0028
2C002C
74002C
ENDCHAR
STARTCHAR AE
ENCODING 198
SWIDTH 600 0
DWIDTH 12 0
BBX 14 13 -1 0
BITMAP
0002FFF0
0007A000
000AA000
001CD000
0034D000
00B1C000
01D2FF00
03828000
07FF4000
0D074000
28070000
740B0000
E00BFE00
ENDCHAR
STARTCHAR Ccedilla
ENCODING 199
SWIDTH 600 0
DWIDTH 12 0
BBX 11 18 1 -5
BITMAP
006FD0
02D074
0B4010
1D0000
2C0000
340000
740000
740000
740000
740000
380000
1E0680
06FE00
008000
02D000
00A000
019000
0A4000
ENDCHAR
STARTCHAR Egrave
ENCODING 200
SWIDTH 600 0
DWIDTH 12 0
BBX 11 18 1 0
BITMAP
001800
002D00
000B00
000240
000000
07FFF8
070000
0B0000
0E0000
0E0000
1D0000
1FFF80
2C0000
380000
380000
740000
700000
BFFF80
ENDCHAR
STARTCHAR Eacute
ENCODING 201
SWIDTH 600 0
DWIDTH 12 0
BBX 11 17 1 0
BITMAP
000060
0002E0
000600
000000
07FFF8
070000
0B0000
0E0000
0E0000
1D0000
1FFF80
2C0000
380000
380000
740000
700000
BFFF80
ENDCHAR
STARTCHAR Ecircumflex
ENCODING 202
SWIDTH 600 0
DWIDTH 12 0
BBX 11 17 1 0
BITMAP
000BC0
0029A0
006020
000000
07FFF8
070000
0B0000
0E0000
0E0000
1D0000
1FFF80
2C0000
380000
380000
740000
700000
BFFF80
ENDCHAR
STARTCHAR Edieresis
ENCODING 203
SWIDTH 600 0
DWIDTH 12 0
BBX 11 16 1 0
BITMAP
003470
003470
000000
07FFF8
070000
0B0000
0E0000
0E0000
1D0000
1FFF80
2C0000
380000
380000
740000
700000
BFFF80
ENDCHAR
STARTCHAR Igrave
ENCODING 204
SWIDTH 600 0
DWIDTH 12 0
BBX 11 18 1 0
BITMAP
002000
007800
001D00
000600
000000
0BFFF4
002800
003800
003400
007400
00B000
00A000
00E000
00D000
01D000
01C000
02C000
FFFF00
ENDCHAR
STARTCHAR Iacute
ENCODING 205
SWIDTH 600 0
DWIDTH 12 0
BBX 11 17 1 0
BITMAP
000090
000780
001900
000000
0BFFF4
002800
003800
003400
007400
00B000
00A000
00E000
00D000
01D000
01C000
02C000
FFFF00
ENDCHAR
STARTCHAR Icircumflex
ENCODING 206
SWIDTH 600 0
DWIDTH 12 0
BBX 11 17 1 0
BITMAP
001F40
0076C0
018090
000000
0BFFF4
002800
003800
003400
007400
00B000
00A000
00E000
00D000
01D000
01C000
02C000
FFFF00
ENDCHAR
STARTCHAR Idieresis
ENCODING 207
SWIDTH 600 0
DWIDTH 12 0
BBX 11 16 1 0
BITMAP
00A0D0
00A0D0
000000
0BFFF4
002800
003800
003400
007400
00B000
00A000
00E000
00D000
01D000
01C000
02C000
FFFF00
ENDCHAR
STARTCHAR Eth
ENCODING 208
SWIDTH 600 0
DWIDTH 12 0
BBX 12 13 0 0
BITMAP
02FF80
0381B4
03403C
07401D
07001D
0B001D
7FF81D
0D001C
1D002C
2C0074
2C00E0
380780
3FF900
ENDCHAR
STARTCHAR Ntilde
ENCODING 209
SWIDTH 600 0
DWIDTH 12 0
BBX 12 17 0 0
BITMAP
000400
003F4D
0091F8
000000
03C00E
07D00D
07A01D
0AA01C
0A7028
0D3438
1D2834
1C1C74
2C0D70
280AA0
3407A0
7403D0
7002C0
ENDCHAR
STARTCHAR Ograve
ENCODING 210
SWIDTH 600 0
DWIDTH 12 0
BBX 11 18 1 0
BITMAP
002000
007800
001D00
000600
000000
01BE40
0B41D0
1D00B0
380074
B00074
E00074
E00074
D000B0
D000E0
E001D0
B00380
781E00
1BE400
ENDCHAR
STARTCHAR Oacute
ENCODING 211
SWIDTH 600 0
DWIDTH 12 0
BBX 11 17 1 0
BITMAP
000090
000780
001900
000000
01BE40
0B41D0
1D00B0
380074
B00074
E00074
E00074
D000B0
D000E0
E001D0
B00380
781E00
1BE400
ENDCHAR
STARTCHAR Ocircumflex
ENCODING 212
SWIDTH 600 0
DWIDTH 12 0
BBX 11 17 1 0
BITMAP
001F40
0076C0
018090
000000
01BE40
0B41D0
1D00B0
380074
B00074
E00074
E00074
D000B0
D000E0
E001D0
B00380
781E00
1BE400
ENDCHAR
STARTCHAR Otilde
ENCODING 213
SWIDTH 600 0
DWIDTH 12 0
BBX 11 17 1 0
BITMAP
001000
00FD34
0247E0
000000
01BE40
0B41D0
1D00B0
380074
B00074
E00074
E00074
D000B0
D000E0
E001D0
B00380
781E00
1BE400
ENDCHAR
STARTCHAR Odieresis
ENCODING 214
SWIDTH 600 0
DWIDTH 12 0
BBX 11 16 1 0
BITMAP
00A0D0
00A0D0
000000
01BE40
0B41D0
1D00B0
380074
B00074
E00074
E00074
D000B0
D000E0
E001D0
B00380
781E00
1BE400
ENDCHAR
STARTCHAR multiply
ENCODING 215
SWIDTH 600 0
DWIDTH 12 0
BBX 8 8 2 3
BITMAP
9006
741D
1D74
07D0
07D0
1D74
741D
9006
ENDCHAR
STARTCHAR Oslash
ENCODING 216
SWIDTH 600 0
DWIDTH 12 0
BBX 13 15 0 -1
BITMAP
00000100
006F9740
02D0BD00
07407C00
0D00FD00
2C039D00
380A1D00
342C1D00
34B02C00
36D03800
3F407400
2D00E000
7E078000
E2F90000
40000000
ENDCHAR
STARTCHAR Ugrave
ENCODING 217
SWIDTH 600 0
DWIDTH 12 0
BBX 11 18 1 0
BITMAP
002000
007800
001D00
000600
000000
0D0038
1D0034
2C0074
2C0070
3800B0
3400E0
7400D0
B001D0
B001C0
B00280
700740
381E00
1BE400
ENDCHAR
STARTCHAR Uacute
ENCODING 218
SWIDTH 600 0
DWIDTH 12 0
BBX 11 17 1 0
BITMAP
000090
000780
001900
000000
0D0038
1D0034
2C0074
2C0070
3800B0
3400E0
7400D0
B001D0
B001C0
B00280
700740
381E00
1BE400
ENDCHAR
STARTCHAR Ucircumflex
ENCODING 219
SWIDTH 600 0
DWIDTH 12 0
BBX 11 17 1 0
BITMAP
001F40
0076C0
018090
000000
0D0038
1D0034
2C0074
2C0070
3800B0
3400E0
7400D0
B001D0
B001C0
B00280
700740
381E00
1BE400
ENDCHAR
STARTCHAR Udieresis
ENCODING 220
SWIDTH 600 0
DWIDTH 12 0
BBX 11 16 1 0
BITMAP
00A0D0
00A0D0
000000
0D0038
1D0034
2C0074
2C0070
3800B0
3400E0
7400D0
B001D0
B001C0
B00280
700740
381E00
1BE400
ENDCHAR
STARTCHAR Yacute
ENCODING 221
SWIDTH 600 0
DWIDTH 12 0
BBX 11 17 2 0
BITMAP
000600
002E00
006000
000000
B00074
7401D0
380380
2C0B00
1C1D00
0D3800
0AA000
07C000
034000
074000
0B0000
0A0000
0E0000
ENDCHAR
STARTCHAR Thorn
ENCODING 222
SWIDTH 600 0
DWIDTH 12 0
BBX 10 13 1 0
BITMAP
0B0000
0A0000
0FFE40
1D01E0
1C00B0
2C00B0
2800B0
3800E0
740780
7FF900
B00000
A00000
E00000
ENDCHAR
STARTCHAR germandbls
ENCODING 223
SWIDTH 600 0
DWIDTH 12 0
BBX 11 14 0 0
BITMAP
002F90
00E0B0
028074
0340B0
0701D0
0B0740
0A0E00
0D0E00
1D0780
1C01F0
2C0038
380038
3450B4
746F90
ENDCHAR
STARTCHAR agrave
ENCODING 224
SWIDTH 600 0
DWIDTH 12 0
BBX 10 16 1 0
BITMAP
002000
003800
001D00
000600
000000
000000
02FD70
0E46E0
2800E0
7400D0
B001D0
E001C0
E00280
B00380
741B40
1F9340
ENDCHAR
STARTCHAR aacute
ENCODING 225
SWIDTH 600 0
DWIDTH 12 0
BBX 10 16 1 0
BITMAP
000080
0007C0
001E00
002800
000000
000000
02FD70
0E46E0
2800E0
7400D0
B001D0
E001C0
E00280
B00380
741B40
1F9340
ENDCHAR
STARTCHAR acircumflex
ENCODING 226
SWIDTH 600 0
DWIDTH 12 0
BBX 10 15 1 0
BITMAP
001F00
00B680
018090
000000
000000
02FD70
0E46E0
2800E0
7400D0
B001D0
E001C0
E00280
B00380
741B40
1F9340
ENDCHAR
STARTCHAR atilde
ENCODING 227
SWIDTH 600 0
DWIDTH 12 0
BBX 10 15 1 0
BITMAP
006410
01ED70
0247D0
000000
000000
02FD70
0E46E0
2800E0
7400D0
B001D0
E001C0
E00280
B00380
741B40
1F9340
ENDCHAR
STARTCHAR adieresis
ENCODING 228
SWIDTH 600 0
DWIDTH 12 0
BBX 10 14 1 0
BITMAP
00E1D0
00D1D0
000000
000000
02FD70
0E46E0
2800E0
7400D0
B001D0
E001C0
E00280
B00380
741B40
1F9340
ENDCHAR
STARTCHAR aring
ENCODING 229
SWIDTH 600 0
DWIDTH 12 0
BBX 10 15 1 0
BITMAP
002F40
006180
006280
002E00
000000
02FD70
0E46E0
2800E0
7400D0
B001D0
E001C0
E00280
B00380
741B40
1F9340
ENDCHAR
STARTCHAR ae
ENCODING 230
SWIDTH 600 0
DWIDTH 12 0
BBX 13 10 -1 0
BITMAP
06F86E00
090ED280
000B41C0
000A01C0
02FFAA80
1E4E5540
340D0000
701D0000
746A0500
2F82F900
ENDCHAR
STARTCHAR ccedilla
ENCODING 231
SWIDTH 600 0
DWIDTH 12 0
BBX 10 15 1 -5
BITMAP
01BF80
0B41E0
2C0000
740000
700000
B00000
B00000
740000
2D0780
07F900
018000
03C000
01D000
01C000
1E4000
ENDCHAR
STARTCHAR egrave
ENCODING 232
SWIDTH 600 0
DWIDTH 12 0
BBX 10 16 1 0
BITMAP
006000
007800
001D00
000600
000000
000000
01BE00
0B42C0
2C00D0
7400D0
BFFFD0
A00000
B00000
740000
3D0740
0BF900
ENDCHAR
STARTCHAR eacute
ENCODING 233
SWIDTH 600 0
DWIDTH 12 0
BBX 10 16 1 0
BITMAP
000180
000780
001E00
002400
000000
000000
01BE00
0B42C0
2C00D0
7400D0
BFFFD0
A00000
B00000
740000
3D0740
0BF900
ENDCHAR
STARTCHAR ecircumflex
ENCODING 234
SWIDTH 600 0
DWIDTH 12 0
BBX 10 15 1 0
BITMAP
002F00
00A680
028080
000000
000000
01BE00
0B42C0
2C00D0
7400D0
BFFFD0
A00000
B00000
740000
3D0740
0BF900
ENDCHAR
STARTCHAR edieresis
ENCODING 235
SWIDTH 600 0
DWIDTH 12 0
BBX 10 14 1 0
BITMAP
00D1D0
01D1C0
000000
000000
01BE00
0B42C0
2C00D0
7400D0
BFFFD0
A00000
B00000
740000
3D0740
0BF900
ENDCHAR
STARTCHAR igrave
ENCODING 236
SWIDTH 600 0
DWIDTH 12 0
BBX 8 16 2 0
BITMAP
0240
02C0
00A0
0020
0000
0000
BFD0
01C0
02C0
0380
0340
0740
0B00
0B00
0744
02F9
ENDCHAR
STARTCHAR iacute
ENCODING 237
SWIDTH 600 0
DWIDTH 12 0
BBX 8 16 2 0
BITMAP
0009
002D
00B4
0180
0000
0000
BFD0
01C0
02C0
0380
0340
0740
0B00
0B00
0744
02F9
ENDCHAR
STARTCHAR icircumflex
ENCODING 238
SWIDTH 600 0
DWIDTH 12 0
BBX 8 15 2 0
BITMAP
01F4
075D
0906
0000
0000
BFD0
01C0
02C0
0380
0340
0740
0B00
0B00
0744
02F9
ENDCHAR
STARTCHAR idieresis
ENCODING 239
SWIDTH 600 0
DWIDTH 12 0
BBX 8 14 2 0
BITMAP
0B0A
0A0E
0000
0000
BFD0
01C0
02C0
0380
0340
0740
0B00
0B00
0744
02F9
ENDCHAR
STARTCHAR eth
ENCODING 240
SWIDTH 600 0
DWIDTH 12 0
BBX 12 14 0 0
BITMAP
002805
001F7D
000BD0
0079E0
000074
01BE78
0B41B8
1D0038
380038
340038
740074
3800E0
1D0780
06F900
ENDCHAR
STARTCHAR ntilde
ENCODING 241
SWIDTH 600 0
DWIDTH 12 0
BBX 11 15 0 0
BITMAP
001908
007B5C
0091F4
000000
000000
071BE0
0A6474
0B4038
0D0038
1D0074
1C0070
2C00B0
2800E0
3800E0
7401D0
ENDCHAR
STARTCHAR ograve
ENCODING 242
SWIDTH 600 0
DWIDTH 12 0
BBX 10 16 1 0
BITMAP
006000
007400
002D00
000900
000000
000000
02FD00
1E0780
3801D0
B000E0
E000E0
E000D0
E002C0
B00780
781E00
1BE400
ENDCHAR
STARTCHAR oacute
ENCODING 243
SWIDTH 600 0
DWIDTH 12 0
BBX 10 16 1 0
BITMAP
000180
000780
001E00
002400
000000
000000
02FD00
1E0780
3801D0
B000E0
E000E0
E000D0
E002C0
B00780
781E00
1BE400
ENDCHAR
STARTCHAR ocircumflex
ENCODING 244
SWIDTH 600 0
DWIDTH 12 0
BBX 10 15 1 0
BITMAP
002E00
00A780
024080
000000
000000
02FD00
1E0780
3801D0
B000E0
E000E0
E000D0
E002C0
B00780
781E00
1BE400
ENDCHAR
STARTCHAR otilde
ENCODING 245
SWIDTH 600 0
DWIDTH 12 0
BBX 10 15 1 0
BITMAP
00A020
02ACA0
030780
000000
000000
02FD00
1E0780
3801D0
B000E0
E000E0
E000D0
E002C0
B00780
781E00
1BE400
ENDCHAR
STARTCHAR odieresis
ENCODING 246
SWIDTH 600 0
DWIDTH 12 0
BBX 10 14 1 0
BITMAP
01D2C0
01D2C0
000000
000000
02FD00
1E0780
3801D0
B000E0
E000E0
E000D0
E002C0
B00780
781E00
1BE400
ENDCHAR
STARTCHAR divide
ENCODING 247
SWIDTH 600 0
DWIDTH 12 0
BBX 10 9 1 2
BITMAP
00A000
00A000
000000
000000
7FFFD0
000000
000000
00A000
00A000
ENDCHAR
STARTCHAR oslash
ENCODING 248
SWIDTH 600 0
DWIDTH 12 0
BBX 12 10 0 0
BITMAP
00BF9D
0781F4
0E01F4
2C0B74
382D38
34B434
3AC070
2F00E0
3E0780
A6F900
ENDCHAR
STARTCHAR ugrave
ENCODING 249
SWIDTH 600 0
DWIDTH 12 0
BBX 10 16 1 0
BITMAP
006000
007400
002D00
000900
000000
000000
2C00B0
2800E0
3800D0
7401D0
7001C0
B002C0
A00280
E00B80
B46740
2F8300
ENDCHAR
STARTCHAR uacute
ENCODING 250
SWIDTH 600 0
DWIDTH 12 0
BBX 10 16 1 0
BITMAP
000180
000780
002D00
002400
000000
000000
2C00B0
2800E0
3800D0
7401D0
7001C0
B002C0
A00280
E00B80
B46740
2F8300
ENDCHAR
STARTCHAR ucircumflex
ENCODING 251
SWIDTH 600 0
DWIDTH 12 0
BBX 10 15 1 0
BITMAP
002E00
00E780
024080
000000
000000
2C00B0
2800E0
3800D0
7401D0
7001C0
B002C0
A00280
E00B80
B46740
2F8300
ENDCHAR
STARTCHAR udieresis
ENCODING 252
SWIDTH 600 0
DWIDTH 12 0
BBX 10 14 1 0
BITMAP
01D2C0
01D280
000000
000000
2C00B0
2800E0
3800D0
7401D0
7001C0
B002C0
A00280
E00B80
B46740
2F8300
ENDCHAR
STARTCHAR yacute
ENCODING 253
SWIDTH 600 0
DWIDTH 12 0
BBX 13 20 -1 -4
BITMAP
00001400
0000B800
0002D000
00024000
00000000
00000000
03400740
03800A00
02801C00
01C03800
00D0B000
00E1D000
00A28000
00770000
003D0000
003C0000
00740000
00E00000
02800000
BE000000
ENDCHAR
STARTCHAR thorn
ENCODING 254
SWIDTH 600 0
DWIDTH 12 0
BBX 11 18 0 -4
BITMAP
02C000
028000
038000
034000
071F90
0B90B0
0A0038
0D0038
0D0038
1C0038
2C0074
2800E0
3E07C0
75FE00
700000
B00000
A00000
E00000
ENDCHAR
STARTCHAR ydieresis
ENCODING 255
SWIDTH 600 0
DWIDTH 12 0
BBX 13 18 -1 -4
BITMAP
001C2800
001C2800
00000000
00000000
03400740
03800A00
02801C00
01C03800
00D0B000
00E1D000
00A28000
00770000
003D0000
003C0000
00740000
00E00000
02800000
BE000000
ENDCHAR
STARTCHAR Amacron
ENCODING 256
SWIDTH 600 0
DWIDTH 12 0
BBX 12 16 -1 0
BITMAP
000BFD
000000
000000
0002E0
0007A0
000AA0
001C70
002870
007470
00E074
01D034
03FFF8
0B0038
0E0028
2C002C
74002C
ENDCHAR
STARTCHAR amacron
ENCODING 257
SWIDTH 600 0
DWIDTH 12 0
BBX 10 13 1 0
BITMAP
00FFC0
000000
000000
02FD70
0E46E0
2800E0
7400D0
B001D0
E001C0
E00280
B00380
741B40
1F9340
ENDCHAR
STARTCHAR Abreve
ENCODING 258
SWIDTH 600 0
DWIDTH 12 0
BBX 12 17 -1 0
BITMAP
000906
000A1D
0002E4
000000
0002E0
0007A0
000AA0
001C70
002870
007470
00E074
01D034
03FFF8
0B0038
0E0028
2C002C
74002C
ENDCHAR
STARTCHAR abreve
ENCODING 259
SWIDTH 600 0
DWIDTH 12 0
BBX 10 14 1 0
BITMAP
01C070
00D1D0
007E40
000000
02FD70
0E46E0
2800E0
7400D0
B001D0
E001C0
E00280
B00380
741B40
1F9340
ENDCHAR
STARTCHAR Aogonek
ENCODING 260
SWIDTH 600 0
DWIDTH 12 0
BBX 11 17 -1 -4
BITMAP
0002E0
0007A0
000AA0
001D70
002870
007470
00E074
01D034
03FFF8
0B0038
0E0028
2C002C
74002C
000024
0000C0
0001C0
0000F8
ENDCHAR
STARTCHAR aogonek
ENCODING 261
SWIDTH 600 0
DWIDTH 12 0
BBX 10 14 1 -4
BITMAP
02FD70
0E46E0
2800E0
7400D0
B001D0
E001C0
E00280
B00380
741B40
1F9340
001900
003000
006000
007E00
ENDCHAR
STARTCHAR Cacute
ENCODING 262
SWIDTH 600 0
DWIDTH 12 0
BBX 11 17 1 0
BITMAP
000060
0002E0
000600
000000
006FD0
02D074
0B4010
1D0000
2C0000
340000
740000
740000
740000
740000
380000
1E0680
06FE00
ENDCHAR
STARTCHAR cacute
ENCODING 263
SWIDTH 600 0
DWIDTH 12 0
BBX 10 16 1 0
BITMAP
000080
0002D0
000F00
001800
000000
000000
01BF80
0B41E0
2C0000
740000
700000
B00000
B00000
740000
2D0780
07F900
ENDCHAR
STARTCHAR Ccircumflex
ENCODING 264
SWIDTH 600 0
DWIDTH 12 0
BBX 11 17 1 0
BITMAP
000BC0
0029A0
006020
000000
006FD0
02D074
0B4010
1D0000
2C0000
340000
740000
740000
740000
740000
380000
1E0680
06FE00
ENDCHAR
STARTCHAR ccircumflex
ENCODING 265
SWIDTH 600 0
DWIDTH 12 0
BBX 10 15 1 0
BITMAP
001F40
0075C0
018090
000000
000000
01BF80
0B41E0
2C0000
740000
700000
B00000
B00000
740000
2D0780
07F900
ENDCHAR
STARTCHAR Cdotaccent
ENCODING 266
SWIDTH 600 0
DWIDTH 12 0
BBX 11 16 1 0
BITMAP
000740
000740
000000
006FD0
02D074
0B4010
1D0000
2C0000
340000
740000
740000
740000
740000
380000
1E0680
06FE00
ENDCHAR
STARTCHAR cdotaccent
ENCODING 267
SWIDTH 600 0
DWIDTH 12 0
BBX 10 14 1 0
BITMAP
001F00
001E00
000000
000000
01BF80
0B41E0
2C0000
740000
700000
B00000
B00000
740000
2D0780
07F900
ENDCHAR
STARTCHAR Ccaron
ENCODING 268
SWIDTH 600 0
DWIDTH 12 0
BBX 11 17 1 0
BITMAP
002018
002DA0
000B80
000000
006FD0
02D074
0B4010
1D0000
2C0000
340000
740000
740000
740000
740000
380000
1E0680
06FE00
ENDCHAR
STARTCHAR ccaron
ENCODING 269
SWIDTH 600 0
DWIDTH 12 0
BBX 10 15 1 0
BITMAP
009060
0076D0
002F00
000000
000000
01BF80
0B41E0
2C0000
740000
700000
B00000
B00000
740000
2D0780
07F900
ENDCHAR
STARTCHAR Dcaron
ENCODING 270
SWIDTH 600 0
DWIDTH 12 0
BBX 11 17 0 0
BITMAP
002418
001DB0
000BC0
000000
03FE40
0741E0
070078
0B002C
0E002C
0D001C
1D002C
1C002C
2C0038
3800B0
3801D0
741B40
7FF800
ENDCHAR
STARTCHAR dcaron
ENCODING 271
SWIDTH 600 0
DWIDTH 12 0
BBX 14 16 1 0
BITMAP
000000D0
000001D0
000075C0
0000B280
0000B240
0000E000
06F9D000
1E07D000
3802C000
B0028000
E0038000
D0034000
D0074000
E00B0000
B46E0000
2F8A0000
ENDCHAR
STARTCHAR Dcroat
ENCODING 272
SWIDTH 600 0
DWIDTH 12 0
BBX 12 13 0 0
BITMAP
02FF80
0381B4
03403C
07401D
07001D
0B001D
7FF81D
0D001C
1D002C
2C0074
2C00E0
380780
3FF900
ENDCHAR
STARTCHAR dcroat
ENCODING 273
SWIDTH 600 0
DWIDTH 12 0
BBX 12 14 1 0
BITMAP
000028
000578
002FFE
000074
000070
06F9A0
1E06E0
3801D0
B001D0
E002C0
E00280
E00380
B41B40
2F9700
ENDCHAR
STARTCHAR Emacron
ENCODING 274
SWIDTH 600 0
DWIDTH 12 0
BBX 11 16 1 0
BITMAP
003FF0
000000
000000
07FFF8
070000
0B0000
0E0000
0E0000
1D0000
1FFF80
2C0000
380000
380000
740000
700000
BFFF80
ENDCHAR
STARTCHAR emacron
ENCODING 275
SWIDTH 600 0
DWIDTH 12 0
BBX 10 13 1 0
BITMAP
00FFC0
000000
000000
01BE00
0B42C0
2C00D0
7400D0
BFFFD0
A00000
B00000
740000
3D0740
0BF900
ENDCHAR
STARTCHAR Ebreve
ENCODING 276
SWIDTH 600 0
DWIDTH 12 0
BBX 11 17 1 0
BITMAP
006024
003470
001F80
000000
07FFF8
070000
0B0000
0E0000
0E0000
1D0000
1FFF80
2C0000
380000
380000
740000
700000
BFFF80
ENDCHAR
STARTCHAR ebreve
ENCODING 277
SWIDTH 600 0
DWIDTH 12 0
BBX 10 14 1 0
BITMAP
018060
00D1D0
007E40
000000
01BE00
0B42C0
2C00D0
7400D0
BFFFD0
A00000
B00000
740000
3D0740
0BF900
ENDCHAR
STARTCHAR Edotaccent
ENCODING 278
SWIDTH 600 0
DWIDTH 12 0
BBX 11 16 1 0
BITMAP
000740
000740
000000
07FFF8
070000
0B0000
0E0000
0E0000
1D0000
1FFF80
2C0000
380000
380000
740000
700000
BFFF80
ENDCHAR
STARTCHAR edotaccent
ENCODING 279
SWIDTH 600 0
DWIDTH 12 0
BBX 10 14 1 0
BITMAP
001E00
002D00
000000
000000
01BE00
0B42C0
2C00D0
7400D0
BFFFD0
A00000
B00000
740000
3D0740
0BF900
ENDCHAR
STARTCHAR Eogonek
ENCODING 280
SWIDTH 600 0
DWIDTH 12 0
BBX 11 17 1 -4
BITMAP
07FFF8
070000
0B0000
0E0000
0E0000
1D0000
1FFF80
2C0000
380000
380000
740000
700000
BFFF80
001900
003000
007000
007E00
ENDCHAR
STARTCHAR eogonek
ENCODING 281
SWIDTH 600 0
DWIDTH 12 0
BBX 10 14 1 -4
BITMAP
01BE00
0B42C0
2C00D0
7400D0
BFFFD0
A00000
B00000
740000
3D0740
0BFD00
002400
009000
00D000
00BD00
ENDCHAR
STARTCHAR Ecaron
ENCODING 282
SWIDTH 600 0
DWIDTH 12 0
BBX 11 17 1 0
BITMAP
002028
002DA0
000B80
000000
07FFF8
070000
0B0000
0E0000
0E0000
1D0000
1FFF80
2C0000
380000
380000
740000
700000
BFFF80
ENDCHAR
STARTCHAR ecaron
ENCODING 283
SWIDTH 600 0
DWIDTH 12 0
BBX 10 15 1 0
BITMAP
008060
00A280
003E00
000000
000000
01BE00
0B42C0
2C00D0
7400D0
BFFFD0
A00000
B00000
740000
3D0740
0BF900
ENDCHAR
STARTCHAR Gcircumflex
ENCODING 284
SWIDTH 600 0
DWIDTH 12 0
BBX 11 17 1 0
BITMAP
000B80
0039D0
009060
000000
006F90
02D0B4
0E0010
2C0000
380000
740000
B01FE0
B000E0
B000D0
B001C0
7401C0
2D0780
06F900
ENDCHAR
STARTCHAR gcircumflex
ENCODING 285
SWIDTH 600 0
DWIDTH 12 0
BBX 11 19 0 -4
BITMAP
0007C0
002DA0
006024
000000
000000
00BF5C
0391B8
0A0038
1D0034
2C0070
3800B0
3800A0
2C01E0
1E5AD0
02A1C0
0002C0
000380
641A00
2FE400
ENDCHAR
STARTCHAR Gbreve
ENCODING 286
SWIDTH 600 0
DWIDTH 12 0
BBX 11 17 1 0
BITMAP
006024
0074A0
002F80
000000
006F90
02D0B4
0E0010
2C0000
380000
740000
B01FE0
B000E0
B000D0
B001C0
7401C0
2D0780
06F900
ENDCHAR
STARTCHAR gbreve
ENCODING 287
SWIDTH 600 0
DWIDTH 12 0
BBX 11 18 0 -4
BITMAP
00701C
003474
001F90
000000
00BF5C
0391B8
0A0038
1D0034
2C0070
3800B0
3800A0
2C01E0
1E5AD0
02A1C0
0002C0
000380
641A00
2FE400
ENDCHAR
STARTCHAR Gdotaccent
ENCODING 288
SWIDTH 600 0
DWIDTH 12 0
BBX 11 16 1 0
BITMAP
000740
000B00
000000
006F90
02D0B4
0E0010
2C0000
380000
740000
B01FE0
B000E0
B000D0
B001C0
7401C0
2D0780
06F900
ENDCHAR
STARTCHAR gdotaccent
ENCODING 289
SWIDTH 600 0
DWIDTH 12 0
BBX 11 18 0 -4
BITMAP
000780
000780
000000
000000
00BF5C
0391B8
0A0038
1D0034
2C0070
3800B0
3800A0
2C01E0
1E5AD0
02A1C0
0002C0
000380
641A00
2FE400
ENDCHAR
STARTCHAR uni0122
ENCODING 290
SWIDTH 600 0
DWIDTH 12 0
BBX 11 18 1 -5
BITMAP
006F90
02D0B4
0E0010
2C0000
380000
740000
B01FE0
B000E0
B000D0
B001C0
7401C0
2D0780
06F900
000000
01D000
007000
00A000
0B8000
ENDCHAR
STARTCHAR uni0123
ENCODING 291
SWIDTH 600 0
DWIDTH 12 0
BBX 11 18 0 -4
BITMAP
000190
000A40
000A00
000100
00BF5C
0391B8
0A0038
1D0034
2C0070
3800B0
3800A0
2C01E0
1E5AD0
02A1C0
0002C0
000380
641A00
2FE400
ENDCHAR
STARTCHAR Hcircumflex
ENCODING 292
SWIDTH 600 0
DWIDTH 12 0
BBX 12 17 0 0
BITMAP
0007D0
001DB0
006024
000000
03400E
07400D
0B001D
0B001C
0E002C
0E0028
1FFFF4
2C0074
2C0070
3800B0
3400E0
7400D0
B001D0
ENDCHAR
STARTCHAR hcircumflex
ENCODING 293
SWIDTH 600 0
DWIDTH 12 0
BBX 11 18 0 0
BITMAP
01F400
0B6C00
180900
000000
02C000
028000
038000
034000
071BE0
0B6474
0B4038
0D0038
0D0074
1C0070
2C00B0
2800E0
3800E0
7401D0
ENDCHAR
STARTCHAR Hbar
ENCODING 294
SWIDTH 600 0
DWIDTH 12 0
BBX 13 13 0 0
BITMAP
03400E00
07400D00
3FFFFF80
0A002C00
0E002800
1D003800
1FFFF400
2C007400
2C007000
3800A000
3400E000
7400D000
B001D000
ENDCHAR
STARTCHAR hbar
ENCODING 295
SWIDTH 600 0
DWIDTH 12 0
BBX 10 14 1 0
BITMAP
0B0000
0B0000
7FFF00
0D0000
1D0000
2C6F80
2A81D0
3D00E0
3401D0
7001D0
B002C0
A00280
E00380
D00740
ENDCHAR
STARTCHAR Itilde
ENCODING 296
SWIDTH 600 0
DWIDTH 12 0
BBX 11 17 1 0
BITMAP
001000
00FD34
0247E0
000000
0BFFF4
002800
003800
003400
007400
00B000
00A000
00E000
00D000
01D000
01C000
02C000
FFFF00
ENDCHAR
STARTCHAR itilde
ENCODING 297
SWIDTH 600 0
DWIDTH 12 0
BBX 9 15 2 0
BITMAP
064140
0EA340
182E00
000000
000000
BFD000
01C000
02C000
038000
034000
074000
0B0000
0B0000
074400
02F900
ENDCHAR
STARTCHAR Imacron
ENCODING 298
SWIDTH 600 0
DWIDTH 12 0
BBX 11 16 1 0
BITMAP
00BFD0
000000
000000
0BFFF4
002800
003800
003400
007400
00B000
00A000
00E000
00D000
01D000
01C000
02C000
FFFF00
ENDCHAR
STARTCHAR imacron
ENCODING 299
SWIDTH 600 0
DWIDTH 12 0
BBX 8 13 2 0
BITMAP
0BFD
0000
0000
BFD0
01C0
02C0
0380
0340
0740
0B00
0B00
0744
02F9
ENDCHAR
STARTCHAR Ibreve
ENCODING 300
SWIDTH 600 0
DWIDTH 12 0
BBX 11 17 1 0
BITMAP
009060
00A1D0
002E40
000000
0BFFF4
002800
003800
003400
007400
00B000
00A000
00E000
00D000
01D000
01C000
02C000
FFFF00
ENDCHAR
STARTCHAR ibreve
ENCODING 301
SWIDTH 600 0
DWIDTH 12 0
BBX 9 14 2 0
BITMAP
090340
0A0A00
02F800
000000
BFD000
01C000
02C000
038000
034000
074000
0B0000
0B0000
074400
02F900
ENDCHAR
STARTCHAR Iogonek
ENCODING 302
SWIDTH 600 0
DWIDTH 12 0
BBX 11 17 1 -4
BITMAP
0BFFF4
002800
003800
003400
007400
00B000
00A000
00E000
00D000
01D000
01C000
02C000
FFFF00
060000
1C0000
280000
1F8000
ENDCHAR
STARTCHAR iogonek
ENCODING 303
SWIDTH 600 0
DWIDTH 12 0
BBX 8 18 2 -4
BITMAP
00F0
00E0
0000
0000
BFD0
01C0
02C0
0380
0340
0740
0B00
0B00
0744
02FD
00A0
0280
0280
01F4
ENDCHAR
STARTCHAR Idotaccent
ENCODING 304
SWIDTH 600 0
DWIDTH 12 0
BBX 11 16 1 0
BITMAP
000E00
000E00
000000
0BFFF4
002800
003800
003400
007400
00B000
00A000
00E000
00D000
01D000
01C000
02C000
FFFF00
ENDCHAR
STARTCHAR dotlessi
ENCODING 305
SWIDTH 600 0
DWIDTH 12 0
BBX 8 10 2 0
BITMAP
BFD0
01C0
02C0
0380
0340
0740
0B00
0B00
0744
02F9
ENDCHAR
STARTCHAR IJ
ENCODING 306
SWIDTH 600 0
DWIDTH 12 0
BBX 11 16 1 -3
BITMAP
0B0074
0A00B0
0E00A0
1D00E0
1C00D0
2C01D0
2802C0
380280
740380
700340
B00740
E00B00
E00A00
000E00
001C00
01F400
ENDCHAR
STARTCHAR ij
ENCODING 307
SWIDTH 600 0
DWIDTH 12 0
BBX 10 18 1 -4
BITMAP
0780F0
0781E0
000000
000000
0E02C0
0E0280
1D0380
1C0740
2C0700
280B00
380A00
740D00
701D00
B01C00
002C00
002800
007400
07D000
ENDCHAR
STARTCHAR Jcircumflex
ENCODING 308
SWIDTH 600 0
DWIDTH 12 0
BBX 11 17 0 0
BITMAP
0007D0
001DB0
006024
000000
01FFF8
000034
000074
000070
0000B0
0000E0
0000D0
0001D0
0001C0
000280
100740
781E00
1BF400
ENDCHAR
STARTCHAR jcircumflex
ENCODING 309
SWIDTH 600 0
DWIDTH 12 0
BBX 11 19 0 -4
BITMAP
0002F0
000A68
002408
000000
000000
07FF80
000380
000740
000740
000B00
000A00
000E00
000D00
001D00
002C00
002800
007400
81E000
BF8000
ENDCHAR
STARTCHAR uni0136
ENCODING 310
SWIDTH 600 0
DWIDTH 12 0
BBX 11 18 1 -5
BITMAP
0B0028
0E00E0
0D0380
1D0E00
1C3800
2DF000
3FB400
3E2C00
781D00
700E00
B00740
E00380
D002C0
000000
01D000
00A000
01A000
0B4000
ENDCHAR
STARTCHAR uni0137
ENCODING 311
SWIDTH 600 0
DWIDTH 12 0
BBX 11 19 1 -5
BITMAP
074000
070000
0B0000
0E0000
0D00B4
1D02D0
1C0F00
2C7C00
39F400
3FA800
7D1D00
B40B00
B00740
E002C0
000000
029000
00A000
01D000
0E4000
ENDCHAR
STARTCHAR kgreenlandic
ENCODING 312
SWIDTH 600 0
DWIDTH 12 0
BBX 11 10 1 0
BITMAP
1D00B4
1C02C0
2C1E00
287800
3AF400
3F6C00
7D1D00
B00B00
A00740
E002C0
ENDCHAR
STARTCHAR Lacute
ENCODING 313
SWIDTH 600 0
DWIDTH 12 0
BBX 9 17 2 0
BITMAP
002400
01E400
024000
000000
0B0000
0B0000
0E0000
0D0000
1D0000
2C0000
2C0000
380000
340000
740000
B00000
B00000
FFFF40
ENDCHAR
STARTCHAR lacute
ENCODING 314
SWIDTH 600 0
DWIDTH 12 0
BBX 7 18 3 0
BITMAP
0018
00B4
0280
0000
FF80
0340
0740
0700
0B00
0E00
0D00
1D00
2C00
2800
3800
3400
3810
1BE0
ENDCHAR
STARTCHAR uni013B
ENCODING 315
SWIDTH 600 0
DWIDTH 12 0
BBX 9 18 2 -5
BITMAP
0B0000
0B0000
0E0000
0D0000
1D0000
2C0000
2C0000
380000
340000
740000
B00000
B00000
FFFF40
000000
038000
01C000
02C000
1E0000
ENDCHAR
STARTCHAR uni013C
ENCODING 316
SWIDTH 600 0
DWIDTH 12 0
BBX 6 19 3 -5
BITMAP
FF80
0340
0740
0700
0B00
0E00
0D00
1D00
2C00
2800
3800
3400
3810
1BE0
0000
0A00
0380
0740
3900
ENDCHAR
STARTCHAR Lcaron
ENCODING 317
SWIDTH 600 0
DWIDTH 12 0
BBX 9 16 2 0
BITMAP
000280
000380
000340
0B0700
0B0600
0E0000
0D0000
1D0000
2C0000
2C0000
380000
340000
740000
B00000
B00000
FFFF40
ENDCHAR
STARTCHAR lcaron
ENCODING 318
SWIDTH 600 0
DWIDTH 12 0
BBX 9 16 3 0
BITMAP
000340
000700
FF8600
034A00
074D00
070000
0B0000
0E0000
0D0000
1D0000
2C0000
280000
380000
340000
381000
1BE000
ENDCHAR
STARTCHAR Ldot
ENCODING 319
SWIDTH 600 0
DWIDTH 12 0
BBX 9 13 2 0
BITMAP
0B0000
0B0000
0E0000
0D0000
1D0000
2C03C0
2C0780
380000
340000
740000
B00000
B00000
FFFF40
ENDCHAR
STARTCHAR ldot
ENCODING 320
SWIDTH 600 0
DWIDTH 12 0
BBX 11 14 2 0
BITMAP
BFC000
028000
038000
074000
070000
0B0000
0E00B4
0E00F0
1D0000
1C0000
2C0000
280000
2C1000
0BE400
ENDCHAR
STARTCHAR Lslash
ENCODING 321
SWIDTH 600 0
DWIDTH 12 0
BBX 10 13 1 0
BITMAP
02C000
02C000
038000
034000
074140
0B1E40
0BE400
6F4000
ED0000
1D0000
2C0000
2C0000
3FFFD0
ENDCHAR
STARTCHAR lslash
ENCODING 322
SWIDTH 600 0
DWIDTH 12 0
BBX 9 14 2 0
BITMAP
3FE000
00D000
01D000
01C000
02CB40
03F800
1F8000
AB4000
0B0000
0A0000
0E0000
0D0000
0E0400
06F800
ENDCHAR
STARTCHAR Nacute
ENCODING 323
SWIDTH 600 0
DWIDTH 12 0
BBX 12 17 0 0
BITMAP
000024
0001E0
000640
000000
03C00E
07D00D
07A01D
0AA01C
0A7028
0D3438
1D2834
1C1C74
2C0D70
280AA0
3407A0
7403D0
7002C0
ENDCHAR
STARTCHAR nacute
ENCODING 324
SWIDTH 600 0
DWIDTH 12 0
BBX 11 16 0 0
BITMAP
000020
0001F0
000780
000900
000000
000000
071BE0
0A6474
0B4038
0D0038
1D0074
1C0070
2C00B0
2800E0
3800E0
7401D0
ENDCHAR
STARTCHAR uni0145
ENCODING 325
SWIDTH 600 0
DWIDTH 12 0
BBX 12 18 0 -5
BITMAP
03C00E
07D00D
07A01D
0AA01C
0A7028
0D3438
1D2834
1C1C74
2C0D70
280AA0
3407A0
7403D0
7002C0
000000
01D000
007000
00A000
0B8000
ENDCHAR
STARTCHAR uni0146
ENCODING 326
SWIDTH 600 0
DWIDTH 12 0
BBX 11 15 0 -5
BITMAP
071BE0
0A6474
0B4038
0D0038
1D0074
1C0070
2C00B0
2800E0
3800E0
7401D0
000000
00E000
007000
00B000
078000
ENDCHAR
STARTCHAR Ncaron
ENCODING 327
SWIDTH 600 0
DWIDTH 12 0
BBX 12 17 0 0
BITMAP
002418
001DB4
000BD0
000000
03C00E
07D00D
07A01D
0AA01C
0A7028
0D3438
1D2834
1C1C74
2C0D70
280AA0
3407A0
7403D0
7002C0
ENDCHAR
STARTCHAR ncaron
ENCODING 328
SWIDTH 600 0
DWIDTH 12 0
BBX 11 15 0 0
BITMAP
002018
002DA0
000B80
000000
000000
071BE0
0A6474
0B4038
0D0038
1D0074
1C0070
2C00B0
2800E0
3800E0
7401D0
ENDCHAR
STARTCHAR napostrophe
ENCODING 329
SWIDTH 600 0
DWIDTH 12 0
BBX 12 14 0 0
BITMAP
1E0000
2F4000
2F4000
070000
0D71BD
78B60B
90B407
00E007
00D00B
01D00E
02C00D
02801D
03801C
03402C
ENDCHAR
STARTCHAR Eng
ENCODING 330
SWIDTH 600 0
DWIDTH 12 0
BBX 11 13 0 0
BITMAP
035BE0
07A078
0B402C
0A001C
0E001C
0D001C
1D002C
2C0028
280038
380074
3400E0
7402C0
B03E00
ENDCHAR
STARTCHAR eng
ENCODING 331
SWIDTH 600 0
DWIDTH 12 0
BBX 11 14 0 -4
BITMAP
071BE0
0A6474
0B4038
0D0038
1D0074
1C0070
2C00B0
2800A0
3800E0
7400D0
0001C0
0002C0
000380
003E00
ENDCHAR
STARTCHAR Omacron
ENCODING 332
SWIDTH 600 0
DWIDTH 12 0
BBX 11 16 1 0
BITMAP
00BFD0
000000
000000
01BE40
0B41D0
1D00B0
380074
B00074
E00074
E00074
D000B0
D000E0
E001D0
B00380
781E00
1BE400
ENDCHAR
STARTCHAR omacron
ENCODING 333
SWIDTH 600 0
DWIDTH 12 0
BBX 10 13 1 0
BITMAP
01FF80
000000
000000
02FD00
1E0780
3801D0
B000E0
E000E0
E000D0
E002C0
B00780
781E00
1BE400
ENDCHAR
STARTCHAR Obreve
ENCODING 334
SWIDTH 600 0
DWIDTH 12 0
BBX 11 17 1 0
BITMAP
009060
00A1D0
002E40
000000
01BE40
0B41D0
1D00B0
380074
B00074
E00074
E00074
D000B0
D000E0
E001D0
B00380
781E00
1BE400
ENDCHAR
STARTCHAR obreve
ENCODING 335
SWIDTH 600 0
DWIDTH 12 0
BBX 10 14 1 0
BITMAP
0180A0
01D1C0
00BE00
000000
02FD00
1E0780
3801D0
B000E0
E000E0
E000D0
E002C0
B00780
781E00
1BE400
ENDCHAR
STARTCHAR Ohungarumlaut
ENCODING 336
SWIDTH 600 0
DWIDTH 12 0
BBX 11 17 1 0
BITMAP
000618
001C74
002090
000000
01BE40
0B41D0
1D00B0
380074
B00074
E00074
E00074
D000B0
D000E0
E001D0
B00380
781E00
1BE400
ENDCHAR
STARTCHAR ohungarumlaut
ENCODING 337
SWIDTH 600 0
DWIDTH 12 0
BBX 11 15 1 0
BITMAP
000924
001C70
0034D0
005140
000000
02FD00
1E0780
3801D0
B000E0
E000E0
E000D0
E002C0
B00780
781E00
1BE400
ENDCHAR
STARTCHAR OE
ENCODING 338
SWIDTH 600 0
DWIDTH 12 0
BBX 13 13 0 0
BITMAP
006FFFC0
02D28000
0B038000
1D034000
28074000
34070000
740BFC00
740A0000
740D0000
741D0000
381C0000
2E280000
06FFF800
ENDCHAR
STARTCHAR oe
ENCODING 339
SWIDTH 600 0
DWIDTH 12 0
BBX 12 10 0 0
BITMAP
07E0B9
2D364A
741E07
A01C07
D01FFE
D02800
D03800
D07800
A1DD14
2E47E4
ENDCHAR
STARTCHAR Racute
ENCODING 340
SWIDTH 600 0
DWIDTH 12 0
BBX 11 17 0 0
BITMAP
000060
0001E0
000640
000000
02FF90
034078
07402C
07002C
0B0038
0A01E0
0FFE40
1D1D00
1C0E00
2C0B00
280340
3802C0
7401D0
ENDCHAR
STARTCHAR racute
ENCODING 341
SWIDTH 600 0
DWIDTH 12 0
BBX 9 16 2 0
BITMAP
000240
000B40
002D00
002000
000000
000000
1C2F80
1C9040
2A0000
2C0000
340000
740000
700000
B00000
A00000
E00000
ENDCHAR
STARTCHAR uni0156
ENCODING 342
SWIDTH 600 0
DWIDTH 12 0
BBX 11 18 0 -5
BITMAP
02FF90
034078
07402C
07002C
0B0038
0A01E0
0FFE40
1D1D00
1C0E00
2C0B00
280340
3802C0
7401D0
000000
00E000
007400
007000
079000
ENDCHAR
STARTCHAR uni0157
ENCODING 343
SWIDTH 600 0
DWIDTH 12 0
BBX 11 15 0 -5
BITMAP
01C2F8
01C904
02A000
02C000
034000
074000
070000
0B0000
0A0000
0E0000
000000
1D0000
0A0000
1A0000
B40000
ENDCHAR
STARTCHAR Rcaron
ENCODING 344
SWIDTH 600 0
DWIDTH 12 0
BBX 11 17 0 0
BITMAP
002418
001DB4
000BC0
000000
02FF90
034078
07402C
07002C
0B0038
0A01E0
0FFE40
1D1D00
1C0E00
2C0B00
280340
3802C0
7401D0
ENDCHAR
STARTCHAR rcaron
ENCODING 345
SWIDTH 600 0
DWIDTH 12 0
BBX 10 15 2 0
BITMAP
014090
00D740
007D00
000000
000000
1C2F80
1C9040
2A0000
2C0000
340000
740000
700000
B00000
A00000
E00000
ENDCHAR
STARTCHAR Sacute
ENCODING 346
SWIDTH 600 0
DWIDTH 12 0
BBX 10 17 1 0
BITMAP
000180
000B80
001800
000000
01BE40
0742D0
0E0040
0D0000
0F0000
07D000
00BD00
001F00
000780
000380
900740
B41E00
1BE400
ENDCHAR
STARTCHAR sacute
ENCODING 347
SWIDTH 600 0
DWIDTH 12 0
BBX 9 16 1 0
BITMAP
000180
000780
001E00
002400
000000
000000
06FE00
0E06C0
1C0000
1E0000
07E400
007E00
000740
000340
B40B00
1BF900
ENDCHAR
STARTCHAR Scircumflex
ENCODING 348
SWIDTH 600 0
DWIDTH 12 0
BBX 10 17 1 0
BITMAP
002F00
00A680
018080
000000
01BE40
0742D0
0E0040
0D0000
0F0000
07D000
00BD00
001F00
000780
000380
900740
B41E00
1BE400
ENDCHAR
STARTCHAR scircumflex
ENCODING 349
SWIDTH 600 0
DWIDTH 12 0
BBX 9 15 1 0
BITMAP
002E00
00A780
024080
000000
000000
06FE00
0E06C0
1C0000
1E0000
07E400
007E00
000740
000340
B40B00
1BF900
ENDCHAR
STARTCHAR uni015E
ENCODING 350
SWIDTH 600 0
DWIDTH 12 0
BBX 10 18 1 -5
BITMAP
01BE40
0742D0
0E0040
0D0000
0F0000
07D000
00BD00
001F00
000780
000380
900740
B41E00
1BE400
024000
078000
01C000
028000
1E0000
ENDCHAR
STARTCHAR uni015F
ENCODING 351
SWIDTH 600 0
DWIDTH 12 0
BBX 9 15 1 -5
BITMAP
06FE00
0E06C0
1C0000
1E0000
07E400
007E00
000740
000340
B40B00
1BF900
024000
078000
01C000
028000
1E0000
ENDCHAR
STARTCHAR Scaron
ENCODING 352
SWIDTH 600 0
DWIDTH 12 0
BBX 10 17 1 0
BITMAP
008060
00B680
002E00
000000
01BE40
0742D0
0E0040
0D0000
0F0000
07D000
00BD00
001F00
000780
000380
900740
B41E00
1BE400
ENDCHAR
STARTCHAR scaron
ENCODING 353
SWIDTH 600 0
DWIDTH 12 0
BBX 10 15 1 0
BITMAP
018090
00A680
003E00
000000
000000
06FE00
0E06C0
1C0000
1E0000
07E400
007E00
000740
000340
B40B00
1BF900
ENDCHAR
STARTCHAR uni0162
ENCODING 354
SWIDTH 600 0
DWIDTH 12 0
BBX 11 18 2 -5
BITMAP
FFFFF4
00A000
00E000
01D000
01D000
02C000
028000
038000
034000
074000
0B0000
0A0000
0E0000
080000
2D0000
0A0000
1D0000
E40000
ENDCHAR
STARTCHAR uni0163
ENCODING 355
SWIDTH 600 0
DWIDTH 12 0
BBX 10 18 1 -5
BITMAP
00A000
00D000
01D000
7FFFE0
028000
038000
074000
070000
0B0000
0A0000
0A0000
0B4100
02FE40
009000
01E000
007000
00A000
0B8000
ENDCHAR
STARTCHAR Tcaron
ENCODING 356
SWIDTH 600 0
DWIDTH 12 0
BBX 11 17 2 0
BITMAP
024180
01DB40
00BD00
000000
FFFFF4
00A000
00E000
01D000
01D000
02C000
028000
038000
034000
074000
0B0000
0A0000
0E0000
ENDCHAR
STARTCHAR tcaron
ENCODING 357
SWIDTH 600 0
DWIDTH 12 0
BBX 10 16 1 0
BITMAP
0000A0
0000A0
0000D0
00A1C0
00D180
01D000
7FFFE0
028000
038000
074000
070000
0B0000
0A0000
0A0000
0B4100
02FE40
ENDCHAR
STARTCHAR Tbar
ENCODING 358
SWIDTH 600 0
DWIDTH 12 0
BBX 11 13 2 0
BITMAP
FFFFF4
00A000
00E000
00D000
01D000
01C000
7FFE00
038000
034000
074000
0B0000
0B0000
0E0000
ENDCHAR
STARTCHAR tbar
ENCODING 359
SWIDTH 600 0
DWIDTH 12 0
BBX 10 13 1 0
BITMAP
00A000
00D000
01D000
7FFFE0
028000
038000
074000
FFFF80
0B0000
0A0000
0A0000
074100
02FE40
ENDCHAR
STARTCHAR Utilde
ENCODING 360
SWIDTH 600 0
DWIDTH 12 0
BBX 11 17 1 0
BITMAP
001000
00FD34
0247E0
000000
0D0038
1D0034
2C0074
2C0070
3800B0
3400E0
7400D0
B001D0
B001C0
B00280
700740
381E00
1BE400
ENDCHAR
STARTCHAR utilde
ENCODING 361
SWIDTH 600 0
DWIDTH 12 0
BBX 10 15 1 0
BITMAP
00A020
02ACA0
030780
000000
000000
2C00B0
2800E0
3800D0
7401D0
7001C0
B002C0
A00280
E00B80
B46740
2F8300
ENDCHAR
STARTCHAR Umacron
ENCODING 362
SWIDTH 600 0
DWIDTH 12 0
BBX 11 16 1 0
BITMAP
00BFD0
000000
000000
0D0038
1D0034
2C0074
2C0070
3800B0
3400E0
7400D0
B001D0
B001C0
B00280
700740
381E00
1BE400
ENDCHAR
STARTCHAR umacron
ENCODING 363
SWIDTH 600 0
DWIDTH 12 0
BBX 10 13 1 0
BITMAP
01FF80
000000
000000
2C00B0
2800E0
3800D0
7401D0
7001C0
B002C0
A00280
E00B80
B46740
2F8300
ENDCHAR
STARTCHAR Ubreve
ENCODING 364
SWIDTH 600 0
DWIDTH 12 0
BBX 11 17 1 0
BITMAP
009060
00A1D0
002E40
000000
0D0038
1D0034
2C0074
2C0070
3800B0
3400E0
7400D0
B001D0
B001C0
B00280
700740
381E00
1BE400
ENDCHAR
STARTCHAR ubreve
ENCODING 365
SWIDTH 600 0
DWIDTH 12 0
BBX 10 14 1 0
BITMAP
0180A0
01D1C0
00BE00
000000
2C00B0
2800E0
3800D0
7401D0
7001C0
B002C0
A00280
E00B80
B46740
2F8300
ENDCHAR
STARTCHAR Uring
ENCODING 366
SWIDTH 600 0
DWIDTH 12 0
BBX 11 18 1 0
BITMAP
001F40
002580
003180
001E00
000000
0D0038
1D0034
2C0074
2C0070
3800B0
3400E0
7400D0
B001D0
B001C0
B00280
700740
381E00
1BE400
ENDCHAR
STARTCHAR uring
ENCODING 367
SWIDTH 600 0
DWIDTH 12 0
BBX 10 15 1 0
BITMAP
002E00
00A240
009240
007E00
000000
2C00B0
2800E0
3800D0
7401D0
7001C0
B002C0
A00280
E00B80
B46740
2F8300
ENDCHAR
STARTCHAR Uhungarumlaut
ENCODING 368
SWIDTH 600 0
DWIDTH 12 0
BBX 11 17 1 0
BITMAP
000618
001C74
002090
000000
0D0038
1D0034
2C0074
2C0070
3800B0
3400E0
7400D0
B001D0
B001C0
B00280
700740
381E00
1BE400
ENDCHAR
STARTCHAR uhungarumlaut
ENCODING 369
SWIDTH 600 0
DWIDTH 12 0
BBX 11 15 1 0
BITMAP
000924
001C70
0034D0
005140
000000
2C00B0
2800E0
3800D0
7401D0
7001C0
B002C0
A00280
E00B80
B46740
2F8300
ENDCHAR
STARTCHAR Uogonek
ENCODING 370
SWIDTH 600 0
DWIDTH 12 0
BBX 11 17 1 -4
BITMAP
0D0038
1D0034
2C0074
2C0070
3800B0
3400E0
7400D0
B001D0
B001C0
B00280
B00740
381E00
1BF400
064000
1C0000
280000
1F8000
ENDCHAR
STARTCHAR uogonek
ENCODING 371
SWIDTH 600 0
DWIDTH 12 0
BBX 10 14 1 -4
BITMAP
2C00B0
2800E0
3800D0
7401D0
7001C0
B002C0
A00280
E00B80
B46740
2F8300
001900
006000
00A000
007E00
ENDCHAR
STARTCHAR Wcircumflex
ENCODING 372
SWIDTH 600 0
DWIDTH 12 0
BBX 12 17 1 0
BITMAP
001F40
00B6C0
018090
000000
34000A
74000D
74001C
701028
707434
70F470
B1E8A0
A268D0
A719D0
AA19C0
AC1E80
F81F40
F41F00
ENDCHAR
STARTCHAR wcircumflex
ENCODING 373
SWIDTH 600 0
DWIDTH 12 0
BBX 12 15 1 0
BITMAP
002E00
01E740
024180
000000
000000
D0141D
D0B428
D0E434
D1A470
D368A0
D729D0
DA2A80
ED2B40
F82F00
F42E00
ENDCHAR
STARTCHAR Ycircumflex
ENCODING 374
SWIDTH 600 0
DWIDTH 12 0
BBX 11 17 2 0
BITMAP
00BC00
02DA00
060240
000000
B00074
7401D0
380380
2C0B00
1C1D00
0D3800
0AA000
07C000
034000
074000
0B0000
0A0000
0E0000
ENDCHAR
STARTCHAR ycircumflex
ENCODING 375
SWIDTH 600 0
DWIDTH 12 0
BBX 13 19 -1 -4
BITMAP
0002E000
001E7400
00241800
00000000
00000000
03400740
03800A00
02801C00
01C03800
00D0B000
00E1D000
00A28000
00770000
003D0000
003C0000
00740000
00E00000
02800000
BE000000
ENDCHAR
STARTCHAR Ydieresis
ENCODING 376
SWIDTH 600 0
DWIDTH 12 0
BBX 11 16 2 0
BITMAP
034740
034700
000000
B00074
7401D0
380380
2C0B00
1C1D00
0D3800
0AA000
07C000
034000
074000
0B0000
0A0000
0E0000
ENDCHAR
STARTCHAR Zacute
ENCODING 377
SWIDTH 600 0
DWIDTH 12 0
BBX 12 17 0 0
BITMAP
000060
0002E0
000600
000000
07FFFE
000038
0000B0
0002D0
000780
001E00
003C00
00B400
01D000
078000
0E0000
2C0000
7FFFE0
ENDCHAR
STARTCHAR zacute
ENCODING 378
SWIDTH 600 0
DWIDTH 12 0
BBX 11 16 0 0
BITMAP
000060
0001E0
000B40
000900
000000
000000
0BFFF8
0000E0
0003C0
000B00
002C00
00B400
02D000
0B4000
1D0000
7FFFD0
ENDCHAR
STARTCHAR Zdotaccent
ENCODING 379
SWIDTH 600 0
DWIDTH 12 0
BBX 12 16 0 0
BITMAP
000740
000740
000000
07FFFE
000038
0000B0
0002D0
000780
001E00
003C00
00B400
01D000
078000
0E0000
2C0000
7FFFE0
ENDCHAR
STARTCHAR zdotaccent
ENCODING 380
SWIDTH 600 0
DWIDTH 12 0
BBX 11 14 0 0
BITMAP
000B40
000B40
000000
000000
0BFFF8
0000E0
0003C0
000B00
002C00
00B400
02D000
0B4000
1D0000
7FFFD0
ENDCHAR
STARTCHAR Zcaron
ENCODING 381
SWIDTH 600 0
DWIDTH 12 0
BBX 12 17 0 0
BITMAP
002018
001DA0
000B80
000000
07FFFE
000038
0000B0
0002D0
000780
001E00
003C00
00B400
01D000
078000
0E0000
2C0000
7FFFE0
ENDCHAR
STARTCHAR zcaron
ENCODING 382
SWIDTH 600 0
DWIDTH 12 0
BBX 11 15 0 0
BITMAP
006024
0039E0
001F40
000000
000000
0BFFF8
0000E0
0003C0
000B00
002C00
00B400
02D000
0B4000
1D0000
7FFFD0
ENDCHAR
STARTCHAR longs
ENCODING 383
SWIDTH 600 0
DWIDTH 12 0
BBX 11 14 2 0
BITMAP
001BE4
00B410
01D000
02C000
BFC000
038000
074000
074000
0B0000
0B0000
0E0000
0D0000
1D0000
2C0000
ENDCHAR
STARTCHAR uni0180
ENCODING 384
SWIDTH 600 0
DWIDTH 12 0
BBX 11 14 0 0
BITMAP
02C000
028000
1FFFC0
034000
074000
0B2F90
0B90B4
0E0038
0D0038
1C0038
2C0074
2800E0
3E07C0
72FE00
ENDCHAR
STARTCHAR uni018A
ENCODING 394
SWIDTH 600 0
DWIDTH 12 0
BBX 12 13 0 0
BITMAP
01BF90
0B78B8
2C382D
34740E
70700E
74B00E
38E00E
14E01D
01D02C
01C038
02C0A0
038780
03F900
ENDCHAR
STARTCHAR uni018F
ENCODING 399
SWIDTH 600 0
DWIDTH 12 0
BBX 11 13 1 0
BITMAP
01BF40
0B41D0
0000B0
000070
000074
000074
BFFFF0
E000B0
E000E0
E002C0
B00780
781E00
1BE400
ENDCHAR
STARTCHAR uni0192
ENCODING 402
SWIDTH 600 0
DWIDTH 12 0
BBX 13 15 -1 -2
BITMAP
00002F80
0000A040
0001C000
00028000
00034000
00BFFC00
000A0000
000D0000
001C0000
00280000
00340000
00740000
00A00000
11D00000
7E400000
ENDCHAR
STARTCHAR uni0193
ENCODING 403
SWIDTH 600 0
DWIDTH 12 0
BBX 12 16 1 0
BITMAP
00001F
000034
000070
006FF0
02D0B4
0E0010
2C0000
380000
740000
B00000
B01FE0
B000E0
B000D0
7401C0
2D0680
06F900
ENDCHAR
STARTCHAR Ohorn
ENCODING 416
SWIDTH 600 0
DWIDTH 12 0
BBX 12 16 1 0
BITMAP
00000A
00000A
00000D
01BEA4
0B41D0
1D00B0
380074
B00074
E00074
E00074
D000B0
D000E0
E001D0
B00380
781E00
1BE400
ENDCHAR
STARTCHAR ohorn
ENCODING 417
SWIDTH 600 0
DWIDTH 12 0
BBX 11 13 1 0
BITMAP
000018
00001C
000024
02FE90
1E07C0
3801D0
B000E0
E000E0
E000D0
E002C0
B00780
781E00
1BE400
ENDCHAR
STARTCHAR Uhorn
ENCODING 431
SWIDTH 600 0
DWIDTH 12 0
BBX 14 16 1 0
BITMAP
000000C0
000000D0
000002C0
0D003E00
1D003400
2C007400
2C007000
3800B000
3400E000
7400D000
B001D000
B001C000
B0028000
70074000
381E0000
1BE40000
ENDCHAR
STARTCHAR uhorn
ENCODING 432
SWIDTH 600 0
DWIDTH 12 0
BBX 12 14 1 0
BITMAP
000002
000007
000007
00001E
2C00B8
2800E0
3800E0
7401D0
7001C0
B002C0
A00280
E00B80
B46740
2F8300
ENDCHAR
STARTCHAR uni01C2
ENCODING 450
SWIDTH 600 0
DWIDTH 12 0
BBX 10 18 1 -4
BITMAP
000D00
001C00
002C00
002800
003400
007400
3FFFD0
00A000
00E000
BFFF80
01C000
02C000
038000
034000
074000
070000
0B0000
0A0000
ENDCHAR
STARTCHAR uni01CD
ENCODING 461
SWIDTH 600 0
DWIDTH 12 0
BBX 12 17 -1 0
BITMAP
000906
00076D
0002F4
000000
0002E0
0007A0
000AA0
001C70
002870
007470
00E074
01D034
03FFF8
0B0038
0E0028
2C002C
74002C
ENDCHAR
STARTCHAR uni01CE
ENCODING 462
SWIDTH 600 0
DWIDTH 12 0
BBX 10 15 1 0
BITMAP
008060
0076C0
002E00
000000
000000
02FD70
0E46E0
2800E0
7400D0
B001D0
E001C0
E00280
B00380
741B40
1F9340
ENDCHAR
STARTCHAR uni01CF
ENCODING 463
SWIDTH 600 0
DWIDTH 12 0
BBX 11 17 1 0
BITMAP
009060
0076D0
002F40
000000
0BFFF4
002800
003800
003400
007400
00B000
00A000
00E000
00D000
01D000
01C000
02C000
FFFF00
ENDCHAR
STARTCHAR uni01D0
ENCODING 464
SWIDTH 600 0
DWIDTH 12 0
BBX 8 15 2 0
BITMAP
0902
075D
01F4
0000
0000
BFD0
01C0
02C0
0380
0340
0740
0B00
0B00
0744
02F9
ENDCHAR
STARTCHAR uni01D1
ENCODING 465
SWIDTH 600 0
DWIDTH 12 0
BBX 11 17 1 0
BITMAP
009060
0076D0
002F40
000000
01BE40
0B41D0
1D00B0
380074
B00074
E00074
E00074
D000B0
D000E0
E001D0
B00380
781E00
1BE400
ENDCHAR
STARTCHAR uni01D2
ENCODING 466
SWIDTH 600 0
DWIDTH 12 0
BBX 10 15 1 0
BITMAP
018090
00A680
003E00
000000
000000
02FD00
1E0780
3801D0
B000E0
E000E0
E000D0
E002C0
B00780
781E00
1BE400
ENDCHAR
STARTCHAR uni01D3
ENCODING 467
SWIDTH 600 0
DWIDTH 12 0
BBX 11 17 1 0
BITMAP
009060
0076D0
002F40
000000
0D0038
1D0034
2C0074
2C0070
3800B0
3400E0
7400D0
B001D0
B001C0
B00280
700740
381E00
1BE400
ENDCHAR
STARTCHAR uni01D4
ENCODING 468
SWIDTH 600 0
DWIDTH 12 0
BBX 10 15 1 0
BITMAP
018090
00A780
003E00
000000
000000
2C00B0
2800E0
3800D0
7401D0
7001C0
B002C0
A00280
E00B80
B46740
2F8300
ENDCHAR
STARTCHAR uni01D5
ENCODING 469
SWIDTH 600 0
DWIDTH 12 0
BBX 11 18 1 0
BITMAP
007FE0
000000
00A0D0
0090D0
000000
0D0038
1D0034
2C0074
2C0070
3800B0
3400E0
7400D0
B001D0
B001C0
B00280
700740
381E00
1BE400
ENDCHAR
STARTCHAR uni01D6
ENCODING 470
SWIDTH 600 0
DWIDTH 12 0
BBX 10 16 1 0
BITMAP
00BFD0
000000
01C180
01C280
000000
000000
2C00B0
2800E0
3800D0
7401D0
7001C0
B002C0
A00280
E00B80
B46740
2F8300
ENDCHAR
STARTCHAR uni01D7
ENCODING 471
SWIDTH 600 0
DWIDTH 12 0
BBX 11 19 1 0
BITMAP
000090
000280
000600
00A0D0
0090D0
000000
0D0038
1D0034
2C0074
2C0070
3800B0
3400E0
7400D0
B001D0
B001C0
B00280
700740
381E00
1BE400
ENDCHAR
STARTCHAR uni01D8
ENCODING 472
SWIDTH 600 0
DWIDTH 12 0
BBX 10 17 1 0
BITMAP
000180
000740
000900
01C180
01C280
000000
000000
2C00B0
2800E0
3800D0
7401D0
7001C0
B002C0
A00280
E00B80
B46740
2F8300
ENDCHAR
STARTCHAR uni01D9
ENCODING 473
SWIDTH 600 0
DWIDTH 12 0
BBX 11 19 1 0
BITMAP
0024A0
001F40
000000
00A0D0
0090D0
000000
0D0038
1D0034
2C0074
2C0070
3800B0
3400E0
7400D0
B001D0
B001C0
B00280
700740
381E00
1BE400
ENDCHAR
STARTCHAR uni01DA
ENCODING 474
SWIDTH 600 0
DWIDTH 12 0
BBX 10 17 1 0
BITMAP
006090
002F40
000000
01C180
01C280
000000
000000
2C00B0
2800E0
3800D0
7401D0
7001C0
B002C0
A00280
E00B80
B46740
2F8300
ENDCHAR
STARTCHAR uni01DB
ENCODING 475
SWIDTH 600 0
DWIDTH 12 0
BBX 11 19 1 0
BITMAP
001800
001C00
000600
00A0D0
0090D0
000000
0D0038
1D0034
2C0074
2C0070
3800B0
3400E0
7400D0
B001D0
B001C0
B00280
700740
381E00
1BE400
ENDCHAR
STARTCHAR uni01DC
ENCODING 476
SWIDTH 600 0
DWIDTH 12 0
BBX 10 17 1 0
BITMAP
002400
001800
000800
01C180
01C280
000000
000000
2C00B0
2800E0
3800D0
7401D0
7001C0
B002C0
A00280
E00B80
B46740
2F8300
ENDCHAR
STARTCHAR uni01E2
ENCODING 482
SWIDTH 600 0
DWIDTH 12 0
BBX 14 16 -1 0
BITMAP
0000BFE0
00000000
00000000
0002FFF0
0007A000
000AA000
001CD000
0034D000
00B1C000
01D2FF00
03828000
07FF4000
0D074000
28070000
740B0000
E00BFE00
ENDCHAR
STARTCHAR uni01E3
ENCODING 483
SWIDTH 600 0
DWIDTH 12 0
BBX 13 13 -1 0
BITMAP
001FFC00
00000000
00000000
06F86E00
090ED280
000B41C0
000A01C0
02FFAA80
1E4E5540
340D0000
701D0000
746A0500
2F82F900
ENDCHAR
STARTCHAR Gcaron
ENCODING 486
SWIDTH 600 0
DWIDTH 12 0
BBX 11 17 1 0
BITMAP
006024
0029E0
000F80
000000
006F90
02D0B4
0E0010
2C0000
380000
740000
B01FE0
B000E0
B000D0
B001C0
7401C0
2D0780
06F900
ENDCHAR
STARTCHAR gcaron
ENCODING 487
SWIDTH 600 0
DWIDTH 12 0
BBX 11 19 0 -4
BITMAP
002018
001DB0
000B80
000000
000000
00BF5C
0391B8
0A0038
1D0034
2C0070
3800B0
3800A0
2C01E0
1E5AD0
02A1C0
0002C0
000380
641A00
2FE400
ENDCHAR
STARTCHAR uni01EA
ENCODING 490
SWIDTH 600 0
DWIDTH 12 0
BBX 11 17 1 -4
BITMAP
01BE40
0B41D0
1D00B0
380074
B00074
E00074
E00074
D000B0
D000E0
E001D0
B00380
781E00
1BE400
064000
1C0000
280000
1F8000
ENDCHAR
STARTCHAR uni01EB
ENCODING 491
SWIDTH 600 0
DWIDTH 12 0
BBX 10 14 1 -4
BITMAP
02FE00
1E0780
3801D0
B000E0
E000E0
E000D0
E002C0
B00780
781E00
1BF400
064000
180000
280000
1F8000
ENDCHAR
STARTCHAR uni01F4
ENCODING 500
SWIDTH 600 0
DWIDTH 12 0
BBX 11 17 1 0
BITMAP
000060
0006D0
000A00
000000
006F90
02D0B4
0E0010
2C0000
380000
740000
B01FE0
B000E0
B000D0
B001C0
7401C0
2D0780
06F900
ENDCHAR
STARTCHAR uni01F5
ENCODING 501
SWIDTH 600 0
DWIDTH 12 0
BBX 11 20 0 -4
BITMAP
000020
0001F0
000780
000A00
000000
000000
00BF5C
0391B8
0A0038
1D0034
2C0070
3800B0
3800A0
2C01E0
1E5AD0
02A1C0
0002C0
000380
641A00
2FE400
ENDCHAR
STARTCHAR uni01F8
ENCODING 504
SWIDTH 600 0
DWIDTH 12 0
BBX 12 18 0 0
BITMAP
000800
001E00
000740
000180
000000
03C00E
07D00D
07A01D
0AA01C
0A7028
0D3438
1D2834
1C1C74
2C0D70
280AA0
3407A0
7403D0
7002C0
ENDCHAR
STARTCHAR uni01F9
ENCODING 505
SWIDTH 600 0
DWIDTH 12 0
BBX 11 16 0 0
BITMAP
000800
000E00
000740
000180
000000
000000
071BE0
0A6474
0B4038
0D0038
1D0074
1C0070
2C00B0
2800E0
3800E0
7401D0
ENDCHAR
STARTCHAR Aringacute
ENCODING 506
SWIDTH 600 0
DWIDTH 12 0
BBX 12 19 -1 0
BITMAP
00001D
0000B4
000218
000318
0002E4
000000
0002E0
0007A0
000AA0
001C70
002870
007070
00E074
01D034
03FFF8
0B0038
0E0028
2C002C
74002C
ENDCHAR
STARTCHAR aringacute
ENCODING 507
SWIDTH 600 0
DWIDTH 12 0
BBX 10 17 1 0
BITMAP
000180
000740
002F40
006180
006280
002E00
000000
02FD70
0E46E0
2800E0
7400D0
B001D0
E002C0
E00280
B00780
742B40
1F9340
ENDCHAR
STARTCHAR AEacute
ENCODING 508
SWIDTH 600 0
DWIDTH 12 0
BBX 14 17 -1 0
BITMAP
00000090
000007D0
00000900
00000000
0002FFF0
0007A000
000AA000
001CD000
0034D000
00B1C000
01D2FF00
03828000
07FF4000
0D074000
28070000
740B0000
E00BFE00
ENDCHAR
STARTCHAR aeacute
ENCODING 509
SWIDTH 600 0
DWIDTH 12 0
BBX 13 16 -1 0
BITMAP
00001800
00007800
0001E000
00024000
00000000
00000000
06F86E00
090ED280
000B41C0
000A01C0
02FFAA80
1E4E5540
340D0000
701D0000
746A0500
2F82F900
ENDCHAR
STARTCHAR Oslashacute
ENCODING 510
SWIDTH 600 0
DWIDTH 12 0
BBX 13 18 0 -1
BITMAP
00002400
0001E000
00064000
00000100
006F9740
02D0BD00
07407C00
0D00FD00
2C039D00
380A1D00
342C1D00
34B02C00
36D03800
3F407400
2D00E000
7E078000
E2F90000
40000000
ENDCHAR
STARTCHAR oslashacute
ENCODING 511
SWIDTH 600 0
DWIDTH 12 0
BBX 12 16 0 0
BITMAP
000060
0001E0
000780
000900
000000
000000
00BF9D
0781F4
0E01F4
2C0B74
382D38
34B434
3AC070
2F00E0
3E0780
A6F900
ENDCHAR
STARTCHAR uni0218
ENCODING 536
SWIDTH 600 0
DWIDTH 12 0
BBX 10 18 1 -5
BITMAP
01BE40
0742D0
0E0040
0D0000
0F0000
07D000
00BD00
001F00
000780
000380
900740
B41E00
1BE400
000000
038000
01D000
01C000
1E4000
ENDCHAR
STARTCHAR uni0219
ENCODING 537
SWIDTH 600 0
DWIDTH 12 0
BBX 9 15 1 -5
BITMAP
06FE00
0E06C0
1C0000
1E0000
07E400
007E00
000740
000340
B40B00
1BF900
000000
038000
01D000
01C000
1E4000
ENDCHAR
STARTCHAR uni021A
ENCODING 538
SWIDTH 600 0
DWIDTH 12 0
BBX 11 18 2 -5
BITMAP
FFFFF4
00A000
00E000
01D000
01D000
02C000
028000
038000
034000
074000
0B0000
0A0000
0E0000
000000
290000
0A0000
1E0000
A40000
ENDCHAR
STARTCHAR uni021B
ENCODING 539
SWIDTH 600 0
DWIDTH 12 0
BBX 10 18 1 -5
BITMAP
00A000
00D000
01D000
7FFFE0
028000
038000
074000
070000
0B0000
0A0000
0A0000
0B4100
02FE40
000000
00E000
007400
00B000
078000
ENDCHAR
STARTCHAR uni0237
ENCODING 567
SWIDTH 600 0
DWIDTH 12 0
BBX 9 14 0 -4
BITMAP
07FF80
000380
000740
000740
000B00
000A00
000E00
000D00
001D00
002C00
002800
007400
81E000
BF8000
ENDCHAR
STARTCHAR uni0243
ENCODING 579
SWIDTH 600 0
DWIDTH 12 0
BBX 11 13 0 0
BITMAP
02FF90
0280B4
03802C
07402C
070038
0B01A0
0BFF80
0E01E0
0D0074
FFF434
2C0070
2806D0
3FFA40
ENDCHAR
STARTCHAR uni0250
ENCODING 592
SWIDTH 600 0
DWIDTH 12 0
BBX 10 10 1 0
BITMAP
286F80
2A41D0
3800E0
3401D0
745B40
BFA400
B00000
B00000
741B00
1FE900
ENDCHAR
STARTCHAR uni0251
ENCODING 593
SWIDTH 600 0
DWIDTH 12 0
BBX 10 10 1 0
BITMAP
02FD70
0E46E0
2800E0
7400D0
B001D0
E001C0
E00280
B00380
741B40
1F9340
ENDCHAR
STARTCHAR uni0252
ENCODING 594
SWIDTH 600 0
DWIDTH 12 0
BBX 11 10 0 0
BITMAP
071F90
0B90B0
0A0038
0D0038
1D0038
1C0038
2C0074
2800E0
3E0780
71FD00
ENDCHAR
STARTCHAR uni0253
ENCODING 595
SWIDTH 600 0
DWIDTH 12 0
BBX 11 14 0 0
BITMAP
006F80
01D000
028000
034000
071F90
0B90B0
0A0038
0D0038
0D0038
1C0038
2C0074
2C00E0
3E0780
71FD00
ENDCHAR
STARTCHAR uni0254
ENCODING 596
SWIDTH 600 0
DWIDTH 12 0
BBX 11 10 0 0
BITMAP
02FE40
0A42D0
0000B0
000074
000074
000070
0000E0
0002D0
741B40
1BF800
ENDCHAR
STARTCHAR uni0255
ENCODING 597
SWIDTH 600 0
DWIDTH 12 0
BBX 10 12 1 -2
BITMAP
01BF40
0B41E0
2C0000
340000
700000
B00000
B06F40
779280
2E0740
3AF900
A00000
900000
ENDCHAR
STARTCHAR uni0256
ENCODING 598
SWIDTH 600 0
DWIDTH 12 0
BBX 11 18 1 -4
BITMAP
00002C
000038
000038
000074
02FD70
0E46F0
2800E0
7400E0
B001D0
E001C0
E002C0
B00380
741B80
1F9740
000B00
000B00
000B00
0007D0
ENDCHAR
STARTCHAR uni0257
ENCODING 599
SWIDTH 600 0
DWIDTH 12 0
BBX 13 14 1 0
BITMAP
00000B80
00002C00
00003400
00007400
02FD7000
0E46F000
2800E000
7400D000
B001D000
E001C000
E002C000
B0038000
741B4000
1F934000
ENDCHAR
STARTCHAR uni0258
ENCODING 600
SWIDTH 600 0
DWIDTH 12 0
BBX 10 10 1 0
BITMAP
02FE00
1E4780
3801D0
7000E0
7FFFE0
0001D0
0002C0
000780
641E00
2FE400
ENDCHAR
STARTCHAR uni0259
ENCODING 601
SWIDTH 600 0
DWIDTH 12 0
BBX 10 10 1 0
BITMAP
06FE00
1D06C0
0000D0
0000E0
BFFFE0
E001D0
E002C0
A00780
781E00
1BE400
ENDCHAR
STARTCHAR uni025A
ENCODING 602
SWIDTH 600 0
DWIDTH 12 0
BBX 13 10 0 0
BITMAP
0AF80000
191E0000
00076800
001BEC00
01BB4F40
6E470000
E00A0000
D01D0000
B4740000
2F900000
ENDCHAR
STARTCHAR uni025B
ENCODING 603
SWIDTH 600 0
DWIDTH 12 0
BBX 10 10 1 0
BITMAP
06FE40
1E01D0
2C0000
1D0000
0BF800
780000
A00000
E00000
780640
1BF900
ENDCHAR
STARTCHAR uni025C
ENCODING 604
SWIDTH 600 0
DWIDTH 12 0
BBX 9 10 1 0
BITMAP
06FE40
1906C0
0001C0
000780
03FD00
000B40
000380
000380
A41B40
2BF800
ENDCHAR
STARTCHAR uni025E
ENCODING 606
SWIDTH 600 0
DWIDTH 12 0
BBX 10 10 1 0
BITMAP
02BE40
1E42D0
3801D0
B00680
E0BE00
E00780
E002C0
B002C0
790B40
0BF900
ENDCHAR
STARTCHAR uni025F
ENCODING 607
SWIDTH 600 0
DWIDTH 12 0
BBX 11 14 0 -4
BITMAP
07FF80
000380
000340
000740
000700
07FFFC
000E00
000D00
001D00
001C00
002800
003400
81A000
BF8000
ENDCHAR
STARTCHAR uni0260
ENCODING 608
SWIDTH 600 0
DWIDTH 12 0
BBX 14 16 0 -4
BITMAP
000006D0
00000E00
00BE5C00
0391BC00
0B003800
1D003400
2C007400
38007000
3800A000
2C00E000
1E06D000
07F5D000
0001C000
00038000
641A0000
2FE40000
ENDCHAR
STARTCHAR uni0261
ENCODING 609
SWIDTH 600 0
DWIDTH 12 0
BBX 11 14 0 -4
BITMAP
00BF5C
0391B8
0A0038
1D0034
2C0070
3800B0
3800A0
2C01E0
1E5AD0
02A1C0
0002C0
000380
641A00
2FE400
ENDCHAR
STARTCHAR uni0262
ENCODING 610
SWIDTH 600 0
DWIDTH 12 0
BBX 10 10 1 0
BITMAP
01BF80
0B41E0
2C0000
740000
B00000
A02FC0
B001C0
740280
2D0780
07F900
ENDCHAR
STARTCHAR uni0263
ENCODING 611
SWIDTH 600 0
DWIDTH 12 0
BBX 10 14 2 -4
BITMAP
D001D0
E00380
B00B00
701D00
342800
287000
2CD000
1E8000
0F4000
2B4000
768000
A28000
A34000
7E0000
ENDCHAR
STARTCHAR uni0264
ENCODING 612
SWIDTH 600 0
DWIDTH 12 0
BBX 9 10 2 0
BITMAP
B91BC0
0BB800
03E000
0BF000
2C7400
702800
E02800
D03800
E0B000
6F8000
ENDCHAR
STARTCHAR uni0265
ENCODING 613
SWIDTH 600 0
DWIDTH 12 0
BBX 10 14 1 -4
BITMAP
2C00B0
2800A0
3800E0
7401D0
7001C0
B002C0
A00280
E00B80
B46740
2F8700
000B00
000A00
000E00
001D00
ENDCHAR
STARTCHAR uni0266
ENCODING 614
SWIDTH 600 0
DWIDTH 12 0
BBX 11 14 0 0
BITMAP
006F80
01E000
028000
034000
071BE0
0B6474
0B4038
0D0034
0D0074
1C0070
2C00B0
2800E0
3800E0
7401D0
ENDCHAR
STARTCHAR uni0267
ENCODING 615
SWIDTH 600 0
DWIDTH 12 0
BBX 11 18 0 -4
BITMAP
006F80
01E000
028000
034000
071BE0
0B6474
0B4038
0D0034
0D0074
1C0070
2C00B0
2800A0
3800E0
7400D0
0001C0
0002C0
000380
003E00
ENDCHAR
STARTCHAR uni0268
ENCODING 616
SWIDTH 600 0
DWIDTH 12 0
BBX 9 14 1 0
BITMAP
003C00
003800
000000
000000
2FF400
007000
00B000
00E000
7FFF80
01C000
02C000
02C000
01D100
00BE40
ENDCHAR
STARTCHAR uni026A
ENCODING 618
SWIDTH 600 0
DWIDTH 12 0
BBX 10 10 1 0
BITMAP
1FFFE0
007000
00B000
00A000
00E000
00D000
01D000
02C000
02C000
FFFF00
ENDCHAR
STARTCHAR uni026B
ENCODING 619
SWIDTH 600 0
DWIDTH 12 0
BBX 8 14 2 0
BITMAP
3FE0
00D0
01D0
01C0
02C0
1785
AB8D
C7F8
0B00
0A00
0E00
0D00
0E04
06F8
ENDCHAR
STARTCHAR uni026C
ENCODING 620
SWIDTH 600 0
DWIDTH 12 0
BBX 8 14 1 0
BITMAP
0FF8
0034
0074
0070
00B0
2EA0
71D0
2FFF
02C0
0280
0380
0340
0381
01BE
ENDCHAR
STARTCHAR uni026D
ENCODING 621
SWIDTH 600 0
DWIDTH 12 0
BBX 6 18 3 -4
BITMAP
FF80
0380
0740
0700
0B00
0E00
0D00
1D00
1C00
2C00
3800
3400
7400
B000
B000
A000
B440
2F90
ENDCHAR
STARTCHAR uni026E
ENCODING 622
SWIDTH 600 0
DWIDTH 12 0
BBX 12 18 0 -4
BITMAP
028000
034000
074000
070000
0BFFFD
0E0038
0D00A0
1D02C0
1C0B00
282D00
387F90
3401F0
740074
700070
0000B0
0000D0
0E0780
06F900
ENDCHAR
STARTCHAR uni026F
ENCODING 623
SWIDTH 600 0
DWIDTH 12 0
BBX 12 10 0 0
BITMAP
1D0D0D
2C1C1D
282C1C
38282C
343828
743438
B07034
B0B070
B1B1B0
7D7D60
ENDCHAR
STARTCHAR uni0270
ENCODING 624
SWIDTH 600 0
DWIDTH 12 0
BBX 12 14 0 -4
BITMAP
1D1D0D
2C1C1D
282C1C
38282C
343828
743434
B07074
B0B070
B1B1F0
7D7DA0
0000D0
0000D0
0001C0
0002C0
ENDCHAR
STARTCHAR uni0271
ENCODING 625
SWIDTH 600 0
DWIDTH 12 0
BBX 12 14 0 -4
BITMAP
0CB8B8
1E1E5D
2C1D1D
282C1C
38282C
343828
743438
B07074
A0B070
E0A0B0
0000A0
0000E0
0001C0
000F40
ENDCHAR
STARTCHAR uni0272
ENCODING 626
SWIDTH 600 0
DWIDTH 12 0
BBX 13 14 -2 -4
BITMAP
0071BE00
00A64740
00B40380
00D00380
01D00740
01C00700
02C00B00
02800E00
03800E00
03401D00
07000000
07000000
0E000000
B8000000
ENDCHAR
STARTCHAR uni0273
ENCODING 627
SWIDTH 600 0
DWIDTH 12 0
BBX 11 14 0 -4
BITMAP
061BE0
0A6474
0B4038
0D0038
1D0074
1C0074
2C00B0
2800A0
3800E0
7401D0
0001D0
0002C0
0002C0
0001F4
ENDCHAR
STARTCHAR uni0274
ENCODING 628
SWIDTH 600 0
DWIDTH 12 0
BBX 10 10 1 0
BITMAP
1E00D0
1F01D0
2F42C0
2AC280
39D380
34A340
747740
B03B00
A02F00
E00E00
ENDCHAR
STARTCHAR uni0275
ENCODING 629
SWIDTH 600 0
DWIDTH 12 0
BBX 10 10 1 0
BITMAP
02FD00
1E4780
3401D0
B000E0
FFFFE0
D001D0
E002C0
B00780
781E00
1BE400
ENDCHAR
STARTCHAR uni0276
ENCODING 630
SWIDTH 600 0
DWIDTH 12 0
BBX 13 10 0 0
BITMAP
02FFFF40
0E475500
380B0000
740A0000
A00FF800
E00D0000
E01C0000
A01C0000
78280000
1BFFFC00
ENDCHAR
STARTCHAR uni0278
ENCODING 632
SWIDTH 600 0
DWIDTH 12 0
BBX 11 18 0 -4
BITMAP
000340
000740
000B00
000A00
01BF80
0B5DB0
2D2C38
382C2C
70381C
B0382C
B07438
7470B4
2DB2D0
07FE00
00D000
01D000
02C000
028000
ENDCHAR
STARTCHAR uni0279
ENCODING 633
SWIDTH 600 0
DWIDTH 12 0
BBX 9 10 1 0
BITMAP
000280
000380
000340
000700
000700
000A00
001E00
006D00
419D00
FD1C00
ENDCHAR
STARTCHAR uni027A
ENCODING 634
SWIDTH 600 0
DWIDTH 12 0
BBX 10 14 1 0
BITMAP
0000A0
0000E0
0000D0
0001C0
0002C0
000280
000380
000740
000700
000B00
000E00
002D00
419D00
FD1C00
ENDCHAR
STARTCHAR uni027B
ENCODING 635
SWIDTH 600 0
DWIDTH 12 0
BBX 8 14 1 -4
BITMAP
001D
001C
002C
0028
0038
0034
0074
00B0
42B0
F9A0
00D0
00D0
00D0
00BD
ENDCHAR
STARTCHAR uni027D
ENCODING 637
SWIDTH 600 0
DWIDTH 12 0
BBX 9 14 2 -4
BITMAP
1C2F80
1C9040
2A0000
2C0000
340000
740000
700000
B00000
A00000
E00000
D00000
E00000
F05000
6F9000
ENDCHAR
STARTCHAR uni027E
ENCODING 638
SWIDTH 600 0
DWIDTH 12 0
BBX 9 10 2 0
BITMAP
01BF80
0B4040
1D0000
280000
380000
340000
700000
B00000
A00000
E00000
ENDCHAR
STARTCHAR uni0280
ENCODING 640
SWIDTH 600 0
DWIDTH 12 0
BBX 10 10 1 0
BITMAP
0BFE40
0E02C0
0D01D0
1D02C0
2C0740
2FFD00
382800
341C00
740E00
700B00
ENDCHAR
STARTCHAR uni0281
ENCODING 641
SWIDTH 600 0
DWIDTH 12 0
BBX 9 10 1 0
BITMAP
1D01C0
0E02C0
0B0380
034380
0BFF40
390700
700B00
B00A00
740E00
2FFD00
ENDCHAR
STARTCHAR uni0282
ENCODING 642
SWIDTH 600 0
DWIDTH 12 0
BBX 10 14 0 -4
BITMAP
01BF80
0381B0
070000
078000
01F900
001F80
0001D0
0000D0
3D02C0
36FE40
700000
700000
700000
2E0000
ENDCHAR
STARTCHAR uni0283
ENCODING 643
SWIDTH 600 0
DWIDTH 12 0
BBX 13 18 0 -4
BITMAP
0000BE40
00038100
00070000
000B0000
000E0000
000D0000
001D0000
001C0000
00280000
00380000
00340000
00740000
00700000
00A00000
00E00000
00D00000
42C00000
BE000000
ENDCHAR
STARTCHAR uni0284
ENCODING 644
SWIDTH 600 0
DWIDTH 12 0
BBX 13 18 0 -4
BITMAP
0001BE40
00038100
00070000
000A0000
000E0000
000D0000
001D0000
002C0000
1FFFF400
00380000
00740000
00700000
00B00000
00A00000
00E00000
01D00000
42800000
BE000000
ENDCHAR
STARTCHAR uni0287
ENCODING 647
SWIDTH 600 0
DWIDTH 12 0
BBX 9 13 1 -3
BITMAP
1BF400
142C00
001D00
001D00
001D00
002C00
002800
003800
003400
FFFFC0
00B000
00A000
00D000
ENDCHAR
STARTCHAR uni0288
ENCODING 648
SWIDTH 600 0
DWIDTH 12 0
BBX 10 17 1 -4
BITMAP
00A000
00D000
01D000
7FFFE0
028000
038000
074000
070000
0B0000
0A0000
0E0000
0D0000
1D0000
1C0000
1C0000
1E0500
07F900
ENDCHAR
STARTCHAR uni0289
ENCODING 649
SWIDTH 600 0
DWIDTH 12 0
BBX 12 10 0 0
BITMAP
034074
074070
0700B0
0B00A0
BFFFFD
0E00D0
1D01D0
1D02C0
1E1A80
0BE280
ENDCHAR
STARTCHAR uni028A
ENCODING 650
SWIDTH 600 0
DWIDTH 12 0
BBX 10 10 1 0
BITMAP
3F87F0
0A0340
1C0280
3401C0
7001C0
B002C0
A00380
B00700
782D00
1BE400
ENDCHAR
STARTCHAR uni028B
ENCODING 651
SWIDTH 600 0
DWIDTH 12 0
BBX 10 10 1 0
BITMAP
2C0F80
2801D0
3800E0
7400E0
7000D0
B001C0
A00380
B00B00
782D00
1BE400
ENDCHAR
STARTCHAR uni028C
ENCODING 652
SWIDTH 600 0
DWIDTH 12 0
BBX 10 10 0 0
BITMAP
001E00
003B00
00A740
01D340
028280
0702C0
0E01C0
2C01D0
7400E0
A000A0
ENDCHAR
STARTCHAR uni028D
ENCODING 653
SWIDTH 600 0
DWIDTH 12 0
BBX 12 10 -1 0
BITMAP
00F42D
01F47D
02B4AD
0774DE
0A35CE
0D364E
1C370E
283A0E
742D0E
B0140E
ENDCHAR
STARTCHAR uni028E
ENCODING 654
SWIDTH 600 0
DWIDTH 12 0
BBX 13 14 0 0
BITMAP
00002F40
0000E000
0002C000
00074000
000E0000
002E0000
00770000
00E30000
02C34000
07428000
0A01C000
1C01D000
3400D000
B000A000
ENDCHAR
STARTCHAR uni028F
ENCODING 655
SWIDTH 600 0
DWIDTH 12 0
BBX 9 10 2 0
BITMAP
B00280
740B00
381D00
1C3400
0DA000
0B8000
074000
0B0000
0B0000
0E0000
ENDCHAR
STARTCHAR uni0290
ENCODING 656
SWIDTH 600 0
DWIDTH 12 0
BBX 11 14 0 -4
BITMAP
0BFFF8
0000E0
0003C0
000B00
002C00
00B400
02D000
0B4000
1D0000
7FFFD0
0001D0
0002C0
0001D0
0000B8
ENDCHAR
STARTCHAR uni0291
ENCODING 657
SWIDTH 600 0
DWIDTH 12 0
BBX 12 12 0 -2
BITMAP
0BFFF4
0001E0
000380
000E00
002C00
00B000
02C0B8
0B424D
1D0A18
7FFFE0
002400
007000
ENDCHAR
STARTCHAR uni0292
ENCODING 658
SWIDTH 600 0
DWIDTH 12 0
BBX 11 14 0 -4
BITMAP
07FFF8
0001E0
000780
001E00
007800
01E000
03FE00
010780
0001D0
0001D0
0001C0
400380
E41E00
6FE400
ENDCHAR
STARTCHAR uni0294
ENCODING 660
SWIDTH 600 0
DWIDTH 12 0
BBX 8 14 3 0
BITMAP
2FE4
E42D
400B
000B
000E
002D
00B4
0BD0
1D00
2C00
3800
3800
7400
7000
ENDCHAR
STARTCHAR uni0295
ENCODING 661
SWIDTH 600 0
DWIDTH 12 0
BBX 9 14 3 0
BITMAP
0BF900
390B40
B00100
E00000
E00000
F00000
780000
2E0000
0B0000
0B0000
0A0000
0D0000
1D0000
1C0000
ENDCHAR
STARTCHAR uni0298
ENCODING 664
SWIDTH 600 0
DWIDTH 12 0
BBX 10 14 1 0
BITMAP
00BE40
0391D0
0A00A0
1C00B0
380070
740070
70B4B0
B0B0A0
A000E0
A001D0
B00280
700740
381D00
0BE400
ENDCHAR
STARTCHAR uni0299
ENCODING 665
SWIDTH 600 0
DWIDTH 12 0
BBX 9 10 1 0
BITMAP
0FFF40
0D02C0
1D01C0
1C0780
2FFE00
280780
380280
740380
700B00
BFF800
ENDCHAR
STARTCHAR uni029C
ENCODING 668
SWIDTH 600 0
DWIDTH 12 0
BBX 11 10 0 0
BITMAP
070028
0B0038
0E0034
0E0070
1D0070
1FFFE0
2C00E0
2800D0
3801C0
7402C0
ENDCHAR
STARTCHAR uni029D
ENCODING 669
SWIDTH 600 0
DWIDTH 12 0
BBX 10 19 0 -5
BITMAP
0002D0
0002D0
000000
000000
07FF80
000380
000740
000740
000B00
000A00
000E00
000D00
001D00
002C00
2FA800
A1B400
E1FC00
6F8D00
000900
ENDCHAR
STARTCHAR uni029E
ENCODING 670
SWIDTH 600 0
DWIDTH 12 0
BBX 11 14 0 -4
BITMAP
1D0038
0A0034
074070
0280B0
01D6E0
00BDE0
01E1D0
0781C0
1E02C0
B40280
000380
000740
000700
000B00
ENDCHAR
STARTCHAR uni029F
ENCODING 671
SWIDTH 600 0
DWIDTH 12 0
BBX 8 10 2 0
BITMAP
0D00
1D00
1C00
2C00
3800
3800
7400
7000
B000
BFFE
ENDCHAR
STARTCHAR uni02A1
ENCODING 673
SWIDTH 600 0
DWIDTH 12 0
BBX 10 14 1 0
BITMAP
02FE40
0E42D0
0400B0
0000B0
0000E0
0002D0
000B40
007800
7FFFC0
02C000
038000
038000
074000
070000
ENDCHAR
STARTCHAR uni02A2
ENCODING 674
SWIDTH 600 0
DWIDTH 12 0
BBX 10 14 2 0
BITMAP
02FE40
0E42D0
2C0040
380000
380000
380000
1D0000
074000
FFFF00
02C000
038000
034000
074000
070000
ENDCHAR
STARTCHAR uni02A4
ENCODING 676
SWIDTH 600 0
DWIDTH 12 0
BBX 14 18 -1 -4
BITMAP
0001D000
0001C000
00028000
00028000
02F7FFF0
0B4B01D0
1D0B0380
280A0A00
340E1C00
740D7400
741DBE00
741C0740
38780380
1F680380
00000340
00000B00
00181D00
000BE400
ENDCHAR
STARTCHAR uni02A6
ENCODING 678
SWIDTH 600 0
DWIDTH 12 0
BBX 10 13 1 0
BITMAP
060000
0A0000
0D0000
BFFFE0
2C2D20
382800
341D00
740B40
7001D0
B000E0
B000D0
7806C0
1BFA00
ENDCHAR
STARTCHAR uni02A7
ENCODING 679
SWIDTH 600 0
DWIDTH 12 0
BBX 12 18 2 -4
BITMAP
00007D
0901D0
0D0380
1C0380
FFFF40
380B00
340B00
740E00
B00E00
B01D00
E01C00
E02C00
E03800
7E3400
007400
007000
00E000
0F8000
ENDCHAR
STARTCHAR h.sups
ENCODING 688
SWIDTH 600 0
DWIDTH 12 0
BBX 7 10 4 7
BITMAP
1800
2800
2400
36E0
7834
6034
A070
9060
C0A0
8050
ENDCHAR
STARTCHAR j.sups
ENCODING 690
SWIDTH 600 0
DWIDTH 12 0
BBX 8 12 2 5
BITMAP
000D
0000
0000
07F8
0028
0034
0030
0070
0060
0090
11C0
6E40
ENDCHAR
STARTCHAR r.sups
ENCODING 691
SWIDTH 600 0
DWIDTH 12 0
BBX 6 7 5 7
BITMAP
36E0
7900
7000
A000
D000
C000
4000
ENDCHAR
STARTCHAR w.sups
ENCODING 695
SWIDTH 600 0
DWIDTH 12 0
BBX 9 6 3 8
BITMAP
D1C180
D28340
969600
989D00
A8A800
B07400
ENDCHAR
STARTCHAR y.sups
ENCODING 696
SWIDTH 600 0
DWIDTH 12 0
BBX 8 9 3 5
BITMAP
2809
1C1C
0C34
0960
0AC0
0780
0700
1D00
F400
ENDCHAR
STARTCHAR uni02B9
ENCODING 697
SWIDTH 600 0
DWIDTH 12 0
BBX 3 5 6 9
BITMAP
38
74
60
90
C0
ENDCHAR
STARTCHAR uni02BB
ENCODING 699
SWIDTH 600 0
DWIDTH 12 0
BBX 5 7 5 7
BITMAP
0240
1E00
3400
B000
BC00
BD00
7800
ENDCHAR
STARTCHAR uni02BC
ENCODING 700
SWIDTH 600 0
DWIDTH 12 0
BBX 5 7 4 7
BITMAP
0B40
1FC0
0FC0
0380
0700
2D00
6000
ENDCHAR
STARTCHAR uni02BE
ENCODING 702
SWIDTH 600 0
DWIDTH 12 0
BBX 4 6 5 11
BITMAP
39
0B
03
07
1D
A4
ENDCHAR
STARTCHAR uni02BF
ENCODING 703
SWIDTH 600 0
DWIDTH 12 0
BBX 5 6 5 10
BITMAP
0680
2D00
3400
7000
3800
1B00
ENDCHAR
STARTCHAR uni02C1
ENCODING 705
SWIDTH 600 0
DWIDTH 12 0
BBX 6 8 5 9
BITMAP
2F80
A0A0
C000
D000
A000
2800
1800
2400
ENDCHAR
STARTCHAR circumflex
ENCODING 710
SWIDTH 600 0
DWIDTH 12 0
BBX 6 3 4 12
BITMAP
0B80
29E0
9020
ENDCHAR
STARTCHAR caron
ENCODING 711
SWIDTH 600 0
DWIDTH 12 0
BBX 7 3 4 12
BITMAP
6024
29A0
0F80
ENDCHAR
STARTCHAR uni02C8
ENCODING 712
SWIDTH 600 0
DWIDTH 12 0
BBX 3 7 6 7
BITMAP
74
B4
B0
A0
D0
C0
40
ENDCHAR
STARTCHAR uni02C9
ENCODING 713
SWIDTH 600 0
DWIDTH 12 0
BBX 6 1 4 12
BITMAP
7FE0
ENDCHAR
STARTCHAR uni02CA
ENCODING 714
SWIDTH 600 0
DWIDTH 12 0
BBX 4 4 6 12
BITMAP
06
1E
78
90
ENDCHAR
STARTCHAR uni02CB
ENCODING 715
SWIDTH 600 0
DWIDTH 12 0
BBX 4 4 5 12
BITMAP
60
74
2D
09
ENDCHAR
STARTCHAR uni02CC
ENCODING 716
SWIDTH 600 0
DWIDTH 12 0
BBX 3 6 3 -5
BITMAP
28
34
74
70
B0
F0
ENDCHAR
STARTCHAR uni02D0
ENCODING 720
SWIDTH 600 0
DWIDTH 12 0
BBX 5 10 3 0
BITMAP
0FC0
0B40
0600
0000
0000
0000
0000
0800
2C00
BD00
ENDCHAR
STARTCHAR uni02D1
ENCODING 721
SWIDTH 600 0
DWIDTH 12 0
BBX 3 3 5 7
BITMAP
FC
B4
60
ENDCHAR
STARTCHAR breve
ENCODING 728
SWIDTH 600 0
DWIDTH 12 0
BBX 7 3 4 11
BITMAP
6028
7470
2F80
ENDCHAR
STARTCHAR dotaccent
ENCODING 729
SWIDTH 600 0
DWIDTH 12 0
BBX 3 2 6 12
BITMAP
B4
B4
ENDCHAR
STARTCHAR ring
ENCODING 730
SWIDTH 600 0
DWIDTH 12 0
BBX 5 4 5 11
BITMAP
2E00
A240
9240
7E00
ENDCHAR
STARTCHAR ogonek
ENCODING 731
SWIDTH 600 0
DWIDTH 12 0
BBX 4 4 2 -4
BITMAP
19
20
60
7E
ENDCHAR
STARTCHAR tilde
ENCODING 732
SWIDTH 600 0
DWIDTH 12 0
BBX 7 3 4 12
BITMAP
2808
AB28
C1E0
ENDCHAR
STARTCHAR hungarumlaut
ENCODING 733
SWIDTH 600 0
DWIDTH 12 0
BBX 7 4 5 11
BITMAP
0924
1C70
34D0
5140
ENDCHAR
STARTCHAR uni02DE
ENCODING 734
SWIDTH 600 0
DWIDTH 12 0
BBX 5 4 4 5
BITMAP
0400
6D00
9900
0780
ENDCHAR
STARTCHAR uni02E0
ENCODING 736
SWIDTH 600 0
DWIDTH 12 0
BBX 7 9 4 5
BITMAP
A018
6030
3090
2580
1A00
1D00
2600
6600
7D00
ENDCHAR
STARTCHAR l.sups
ENCODING 737
SWIDTH 600 0
DWIDTH 12 0
BBX 3 9 6 8
BITMAP
F8
24
34
30
60
A0
90
D0
BC
ENDCHAR
STARTCHAR s.sups
ENCODING 738
SWIDTH 600 0
DWIDTH 12 0
BBX 6 6 4 8
BITMAP
1F90
3450
2900
0680
91D0
6F40
ENDCHAR
STARTCHAR x.sups
ENCODING 739
SWIDTH 600 0
DWIDTH 12 0
BBX 7 7 3 7
BITMAP
0D1C
0674
03D0
07C0
0DD0
2460
5010
ENDCHAR
STARTCHAR uni02E4
ENCODING 740
SWIDTH 600 0
DWIDTH 12 0
BBX 6 10 5 7
BITMAP
2F80
A0A0
C000
D000
A000
2800
1800
2400
3400
2000
ENDCHAR
STARTCHAR uni0300
ENCODING 768
SWIDTH 600 0
DWIDTH 12 0
BBX 4 4 5 12
BITMAP
60
74
2D
09
ENDCHAR
STARTCHAR uni0301
ENCODING 769
SWIDTH 600 0
DWIDTH 12 0
BBX 4 4 6 12
BITMAP
06
1E
78
90
ENDCHAR
STARTCHAR uni0302
ENCODING 770
SWIDTH 600 0
DWIDTH 12 0
BBX 6 3 4 12
BITMAP
0B80
29E0
9020
ENDCHAR
STARTCHAR uni0303
ENCODING 771
SWIDTH 600 0
DWIDTH 12 0
BBX 7 3 4 12
BITMAP
2808
AB28
C1E0
ENDCHAR
STARTCHAR uni0304
ENCODING 772
SWIDTH 600 0
DWIDTH 12 0
BBX 6 1 4 12
BITMAP
7FE0
ENDCHAR
STARTCHAR uni0305
ENCODING 773
SWIDTH 600 0
DWIDTH 12 0
BBX 6 1 4 12
BITMAP
7FE0
ENDCHAR
STARTCHAR uni0306
ENCODING 774
SWIDTH 600 0
DWIDTH 12 0
BBX 7 3 4 11
BITMAP
6028
7470
2F80
ENDCHAR
STARTCHAR uni0307
ENCODING 775
SWIDTH 600 0
DWIDTH 12 0
BBX 3 2 6 12
BITMAP
B4
B4
ENDCHAR
STARTCHAR uni0308
ENCODING 776
SWIDTH 600 0
DWIDTH 12 0
BBX 6 2 4 12
BITMAP
74B0
74B0
ENDCHAR
STARTCHAR uni0309
ENCODING 777
SWIDTH 600 0
DWIDTH 12 0
BBX 3 4 6 11
BITMAP
B4
2C
28
A0
ENDCHAR
STARTCHAR uni030A
ENCODING 778
SWIDTH 600 0
DWIDTH 12 0
BBX 5 4 5 11
BITMAP
2E00
A240
9240
7E00
ENDCHAR
STARTCHAR uni030B
ENCODING 779
SWIDTH 600 0
DWIDTH 12 0
BBX 7 4 5 11
BITMAP
0924
1C70
34D0
5140
ENDCHAR
STARTCHAR uni030C
ENCODING 780
SWIDTH 600 0
DWIDTH 12 0
BBX 7 3 4 12
BITMAP
6024
29A0
0F80
ENDCHAR
STARTCHAR uni030F
ENCODING 783
SWIDTH 600 0
DWIDTH 12 0
BBX 6 4 3 11
BITMAP
6180
34D0
24A0
1860
ENDCHAR
STARTCHAR uni0310
ENCODING 784
SWIDTH 600 0
DWIDTH 12 0
BBX 7 5 4 11
BITMAP
0140
0780
A118
7474
2F90
ENDCHAR
STARTCHAR uni0311
ENCODING 785
SWIDTH 600 0
DWIDTH 12 0
BBX 6 3 4 11
BITMAP
1BD0
7470
9030
ENDCHAR
STARTCHAR uni0312
ENCODING 786
SWIDTH 600 0
DWIDTH 12 0
BBX 3 4 6 11
BITMAP
24
90
F0
A0
ENDCHAR
STARTCHAR uni0313
ENCODING 787
SWIDTH 600 0
DWIDTH 12 0
BBX 3 4 6 11
BITMAP
74
78
24
90
ENDCHAR
STARTCHAR uni0318
ENCODING 792
SWIDTH 600 0
DWIDTH 12 0
BBX 4 5 2 -6
BITMAP
01
03
7E
06
05
ENDCHAR
STARTCHAR uni0319
ENCODING 793
SWIDTH 600 0
DWIDTH 12 0
BBX 4 5 2 -6
BITMAP
10
60
BE
90
40
ENDCHAR
STARTCHAR uni031A
ENCODING 794
SWIDTH 600 0
DWIDTH 12 0
BBX 3 3 7 11
BITMAP
FC
08
18
ENDCHAR
STARTCHAR uni031B
ENCODING 795
SWIDTH 600 0
DWIDTH 12 0
BBX 4 4 6 9
BITMAP
06
07
1E
64
ENDCHAR
STARTCHAR uni031C
ENCODING 796
SWIDTH 600 0
DWIDTH 12 0
BBX 4 4 2 -5
BITMAP
1D
34
70
28
ENDCHAR
STARTCHAR uni031D
ENCODING 797
SWIDTH 600 0
DWIDTH 12 0
BBX 4 3 2 -4
BITMAP
0C
18
FF
ENDCHAR
STARTCHAR uni031E
ENCODING 798
SWIDTH 600 0
DWIDTH 12 0
BBX 5 3 2 -5
BITMAP
BF40
1800
2400
ENDCHAR
STARTCHAR uni031F
ENCODING 799
SWIDTH 600 0
DWIDTH 12 0
BBX 4 5 2 -6
BITMAP
04
0C
BF
24
10
ENDCHAR
STARTCHAR uni0320
ENCODING 800
SWIDTH 600 0
DWIDTH 12 0
BBX 4 1 2 -4
BITMAP
BF
ENDCHAR
STARTCHAR uni0323
ENCODING 803
SWIDTH 600 0
DWIDTH 12 0
BBX 3 2 3 -4
BITMAP
B4
F0
ENDCHAR
STARTCHAR uni0324
ENCODING 804
SWIDTH 600 0
DWIDTH 12 0
BBX 6 2 1 -4
BITMAP
70A0
70A0
ENDCHAR
STARTCHAR uni0325
ENCODING 805
SWIDTH 600 0
DWIDTH 12 0
BBX 5 4 2 -5
BITMAP
6E00
9340
D300
7D00
ENDCHAR
STARTCHAR uni0326
ENCODING 806
SWIDTH 600 0
DWIDTH 12 0
BBX 4 4 2 -5
BITMAP
29
0A
1E
A4
ENDCHAR
STARTCHAR uni0327
ENCODING 807
SWIDTH 600 0
DWIDTH 12 0
BBX 4 5 2 -5
BITMAP
08
2D
0A
1D
E4
ENDCHAR
STARTCHAR uni0328
ENCODING 808
SWIDTH 600 0
DWIDTH 12 0
BBX 4 4 2 -4
BITMAP
19
20
60
7E
ENDCHAR
STARTCHAR uni0329
ENCODING 809
SWIDTH 600 0
DWIDTH 12 0
BBX 2 4 3 -5
BITMAP
30
60
A0
90
ENDCHAR
STARTCHAR uni032A
ENCODING 810
SWIDTH 600 0
DWIDTH 12 0
BBX 6 3 1 -5
BITMAP
3FE0
6060
5090
ENDCHAR
STARTCHAR uni032C
ENCODING 812
SWIDTH 600 0
DWIDTH 12 0
BBX 7 3 1 -4
BITMAP
6024
39E0
1F40
ENDCHAR
STARTCHAR uni032E
ENCODING 814
SWIDTH 600 0
DWIDTH 12 0
BBX 7 3 1 -5
BITMAP
A024
74B0
2F80
ENDCHAR
STARTCHAR uni032F
ENCODING 815
SWIDTH 600 0
DWIDTH 12 0
BBX 6 3 1 -5
BITMAP
1F90
64A0
C030
ENDCHAR
STARTCHAR uni0330
ENCODING 816
SWIDTH 600 0
DWIDTH 12 0
BBX 7 3 1 -4
BITMAP
2808
AA28
C2E0
ENDCHAR
STARTCHAR uni0331
ENCODING 817
SWIDTH 600 0
DWIDTH 12 0
BBX 6 1 1 -4
BITMAP
7FE0
ENDCHAR
STARTCHAR uni0334
ENCODING 820
SWIDTH 600 0
DWIDTH 12 0
BBX 8 3 2 3
BITMAP
1405
AB4D
C1B8
ENDCHAR
STARTCHAR uni0339
ENCODING 825
SWIDTH 600 0
DWIDTH 12 0
BBX 4 4 2 -5
BITMAP
28
0A
09
78
ENDCHAR
STARTCHAR uni033A
ENCODING 826
SWIDTH 600 0
DWIDTH 12 0
BBX 6 3 1 -5
BITMAP
2020
6060
7FD0
ENDCHAR
STARTCHAR uni033B
ENCODING 827
SWIDTH 600 0
DWIDTH 12 0
BBX 6 4 1 -5
BITMAP
3FE0
2060
6050
7FD0
ENDCHAR
STARTCHAR uni033C
ENCODING 828
SWIDTH 600 0
DWIDTH 12 0
BBX 8 2 0 -4
BITMAP
1F7C
6289
ENDCHAR
STARTCHAR uni033D
ENCODING 829
SWIDTH 600 0
DWIDTH 12 0
BBX 4 3 5 11
BITMAP
26
2D
6A
ENDCHAR
STARTCHAR uni0342
ENCODING 834
SWIDTH 600 0
DWIDTH 12 0
BBX 7 3 4 12
BITMAP
2808
AB28
C1E0
ENDCHAR
STARTCHAR uni0345
ENCODING 837
SWIDTH 600 0
DWIDTH 12 0
BBX 3 3 3 -4
BITMAP
70
70
38
ENDCHAR
STARTCHAR uni035F
ENCODING 863
SWIDTH 600 0
DWIDTH 12 0
BBX 20 1 -6 -3
BITMAP
BFFFFFFFFF
ENDCHAR
STARTCHAR uni0361
ENCODING 865
SWIDTH 600 0
DWIDTH 12 0
BBX 18 3 -2 12
BITMAP
006BFFA400
1B94005B80
6400000060
ENDCHAR
STARTCHAR pi
ENCODING 960
SWIDTH 600 0
DWIDTH 12 0
BBX 11 10 1 0
BITMAP
7FFFF8
0E0280
0D0380
1C0340
1C0700
280B00
380A00
740E00
700E00
A00B80
ENDCHAR
STARTCHAR a.sups
ENCODING 7491
SWIDTH 600 0
DWIDTH 12 0
BBX 7 6 3 8
BITMAP
07EC
291C
7018
6024
7474
2F60
ENDCHAR
STARTCHAR b.sups
ENCODING 7495
SWIDTH 600 0
DWIDTH 12 0
BBX 8 9 3 8
BITMAP
0500
0900
0D00
1DF8
1D1D
280D
341C
3478
6BD0
ENDCHAR
STARTCHAR d.sups
ENCODING 7496
SWIDTH 600 0
DWIDTH 12 0
BBX 8 9 3 8
BITMAP
0006
000A
000D
0BEC
282C
7028
6024
7474
2F60
ENDCHAR
STARTCHAR e.sups
ENCODING 7497
SWIDTH 600 0
DWIDTH 12 0
BBX 6 6 4 8
BITMAP
1B90
7460
D030
FFF0
D080
6F80
ENDCHAR
STARTCHAR g.sups
ENCODING 7501
SWIDTH 600 0
DWIDTH 12 0
BBX 7 9 3 5
BITMAP
07EC
291C
7018
7028
7474
2FB0
0070
51E0
6F80
ENDCHAR
STARTCHAR k.sups
ENCODING 7503
SWIDTH 600 0
DWIDTH 12 0
BBX 7 10 4 7
BITMAP
1C00
1800
2800
2428
3490
7740
7A80
A0D0
90A0
4010
ENDCHAR
STARTCHAR m.sups
ENCODING 7504
SWIDTH 600 0
DWIDTH 12 0
BBX 10 7 2 7
BITMAP
36D7D0
38B4A0
706090
A090D0
90D0C0
D0C1C0
804140
ENDCHAR
STARTCHAR o.sups
ENCODING 7506
SWIDTH 600 0
DWIDTH 12 0
BBX 7 6 3 8
BITMAP
06E4
292C
301C
701C
3474
1F90
ENDCHAR
STARTCHAR p.sups
ENCODING 7510
SWIDTH 600 0
DWIDTH 12 0
BBX 8 9 3 5
BITMAP
0DF8
1D1D
280D
240D
3468
3BE0
6000
A000
5000
ENDCHAR
STARTCHAR t.sups
ENCODING 7511
SWIDTH 600 0
DWIDTH 12 0
BBX 7 9 4 8
BITMAP
0100
0600
0A00
7FF4
0D00
1C00
1800
2800
1F90
ENDCHAR
STARTCHAR u.sups
ENCODING 7512
SWIDTH 600 0
DWIDTH 12 0
BBX 7 6 4 8
BITMAP
6034
A070
9060
C0A0
D1D0
BD80
ENDCHAR
STARTCHAR v.sups
ENCODING 7515
SWIDTH 600 0
DWIDTH 12 0
BBX 7 6 4 8
BITMAP
A034
60A0
31C0
3340
2A00
2D00
ENDCHAR
STARTCHAR c.sups
ENCODING 7580
SWIDTH 600 0
DWIDTH 12 0
BBX 6 6 4 8
BITMAP
0BD0
3410
A000
D000
A080
2F80
ENDCHAR
STARTCHAR f.sups
ENCODING 7584
SWIDTH 600 0
DWIDTH 12 0
BBX 7 10 5 7
BITMAP
02F4
0A10
1C00
FFD0
2800
2400
3400
3000
6000
5000
ENDCHAR
STARTCHAR z.sups
ENCODING 7611
SWIDTH 600 0
DWIDTH 12 0
BBX 7 6 3 8
BITMAP
1FFC
0074
01D0
0600
1800
7FF4
ENDCHAR
STARTCHAR uni1E06
ENCODING 7686
SWIDTH 600 0
DWIDTH 12 0
BBX 10 17 1 -4
BITMAP
0BFE40
0E01E0
0D00B0
1D00A0
1C00D0
2D5780
3EBE00
380280
7401D0
7001D0
B002C0
E01B40
FFF900
000000
000000
000000
3FF000
ENDCHAR
STARTCHAR uni1E07
ENCODING 7687
SWIDTH 600 0
DWIDTH 12 0
BBX 11 18 0 -4
BITMAP
02C000
028000
038000
034000
071F90
0B90B0
0A0038
0D0038
0D0038
1C0038
2C0074
2C00E0
3E0780
71FD00
000000
000000
000000
0FFC00
ENDCHAR
STARTCHAR uni1E0C
ENCODING 7692
SWIDTH 600 0
DWIDTH 12 0
BBX 11 17 0 -4
BITMAP
03FE40
0741E0
070078
0B002C
0E002C
0D001C
1D002C
1C002C
2C0038
3800B0
3801D0
741B40
7FF800
000000
000000
03C000
078000
ENDCHAR
STARTCHAR uni1E0D
ENCODING 7693
SWIDTH 600 0
DWIDTH 12 0
BBX 11 18 1 -4
BITMAP
00002C
000038
000034
000074
02F970
0E46F0
2800E0
7400D0
B001D0
E001C0
E002C0
B00380
741B40
1F9340
000000
000000
0B4000
0B4000
ENDCHAR
STARTCHAR uni1E0E
ENCODING 7694
SWIDTH 600 0
DWIDTH 12 0
BBX 11 17 0 -4
BITMAP
03FE40
0741E0
070078
0B002C
0E002C
0D001C
1D002C
1C002C
2C0038
3800B0
3801D0
741B40
7FF800
000000
000000
000000
2FF800
ENDCHAR
STARTCHAR uni1E0F
ENCODING 7695
SWIDTH 600 0
DWIDTH 12 0
BBX 11 18 1 -4
BITMAP
00002C
000038
000034
000074
02F970
0E46F0
2800E0
7400D0
B001D0
E001C0
E002C0
B00380
741B40
1F9340
000000
000000
000000
3FF000
ENDCHAR
STARTCHAR uni1E10
ENCODING 7696
SWIDTH 600 0
DWIDTH 12 0
BBX 11 18 0 -5
BITMAP
03FE40
0741E0
070078
0B002C
0E002C
0D001C
1D002C
1C002C
2C0038
3800B0
3801D0
741B40
7FF800
018000
03C000
01D000
01C000
1E4000
ENDCHAR
STARTCHAR uni1E11
ENCODING 7697
SWIDTH 600 0
DWIDTH 12 0
BBX 11 19 1 -5
BITMAP
00002C
000038
000034
000074
02F970
0E46F0
2800E0
7400D0
B001D0
E001C0
E002C0
B00380
741B40
1F9340
020000
0B4000
028000
074000
390000
ENDCHAR
STARTCHAR uni1E16
ENCODING 7702
SWIDTH 600 0
DWIDTH 12 0
BBX 11 20 1 0
BITMAP
000020
0000E0
000240
000000
003FF0
000000
000000
07FFF8
070000
0B0000
0E0000
0E0000
1D0000
1FFF80
2C0000
380000
380000
740000
700000
BFFF80
ENDCHAR
STARTCHAR uni1E17
ENCODING 7703
SWIDTH 600 0
DWIDTH 12 0
BBX 10 17 1 0
BITMAP
000180
000340
000900
000000
00FFC0
000000
000000
01BE00
0B42C0
2C00D0
7400D0
BFFFD0
A00000
B00000
740000
3D0740
0BF900
ENDCHAR
STARTCHAR uni1E20
ENCODING 7712
SWIDTH 600 0
DWIDTH 12 0
BBX 11 16 1 0
BITMAP
007FE0
000000
000000
006F90
02D0B4
0E0010
2C0000
380000
740000
B01FE0
B000E0
B000D0
B001C0
7401C0
2D0780
06F900
ENDCHAR
STARTCHAR uni1E21
ENCODING 7713
SWIDTH 600 0
DWIDTH 12 0
BBX 11 17 0 -4
BITMAP
003FF0
000000
000000
00BF5C
0391B8
0A0038
1D0034
2C0070
3800B0
3800A0
2C01E0
1E5AD0
02A1C0
0002C0
000380
641A00
2FE400
ENDCHAR
STARTCHAR uni1E24
ENCODING 7716
SWIDTH 600 0
DWIDTH 12 0
BBX 12 17 0 -4
BITMAP
03400E
07400D
0B001D
0B001C
0E002C
0E0028
1FFFF4
2C0074
2C0070
3800B0
3400E0
7400D0
B001D0
000000
000000
02D000
03C000
ENDCHAR
STARTCHAR uni1E25
ENCODING 7717
SWIDTH 600 0
DWIDTH 12 0
BBX 11 18 0 -4
BITMAP
02C000
028000
038000
034000
071BE0
0B6474
0B4038
0D0038
0D0074
1C0070
2C00B0
2800E0
3800E0
7401D0
000000
000000
01E000
02D000
ENDCHAR
STARTCHAR uni1E26
ENCODING 7718
SWIDTH 600 0
DWIDTH 12 0
BBX 12 16 0 0
BITMAP
002834
002834
000000
03400E
07400D
0B001D
0B001C
0E002C
0E0028
1FFFF4
2C0074
2C0070
3800B0
3400E0
7400D0
B001D0
ENDCHAR
STARTCHAR uni1E27
ENCODING 7719
SWIDTH 600 0
DWIDTH 12 0
BBX 11 17 0 0
BITMAP
0A0D00
0A0D00
000000
02C000
028000
038000
034000
071BE0
0B6474
0B4038
0D0038
0D0074
1C0070
2C00B0
2800E0
3800E0
7401D0
ENDCHAR
STARTCHAR uni1E28
ENCODING 7720
SWIDTH 600 0
DWIDTH 12 0
BBX 14 18 -2 -5
BITMAP
003400E0
007400D0
00B001D0
00B001C0
00E002C0
00E00280
01FFFF40
02C00740
02C00700
03800B00
03400E00
07400D00
0B001D00
09000000
1E000000
07000000
0A000000
78000000
ENDCHAR
STARTCHAR uni1E29
ENCODING 7721
SWIDTH 600 0
DWIDTH 12 0
BBX 13 19 -2 -5
BITMAP
002C0000
00280000
00380000
00340000
0071BE00
00B64740
00B40380
00D00380
00D00740
01C00700
02C00B00
02800E00
03800E00
07401D00
06000000
0F000000
07400000
07000000
79000000
ENDCHAR
STARTCHAR uni1E2A
ENCODING 7722
SWIDTH 600 0
DWIDTH 12 0
BBX 12 18 0 -5
BITMAP
03400E
07400D
0B001D
0B001C
0E002C
0E0028
1FFFF4
2C0074
2C0070
3800B0
3400E0
7400D0
B001D0
000000
000000
280900
1D2C00
0BE000
ENDCHAR
STARTCHAR uni1E2B
ENCODING 7723
SWIDTH 600 0
DWIDTH 12 0
BBX 11 19 0 -5
BITMAP
02C000
028000
038000
034000
071BE0
0B6474
0B4038
0D0038
0D0074
1C0070
2C00B0
2800E0
3800E0
7401D0
000000
000000
1C0700
0D1D00
07E400
ENDCHAR
STARTCHAR uni1E32
ENCODING 7730
SWIDTH 600 0
DWIDTH 12 0
BBX 11 17 1 -4
BITMAP
0B0028
0E00E0
0D0380
1D0E00
1C3800
2DF000
3FB400
3E2C00
781D00
700E00
B00740
E00380
D002C0
000000
000000
02D000
02D000
ENDCHAR
STARTCHAR uni1E33
ENCODING 7731
SWIDTH 600 0
DWIDTH 12 0
BBX 11 18 1 -4
BITMAP
074000
070000
0B0000
0E0000
0D00B4
1D02D0
1C0F00
2C7C00
39F400
3FA800
7D1D00
B40B00
B00740
E002C0
000000
000000
02D000
03C000
ENDCHAR
STARTCHAR uni1E34
ENCODING 7732
SWIDTH 600 0
DWIDTH 12 0
BBX 11 17 1 -4
BITMAP
0B0028
0E00E0
0D0380
1D0E00
1C3800
2DF000
3FB400
3E2C00
781D00
700E00
B00740
E00380
D002C0
000000
000000
000000
1FF800
ENDCHAR
STARTCHAR uni1E35
ENCODING 7733
SWIDTH 600 0
DWIDTH 12 0
BBX 11 18 1 -4
BITMAP
074000
070000
0B0000
0E0000
0D00B4
1D02D0
1C0F00
2C7C00
39F400
3FA800
7D1D00
B40B00
B00740
E002C0
000000
000000
000000
2FF800
ENDCHAR
STARTCHAR uni1E36
ENCODING 7734
SWIDTH 600 0
DWIDTH 12 0
BBX 9 17 2 -4
BITMAP
0B0000
0B0000
0E0000
0D0000
1D0000
2C0000
2C0000
380000
340000
740000
B00000
B00000
FFFF40
000000
000000
078000
0B4000
ENDCHAR
STARTCHAR uni1E37
ENCODING 7735
SWIDTH 600 0
DWIDTH 12 0
BBX 6 18 3 -4
BITMAP
FF80
0340
0740
0700
0B00
0E00
0D00
1D00
2C00
2800
3800
3400
3810
1BE0
0000
0000
0F00
1E00
ENDCHAR
STARTCHAR uni1E38
ENCODING 7736
SWIDTH 600 0
DWIDTH 12 0
BBX 9 20 2 -4
BITMAP
2FF400
000000
000000
0B0000
0B0000
0E0000
0D0000
1D0000
2C0000
2C0000
380000
340000
740000
B00000
B00000
FFFF40
000000
000000
078000
0B4000
ENDCHAR
STARTCHAR uni1E39
ENCODING 7737
SWIDTH 600 0
DWIDTH 12 0
BBX 7 21 3 -4
BITMAP
1FFC
0000
0000
FF80
0340
0740
0700
0B00
0E00
0D00
1D00
2C00
2800
3800
3400
3810
1BE0
0000
0000
0F00
1E00
ENDCHAR
STARTCHAR uni1E3A
ENCODING 7738
SWIDTH 600 0
DWIDTH 12 0
BBX 9 17 2 -4
BITMAP
0B0000
0B0000
0E0000
0D0000
1D0000
2C0000
2C0000
380000
340000
740000
B00000
B00000
FFFF40
000000
000000
000000
3FF000
ENDCHAR
STARTCHAR uni1E3B
ENCODING 7739
SWIDTH 600 0
DWIDTH 12 0
BBX 6 18 3 -4
BITMAP
FF80
0340
0740
0700
0B00
0E00
0D00
1D00
2C00
2800
3800
3400
3810
1BE0
0000
0000
0000
BFD0
ENDCHAR
STARTCHAR uni1E3E
ENCODING 7742
SWIDTH 600 0
DWIDTH 12 0
BBX 12 17 0 0
BITMAP
000024
0001E0
000640
000000
07C01E
07C03D
0AC06D
0AD0EC
0DD2AC
1DA368
1CAA34
2C6C34
287870
3410B0
7400A0
7000D0
A001D0
ENDCHAR
STARTCHAR uni1E3F
ENCODING 7743
SWIDTH 600 0
DWIDTH 12 0
BBX 12 16 0 0
BITMAP
000060
0001F0
000780
000900
000000
000000
0CB8B8
1E1E5D
2C1D1D
282C1C
38282C
343838
743434
B07074
A0B070
E0A0B0
ENDCHAR
STARTCHAR uni1E40
ENCODING 7744
SWIDTH 600 0
DWIDTH 12 0
BBX 12 16 0 0
BITMAP
000380
000380
000000
07C01E
07C03D
0AC06D
0AD0EC
0DD2AC
1DA368
1CAA34
2C6C34
287870
3410B0
7400A0
7000D0
A001D0
ENDCHAR
STARTCHAR uni1E41
ENCODING 7745
SWIDTH 600 0
DWIDTH 12 0
BBX 12 14 0 0
BITMAP
000780
000740
000000
000000
0CB8B8
1E1E5D
2C1D1D
282C1C
38282C
343838
743434
B07074
A0B070
E0A0B0
ENDCHAR
STARTCHAR uni1E42
ENCODING 7746
SWIDTH 600 0
DWIDTH 12 0
BBX 12 17 0 -4
BITMAP
07C01E
07C03D
0AC06D
0AD0EC
0DD2AC
1DA368
1CAA34
2C6C34
287870
3410B0
7400A0
7000D0
A001D0
000000
000000
02D000
03C000
ENDCHAR
STARTCHAR uni1E43
ENCODING 7747
SWIDTH 600 0
DWIDTH 12 0
BBX 12 14 0 -4
BITMAP
0CB8B8
1E1E5D
2C1D1D
282C1C
38282C
343838
743434
B07074
A0B070
E0A0B0
000000
000000
02D000
02D000
ENDCHAR
STARTCHAR uni1E44
ENCODING 7748
SWIDTH 600 0
DWIDTH 12 0
BBX 12 16 0 0
BITMAP
000380
000380
000000
03C00E
07D00D
07A01D
0AA01C
0A7028
0D3438
1D2834
1C1C74
2C0D70
280AA0
3407A0
7403D0
7002C0
ENDCHAR
STARTCHAR uni1E45
ENCODING 7749
SWIDTH 600 0
DWIDTH 12 0
BBX 11 14 0 0
BITMAP
000780
000780
000000
000000
071BE0
0A6474
0B4038
0D0038
1D0074
1C0070
2C00B0
2800E0
3800E0
7401D0
ENDCHAR
STARTCHAR uni1E46
ENCODING 7750
SWIDTH 600 0
DWIDTH 12 0
BBX 12 17 0 -4
BITMAP
03C00E
07D00D
07A01D
0AA01C
0A7028
0D3438
1D2834
1C1C74
2C0D70
280AA0
3407A0
7403D0
7002C0
000000
000000
02D000
02D000
ENDCHAR
STARTCHAR uni1E47
ENCODING 7751
SWIDTH 600 0
DWIDTH 12 0
BBX 11 14 0 -4
BITMAP
071BE0
0A6474
0B4038
0D0038
1D0074
1C0070
2C00B0
2800E0
3800E0
7401D0
000000
000000
01E000
02D000
ENDCHAR
STARTCHAR uni1E48
ENCODING 7752
SWIDTH 600 0
DWIDTH 12 0
BBX 12 17 0 -4
BITMAP
03C00E
07D00D
07A01D
0AA01C
0A7028
0D3438
1D2834
1C1C74
2C0D70
280AA0
3407A0
7403D0
7002C0
000000
000000
000000
0FFC00
ENDCHAR
STARTCHAR uni1E49
ENCODING 7753
SWIDTH 600 0
DWIDTH 12 0
BBX 11 14 0 -4
BITMAP
071BE0
0A6474
0B4038
0D0038
1D0074
1C0070
2C00B0
2800E0
3800E0
7401D0
000000
000000
000000
0FFC00
ENDCHAR
STARTCHAR uni1E52
ENCODING 7762
SWIDTH 600 0
DWIDTH 12 0
BBX 11 20 1 0
BITMAP
000090
000280
000600
000000
00BFD0
000000
000000
01BE40
0B41D0
1D00B0
380074
B00074
E00074
E00074
D000B0
D000E0
E001D0
B00380
781E00
1BE400
ENDCHAR
STARTCHAR uni1E53
ENCODING 7763
SWIDTH 600 0
DWIDTH 12 0
BBX 10 17 1 0
BITMAP
000180
000740
000900
000000
01FF80
000000
000000
02FD00
1E0780
3801D0
B000E0
E000E0
E000D0
E002C0
B00780
781E00
1BE400
ENDCHAR
STARTCHAR uni1E58
ENCODING 7768
SWIDTH 600 0
DWIDTH 12 0
BBX 11 16 0 0
BITMAP
000380
000380
000000
02FF90
034078
07402C
07002C
0B0038
0A01E0
0FFE40
1D1D00
1C0E00
2C0B00
280340
3802C0
7401D0
ENDCHAR
STARTCHAR uni1E59
ENCODING 7769
SWIDTH 600 0
DWIDTH 12 0
BBX 9 14 2 0
BITMAP
002D00
003C00
000000
000000
1C2F80
1C9040
2A0000
2C0000
340000
740000
700000
B00000
A00000
E00000
ENDCHAR
STARTCHAR uni1E5A
ENCODING 7770
SWIDTH 600 0
DWIDTH 12 0
BBX 11 17 0 -4
BITMAP
02FF90
034078
07402C
07002C
0B0038
0A01E0
0FFE40
1D1D00
1C0E00
2C0B00
280340
3802C0
7401D0
000000
000000
01E000
01E000
ENDCHAR
STARTCHAR uni1E5B
ENCODING 7771
SWIDTH 600 0
DWIDTH 12 0
BBX 10 14 1 -4
BITMAP
070BE0
072410
0A8000
0B0000
0D0000
1D0000
1C0000
2C0000
280000
380000
000000
000000
B40000
B40000
ENDCHAR
STARTCHAR uni1E5C
ENCODING 7772
SWIDTH 600 0
DWIDTH 12 0
BBX 11 20 0 -4
BITMAP
002FF4
000000
000000
02FF90
034078
07402C
07002C
0B0038
0A01E0
0FFE40
1D1D00
1C0E00
2C0B00
280340
3802C0
7401D0
000000
000000
01E000
01E000
ENDCHAR
STARTCHAR uni1E5D
ENCODING 7773
SWIDTH 600 0
DWIDTH 12 0
BBX 10 17 1 -4
BITMAP
00BFE0
000000
000000
070BE0
072410
0A8000
0B0000
0D0000
1D0000
1C0000
2C0000
280000
380000
000000
000000
B40000
B40000
ENDCHAR
STARTCHAR uni1E5E
ENCODING 7774
SWIDTH 600 0
DWIDTH 12 0
BBX 11 17 0 -4
BITMAP
02FF90
034078
07402C
07002C
0B0038
0A01E0
0FFE40
1D1D00
1C0E00
2C0B00
280340
3802C0
7401D0
000000
000000
000000
0FFD00
ENDCHAR
STARTCHAR uni1E5F
ENCODING 7775
SWIDTH 600 0
DWIDTH 12 0
BBX 12 14 -1 -4
BITMAP
0070BE
007241
00A800
00B000
00D000
01D000
01C000
02C000
028000
038000
000000
000000
000000
7FE000
ENDCHAR
STARTCHAR uni1E60
ENCODING 7776
SWIDTH 600 0
DWIDTH 12 0
BBX 10 16 1 0
BITMAP
001D00
001D00
000000
01BE40
0742D0
0E0040
0D0000
0F0000
07D000
00BD00
001F00
000780
000380
900740
B41E00
1BE400
ENDCHAR
STARTCHAR uni1E61
ENCODING 7777
SWIDTH 600 0
DWIDTH 12 0
BBX 9 14 1 0
BITMAP
002D00
002D00
000000
000000
06FE00
0E06C0
1C0000
1E0000
07E400
007E00
000740
000340
B40B00
1BF900
ENDCHAR
STARTCHAR uni1E62
ENCODING 7778
SWIDTH 600 0
DWIDTH 12 0
BBX 10 17 1 -4
BITMAP
01BE40
0742D0
0E0040
0D0000
0F0000
07D000
00BD00
001F00
000780
000380
900740
B41E00
1BE400
000000
000000
078000
078000
ENDCHAR
STARTCHAR uni1E63
ENCODING 7779
SWIDTH 600 0
DWIDTH 12 0
BBX 9 14 1 -4
BITMAP
06FE00
0E06C0
1C0000
1E0000
07E400
007E00
000740
000340
B40B00
1BF900
000000
000000
078000
078000
ENDCHAR
STARTCHAR uni1E6C
ENCODING 7788
SWIDTH 600 0
DWIDTH 12 0
BBX 11 17 2 -4
BITMAP
FFFFF4
00A000
00E000
01D000
01D000
02C000
028000
038000
034000
074000
0B0000
0A0000
0E0000
000000
000000
2D0000
3C0000
ENDCHAR
STARTCHAR uni1E6D
ENCODING 7789
SWIDTH 600 0
DWIDTH 12 0
BBX 10 17 1 -4
BITMAP
00A000
00D000
01D000
7FFFE0
028000
038000
074000
070000
0B0000
0A0000
0A0000
0B4100
02FE40
000000
000000
01E000
01E000
ENDCHAR
STARTCHAR uni1E6E
ENCODING 7790
SWIDTH 600 0
DWIDTH 12 0
BBX 12 17 1 -4
BITMAP
3FFFFD
002800
003800
007400
007400
00B000
00A000
00E000
00D000
01D000
02C000
028000
038000
000000
000000
000000
7FE000
ENDCHAR
STARTCHAR uni1E6F
ENCODING 7791
SWIDTH 600 0
DWIDTH 12 0
BBX 10 17 1 -4
BITMAP
00A000
00D000
01D000
7FFFE0
028000
038000
074000
070000
0B0000
0A0000
0A0000
0B4100
02FE40
000000
000000
000000
0FFD00
ENDCHAR
STARTCHAR uni1E7E
ENCODING 7806
SWIDTH 600 0
DWIDTH 12 0
BBX 11 17 2 -4
BITMAP
B00074
7400A0
7401D0
740380
340740
380E00
381C00
283800
287000
2CE000
1DC000
1F4000
1F0000
000000
000000
2D0000
3C0000
ENDCHAR
STARTCHAR uni1E7F
ENCODING 7807
SWIDTH 600 0
DWIDTH 12 0
BBX 10 14 2 -4
BITMAP
D001D0
E00280
A00740
700E00
742C00
343400
38A000
29D000
1E8000
1F0000
000000
000000
2D0000
2D0000
ENDCHAR
STARTCHAR Wgrave
ENCODING 7808
SWIDTH 600 0
DWIDTH 12 0
BBX 12 18 1 0
BITMAP
006000
007800
001D00
000900
000000
34000A
74000D
74001C
701028
707434
70F470
B1E8A0
A268D0
A719D0
AA19C0
AC1E80
F81F40
F41F00
ENDCHAR
STARTCHAR wgrave
ENCODING 7809
SWIDTH 600 0
DWIDTH 12 0
BBX 12 16 1 0
BITMAP
006000
00B400
002C00
000900
000000
000000
D0141D
D0B428
D0E434
D1A470
D368A0
D729D0
DA2A80
ED2B40
F82F00
F42E00
ENDCHAR
STARTCHAR Wacute
ENCODING 7810
SWIDTH 600 0
DWIDTH 12 0
BBX 12 17 1 0
BITMAP
000180
000780
001900
000000
34000A
74000D
74001C
701028
707434
70F470
B1E8A0
A268D0
A719D0
AA19C0
AC1E80
F81F40
F41F00
ENDCHAR
STARTCHAR wacute
ENCODING 7811
SWIDTH 600 0
DWIDTH 12 0
BBX 12 16 1 0
BITMAP
000140
000B80
002D00
002400
000000
000000
D0141D
D0B428
D0E434
D1A470
D368A0
D729D0
DA2A80
ED2B40
F82F00
F42E00
ENDCHAR
STARTCHAR Wdieresis
ENCODING 7812
SWIDTH 600 0
DWIDTH 12 0
BBX 12 16 1 0
BITMAP
00A0D0
00A0D0
000000
34000A
74000D
74001C
701028
707434
70F470
B1E8A0
A268D0
A719D0
AA19C0
AC1E80
F81F40
F41F00
ENDCHAR
STARTCHAR wdieresis
ENCODING 7813
SWIDTH 600 0
DWIDTH 12 0
BBX 12 14 1 0
BITMAP
01C280
01C280
000000
000000
D0141D
D0B428
D0E434
D1A470
D368A0
D729D0
DA2A80
ED2B40
F82F00
F42E00
ENDCHAR
STARTCHAR uni1E8E
ENCODING 7822
SWIDTH 600 0
DWIDTH 12 0
BBX 11 16 2 0
BITMAP
007400
007400
000000
B00074
7401D0
380380
2C0B00
1C1D00
0D3800
0AA000
07C000
034000
074000
0B0000
0A0000
0E0000
ENDCHAR
STARTCHAR uni1E8F
ENCODING 7823
SWIDTH 600 0
DWIDTH 12 0
BBX 13 18 -1 -4
BITMAP
0002D000
0002D000
00000000
00000000
03400740
03800A00
02801C00
01C03800
00D0B000
00E1D000
00A28000
00770000
003D0000
003C0000
00740000
00E00000
02800000
BE000000
ENDCHAR
STARTCHAR uni1E90
ENCODING 7824
SWIDTH 600 0
DWIDTH 12 0
BBX 12 17 0 0
BITMAP
000BC0
002DA0
006024
000000
07FFFE
000038
0000B0
0002D0
000780
001E00
003C00
00B400
01D000
078000
0E0000
2C0000
7FFFE0
ENDCHAR
STARTCHAR uni1E91
ENCODING 7825
SWIDTH 600 0
DWIDTH 12 0
BBX 11 15 0 0
BITMAP
000B80
0039D0
009060
000000
000000
0BFFF8
0000E0
0003C0
000B00
002C00
00B400
02D000
0B4000
1D0000
7FFFD0
ENDCHAR
STARTCHAR uni1E92
ENCODING 7826
SWIDTH 600 0
DWIDTH 12 0
BBX 12 17 0 -4
BITMAP
07FFFE
000038
0000B0
0002D0
000780
001E00
003C00
00B400
01D000
078000
0E0000
2C0000
7FFFE0
000000
000000
01E000
01E000
ENDCHAR
STARTCHAR uni1E93
ENCODING 7827
SWIDTH 600 0
DWIDTH 12 0
BBX 11 14 0 -4
BITMAP
0BFFF8
0000E0
0003C0
000B00
002C00
00B400
02D000
0B4000
1D0000
7FFFD0
000000
000000
01E000
01E000
ENDCHAR
STARTCHAR uni1E94
ENCODING 7828
SWIDTH 600 0
DWIDTH 12 0
BBX 12 17 0 -4
BITMAP
07FFFE
000038
0000B0
0002D0
000780
001E00
003C00
00B400
01D000
078000
0E0000
2C0000
7FFFE0
000000
000000
000000
0BFD00
ENDCHAR
STARTCHAR uni1E95
ENCODING 7829
SWIDTH 600 0
DWIDTH 12 0
BBX 11 14 0 -4
BITMAP
0BFFF8
0000E0
0003C0
000B00
002C00
00B400
02D000
0B4000
1D0000
7FFFD0
000000
000000
000000
0FFD00
ENDCHAR
STARTCHAR uni1E96
ENCODING 7830
SWIDTH 600 0
DWIDTH 12 0
BBX 11 18 0 -4
BITMAP
02C000
028000
038000
034000
071BE0
0B6474
0B4038
0D0038
0D0074
1C0070
2C00B0
2800E0
3800E0
7401D0
000000
000000
000000
0FFC00
ENDCHAR
STARTCHAR uni1E97
ENCODING 7831
SWIDTH 600 0
DWIDTH 12 0
BBX 10 17 1 0
BITMAP
034740
074700
000000
000000
00A000
00D000
01D000
7FFFE0
028000
038000
074000
070000
0B0000
0A0000
0A0000
0B4100
02FE40
ENDCHAR
STARTCHAR uni1E9E
ENCODING 7838
SWIDTH 600 0
DWIDTH 12 0
BBX 11 13 0 0
BITMAP
006FD0
01E074
03802C
0B0078
0E01E0
0D0780
1D0B40
1C01F0
2C0038
380028
340038
7490B0
B07F80
ENDCHAR
STARTCHAR uni1EA0
ENCODING 7840
SWIDTH 600 0
DWIDTH 12 0
BBX 11 17 -1 -4
BITMAP
0002E0
0007A0
000AA0
001C70
002870
007470
00E074
01D034
03FFF8
0B0038
0E0028
2C002C
74002C
000000
000000
007800
00B400
ENDCHAR
STARTCHAR uni1EA1
ENCODING 7841
SWIDTH 600 0
DWIDTH 12 0
BBX 10 14 1 -4
BITMAP
02FD70
0E46E0
2800E0
7400D0
B001D0
E001C0
E00280
B00380
741B40
1F9340
000000
000000
0B4000
0B4000
ENDCHAR
STARTCHAR uni1EA2
ENCODING 7842
SWIDTH 600 0
DWIDTH 12 0
BBX 11 18 -1 0
BITMAP
0001E0
000070
0000B0
000180
000000
0002E0
0007A0
000AA0
001C70
002870
007470
00E074
01D034
03FFF8
0B0038
0E0028
2C002C
74002C
ENDCHAR
STARTCHAR uni1EA3
ENCODING 7843
SWIDTH 600 0
DWIDTH 12 0
BBX 10 15 1 0
BITMAP
001E00
000740
000700
001900
000000
02FD70
0E46E0
2800E0
7400D0
B001D0
E001C0
E00280
B00380
741B40
1F9340
ENDCHAR
STARTCHAR uni1EA4
ENCODING 7844
SWIDTH 600 0
DWIDTH 12 0
BBX 14 18 -1 0
BITMAP
00000090
00000240
0001F400
000A1800
00000000
0002E000
0007A000
000AA000
001C7000
00287000
00747000
00E07400
01D03400
03FFF800
0B003800
0E002800
2C002C00
74002C00
ENDCHAR
STARTCHAR uni1EA5
ENCODING 7845
SWIDTH 600 0
DWIDTH 12 0
BBX 12 16 1 0
BITMAP
000009
000028
001E60
00B780
008080
000000
02FD70
0E46E0
2800E0
7400D0
B001D0
E001C0
E00280
B00380
741B40
1F9340
ENDCHAR
STARTCHAR uni1EA6
ENCODING 7846
SWIDTH 600 0
DWIDTH 12 0
BBX 11 18 -1 0
BITMAP
002400
001800
0001F4
000A18
000000
0002E0
0007A0
000AA0
001C70
002870
007470
00E074
01D034
03FFF8
0B0038
0E0028
2C002C
74002C
ENDCHAR
STARTCHAR uni1EA7
ENCODING 7847
SWIDTH 600 0
DWIDTH 12 0
BBX 10 16 1 0
BITMAP
090000
070000
025E00
00B780
008080
000000
02FD70
0E46E0
2800E0
7400D0
B001D0
E001C0
E00280
B00380
741B40
1F9340
ENDCHAR
STARTCHAR uni1EA8
ENCODING 7848
SWIDTH 600 0
DWIDTH 12 0
BBX 13 19 -1 0
BITMAP
00000380
000001C0
000001C0
0001F740
000A1800
00000000
0002E000
0007A000
000AA000
001C7000
00287000
00747000
00E07400
01D03400
03FFF800
0B003800
0E002800
2C002C00
74002C00
ENDCHAR
STARTCHAR uni1EA9
ENCODING 7849
SWIDTH 600 0
DWIDTH 12 0
BBX 11 17 1 0
BITMAP
000074
00001C
000028
001E24
007780
008080
000000
02FD70
0E46E0
2800E0
7400D0
B001D0
E001C0
E00280
B00380
741B40
1F9340
ENDCHAR
STARTCHAR uni1EAA
ENCODING 7850
SWIDTH 600 0
DWIDTH 12 0
BBX 12 19 -1 0
BITMAP
0003D2
00096E
000000
0001F4
000A18
000000
0002E0
0007A0
000AA0
001C70
002870
007470
00E074
01D034
03FFF8
0B0038
0E0028
2C002C
74002C
ENDCHAR
STARTCHAR uni1EAB
ENCODING 7851
SWIDTH 600 0
DWIDTH 12 0
BBX 10 16 1 0
BITMAP
002920
0097D0
002F40
009180
000000
000000
02FD70
0E46E0
2800E0
7400D0
B001D0
E001C0
E00280
B00380
741B40
1F9340
ENDCHAR
STARTCHAR uni1EAC
ENCODING 7852
SWIDTH 600 0
DWIDTH 12 0
BBX 12 21 -1 -4
BITMAP
0001F4
00076C
001809
000000
0002E0
0007A0
000AA0
001C70
002870
007470
00E074
01D034
03FFF8
0B0038
0E0028
2C002C
74002C
000000
000000
007800
00B400
ENDCHAR
STARTCHAR uni1EAD
ENCODING 7853
SWIDTH 600 0
DWIDTH 12 0
BBX 10 19 1 -4
BITMAP
001F00
00B680
018090
000000
000000
02FD70
0E46E0
2800E0
7400D0
B001D0
E001C0
E00280
B00380
741B40
1F9340
000000
000000
0B4000
0B4000
ENDCHAR
STARTCHAR uni1EAE
ENCODING 7854
SWIDTH 600 0
DWIDTH 12 0
BBX 12 19 -1 0
BITMAP
000008
000038
000C66
000A1D
0002E4
000000
0002E0
0007A0
000AA0
001C70
002870
007470
00E074
01D034
03FFF8
0B0038
0E0028
2C002C
74002C
ENDCHAR
STARTCHAR uni1EAF
ENCODING 7855
SWIDTH 600 0
DWIDTH 12 0
BBX 10 17 1 0
BITMAP
000180
000380
000900
01C070
00D1D0
007E40
000000
02FD70
0E46E0
2800E0
7400D0
B001D0
E001C0
E00280
B00380
741B40
1F9340
ENDCHAR
STARTCHAR uni1EB0
ENCODING 7856
SWIDTH 600 0
DWIDTH 12 0
BBX 12 19 -1 0
BITMAP
000180
0000D0
000C66
000A1D
0002E4
000000
0002E0
0007A0
000AA0
001C70
002870
007470
00E074
01D034
03FFF8
0B0038
0E0028
2C002C
74002C
ENDCHAR
STARTCHAR uni1EB1
ENCODING 7857
SWIDTH 600 0
DWIDTH 12 0
BBX 10 17 1 0
BITMAP
001800
001D00
000500
01C070
00D1D0
007E40
000000
02FD70
0E46E0
2800E0
7400D0
B001D0
E001C0
E00280
B00380
741B40
1F9340
ENDCHAR
STARTCHAR uni1EB2
ENCODING 7858
SWIDTH 600 0
DWIDTH 12 0
BBX 12 20 -1 0
BITMAP
0000A4
000028
000024
000CA6
000A1D
0002E4
000000
0002E0
0007A0
000AA0
001C70
002870
007470
00E074
01D034
03FFF8
0B0038
0E0028
2C002C
74002C
ENDCHAR
STARTCHAR uni1EB3
ENCODING 7859
SWIDTH 600 0
DWIDTH 12 0
BBX 10 17 1 0
BITMAP
000A00
000280
000340
01CA70
00D1D0
007E40
000000
02FD70
0E46E0
2800E0
7400D0
B001D0
E001C0
E00280
B00380
741B40
1F9340
ENDCHAR
STARTCHAR uni1EB4
ENCODING 7860
SWIDTH 600 0
DWIDTH 12 0
BBX 12 19 -1 0
BITMAP
0003D2
00096E
000000
00090A
0006F4
000000
0002E0
0007A0
000AA0
001C70
002870
007470
00E074
01D034
03FFF8
0B0038
0E0028
2C002C
74002C
ENDCHAR
STARTCHAR uni1EB5
ENCODING 7861
SWIDTH 600 0
DWIDTH 12 0
BBX 10 16 1 0
BITMAP
002920
0097D0
000000
00D090
007E40
000000
02FD70
0E46E0
2800E0
7400D0
B001D0
E001C0
E00280
B00380
741B40
1F9340
ENDCHAR
STARTCHAR uni1EB6
ENCODING 7862
SWIDTH 600 0
DWIDTH 12 0
BBX 12 21 -1 -4
BITMAP
000906
000A1D
0002E4
000000
0002E0
0007A0
000AA0
001C70
002870
007470
00E074
01D034
03FFF8
0B0038
0E0028
2C002C
74002C
000000
000000
007800
00B400
ENDCHAR
STARTCHAR uni1EB7
ENCODING 7863
SWIDTH 600 0
DWIDTH 12 0
BBX 10 18 1 -4
BITMAP
01C070
00D1D0
007E40
000000
02FD70
0E46E0
2800E0
7400D0
B001D0
E001C0
E00280
B00380
741B40
1F9340
000000
000000
0B4000
0B4000
ENDCHAR
STARTCHAR uni1EB8
ENCODING 7864
SWIDTH 600 0
DWIDTH 12 0
BBX 11 17 1 -4
BITMAP
07FFF8
070000
0B0000
0E0000
0E0000
1D0000
1FFF80
2C0000
380000
380000
740000
700000
BFFF80
000000
000000
02D000
03C000
ENDCHAR
STARTCHAR uni1EB9
ENCODING 7865
SWIDTH 600 0
DWIDTH 12 0
BBX 10 14 1 -4
BITMAP
01BE00
0B42C0
2C00D0
7400D0
BFFFD0
A00000
B00000
740000
3D0740
0BF900
000000
000000
078000
078000
ENDCHAR
STARTCHAR uni1EBA
ENCODING 7866
SWIDTH 600 0
DWIDTH 12 0
BBX 11 18 1 0
BITMAP
000A40
000280
000280
000A00
000000
07FFF8
070000
0B0000
0E0000
0E0000
1D0000
1FFF80
2C0000
380000
380000
740000
700000
BFFF80
ENDCHAR
STARTCHAR uni1EBB
ENCODING 7867
SWIDTH 600 0
DWIDTH 12 0
BBX 10 15 1 0
BITMAP
001D00
000700
000B00
001900
000000
01BE00
0B42C0
2C00D0
7400D0
BFFFD0
A00000
B00000
740000
3D0740
0BF900
ENDCHAR
STARTCHAR uni1EBC
ENCODING 7868
SWIDTH 600 0
DWIDTH 12 0
BBX 11 17 1 0
BITMAP
000400
007E5C
0092F4
000000
07FFF8
070000
0B0000
0E0000
0E0000
1D0000
1FFF80
2C0000
380000
380000
740000
700000
BFFF80
ENDCHAR
STARTCHAR uni1EBD
ENCODING 7869
SWIDTH 600 0
DWIDTH 12 0
BBX 10 15 1 0
BITMAP
006420
01ED70
0247D0
000000
000000
01BE00
0B42C0
2C00D0
7400D0
BFFFD0
A00000
B00000
740000
3D0740
0BF900
ENDCHAR
STARTCHAR uni1EBE
ENCODING 7870
SWIDTH 600 0
DWIDTH 12 0
BBX 12 18 1 0
BITMAP
000006
000018
000B80
002460
000000
07FFF8
070000
0B0000
0E0000
0E0000
1D0000
1FFF80
2C0000
380000
380000
740000
700000
BFFF80
ENDCHAR
STARTCHAR uni1EBF
ENCODING 7871
SWIDTH 600 0
DWIDTH 12 0
BBX 11 16 1 0
BITMAP
000008
000028
002E60
00B740
008180
000000
01BE00
0B42C0
2C00D0
7400D0
BFFFD0
A00000
B00000
740000
3D0740
0BF900
ENDCHAR
STARTCHAR uni1EC0
ENCODING 7872
SWIDTH 600 0
DWIDTH 12 0
BBX 11 18 1 0
BITMAP
018000
006000
000B80
002460
000000
07FFF8
070000
0B0000
0E0000
0E0000
1D0000
1FFF80
2C0000
380000
380000
740000
700000
BFFF80
ENDCHAR
STARTCHAR uni1EC1
ENCODING 7873
SWIDTH 600 0
DWIDTH 12 0
BBX 10 16 1 0
BITMAP
090000
0A0000
026E00
00B740
008180
000000
01BE00
0B42C0
2C00D0
7400D0
BFFFD0
A00000
B00000
740000
3D0740
0BF900
ENDCHAR
STARTCHAR uni1EC2
ENCODING 7874
SWIDTH 600 0
DWIDTH 12 0
BBX 12 19 1 0
BITMAP
00001D
00000A
00000A
000B98
002460
000000
07FFF8
070000
0B0000
0E0000
0E0000
1D0000
1FFF80
2C0000
380000
380000
740000
700000
BFFF80
ENDCHAR
STARTCHAR uni1EC3
ENCODING 7875
SWIDTH 600 0
DWIDTH 12 0
BBX 11 17 1 0
BITMAP
000074
00002C
000028
002E60
00B740
008180
000000
01BE00
0B42C0
2C00D0
7400D0
BFFFD0
A00000
B00000
740000
3D0740
0BF900
ENDCHAR
STARTCHAR uni1EC4
ENCODING 7876
SWIDTH 600 0
DWIDTH 12 0
BBX 11 19 1 0
BITMAP
001E58
0021F4
000000
000B80
0024A0
000000
07FFF8
070000
0B0000
0E0000
0E0000
1D0000
1FFF80
2C0000
380000
380000
740000
700000
BFFF80
ENDCHAR
STARTCHAR uni1EC5
ENCODING 7877
SWIDTH 600 0
DWIDTH 12 0
BBX 10 16 1 0
BITMAP
006950
0097C0
002E00
009180
000000
000000
01BE00
0B42C0
2C00D0
7400D0
BFFFD0
A00000
B00000
740000
3D0740
0BF900
ENDCHAR
STARTCHAR uni1EC6
ENCODING 7878
SWIDTH 600 0
DWIDTH 12 0
BBX 11 21 1 -4
BITMAP
000BC0
0029A0
006020
000000
07FFF8
070000
0B0000
0E0000
0E0000
1D0000
1FFF80
2C0000
380000
380000
740000
700000
BFFF80
000000
000000
02D000
03C000
ENDCHAR
STARTCHAR uni1EC7
ENCODING 7879
SWIDTH 600 0
DWIDTH 12 0
BBX 10 19 1 -4
BITMAP
002F00
00A680
028080
000000
000000
01BE00
0B42C0
2C00D0
7400D0
BFFFD0
A00000
B00000
740000
3D0740
0BF900
000000
000000
078000
078000
ENDCHAR
STARTCHAR uni1EC8
ENCODING 7880
SWIDTH 600 0
DWIDTH 12 0
BBX 11 18 1 0
BITMAP
001E00
000700
000B00
001800
000000
0BFFF4
002800
003800
003400
007400
00B000
00A000
00E000
00D000
01D000
01C000
02C000
FFFF00
ENDCHAR
STARTCHAR uni1EC9
ENCODING 7881
SWIDTH 600 0
DWIDTH 12 0
BBX 8 15 2 0
BITMAP
00E0
0038
0074
00D0
0000
BFD0
01C0
02C0
0380
0340
0740
0B00
0B00
0744
02F9
ENDCHAR
STARTCHAR uni1ECA
ENCODING 7882
SWIDTH 600 0
DWIDTH 12 0
BBX 11 17 1 -4
BITMAP
0BFFF4
002800
003800
003400
007400
00B000
00A000
00E000
00D000
01D000
01C000
02C000
FFFF00
000000
000000
0B4000
0F0000
ENDCHAR
STARTCHAR uni1ECB
ENCODING 7883
SWIDTH 600 0
DWIDTH 12 0
BBX 8 18 2 -4
BITMAP
00F0
00E0
0000
0000
BFD0
01C0
02C0
0380
0340
0740
0B00
0B00
0744
02F9
0000
0000
02D0
03C0
ENDCHAR
STARTCHAR uni1ECC
ENCODING 7884
SWIDTH 600 0
DWIDTH 12 0
BBX 11 17 1 -4
BITMAP
01BE40
0B41D0
1D00B0
380074
B00074
E00074
E00074
D000B0
D000E0
E001D0
B00380
781E00
1BE400
000000
000000
0B4000
0F0000
ENDCHAR
STARTCHAR uni1ECD
ENCODING 7885
SWIDTH 600 0
DWIDTH 12 0
BBX 10 14 1 -4
BITMAP
02FD00
1E0780
3801D0
B000E0
E000E0
E000D0
E002C0
B00780
781E00
1BE400
000000
000000
0B4000
0F0000
ENDCHAR
STARTCHAR uni1ECE
ENCODING 7886
SWIDTH 600 0
DWIDTH 12 0
BBX 11 18 1 0
BITMAP
001E00
000700
000B00
001800
000000
01BE40
0B41D0
1D00B0
380074
B00074
E00074
E00074
D000B0
D000E0
E001D0
B00380
781E00
1BE400
ENDCHAR
STARTCHAR uni1ECF
ENCODING 7887
SWIDTH 600 0
DWIDTH 12 0
BBX 10 15 1 0
BITMAP
002D00
000B00
000A00
002800
000000
02FD00
1E0780
3801D0
B000E0
E000E0
E000D0
E002C0
B00780
781E00
1BE400
ENDCHAR
STARTCHAR uni1ED0
ENCODING 7888
SWIDTH 600 0
DWIDTH 12 0
BBX 12 18 1 0
BITMAP
000009
000024
001F40
00A180
000000
01BE40
0B41D0
1D00B0
380074
B00074
E00074
E00074
D000B0
D000E0
E001D0
B00380
781E00
1BE400
ENDCHAR
STARTCHAR uni1ED1
ENCODING 7889
SWIDTH 600 0
DWIDTH 12 0
BBX 11 16 1 0
BITMAP
000008
000038
002E50
00A740
018180
000000
02FD00
1E0780
3801D0
B000E0
E000E0
E000D0
E002C0
B00780
781E00
1BE400
ENDCHAR
STARTCHAR uni1ED2
ENCODING 7890
SWIDTH 600 0
DWIDTH 12 0
BBX 11 18 1 0
BITMAP
024000
018000
001F40
00A180
000000
01BE40
0B41D0
1D00B0
380074
B00074
E00074
E00074
D000B0
D000E0
E001D0
B00380
781E00
1BE400
ENDCHAR
STARTCHAR uni1ED3
ENCODING 7891
SWIDTH 600 0
DWIDTH 12 0
BBX 10 16 1 0
BITMAP
080000
0A0000
022E00
00A740
018180
000000
02FD00
1E0780
3801D0
B000E0
E000E0
E000D0
E002C0
B00780
781E00
1BE400
ENDCHAR
STARTCHAR uni1ED4
ENCODING 7892
SWIDTH 600 0
DWIDTH 12 0
BBX 11 19 1 0
BITMAP
000038
00001C
00001C
001F74
00A180
000000
01BE40
0B41D0
1D00B0
380074
B00074
E00074
E00074
D000B0
D000E0
E001D0
B00380
781E00
1BE400
ENDCHAR
STARTCHAR uni1ED5
ENCODING 7893
SWIDTH 600 0
DWIDTH 12 0
BBX 11 17 1 0
BITMAP
0000A4
000028
000028
002E60
00A740
018180
000000
02FD00
1E0780
3801D0
B000E0
E000E0
E000D0
E002C0
B00780
781E00
1BE400
ENDCHAR
STARTCHAR uni1ED6
ENCODING 7894
SWIDTH 600 0
DWIDTH 12 0
BBX 11 19 1 0
BITMAP
003D20
0096E0
000000
001F40
00A180
000000
01BE40
0B41D0
1D00B0
380074
B00074
E00074
E00074
D000B0
D000E0
E001D0
B00380
781E00
1BE400
ENDCHAR
STARTCHAR uni1ED7
ENCODING 7895
SWIDTH 600 0
DWIDTH 12 0
BBX 10 16 1 0
BITMAP
006850
009B80
006E00
019280
000000
000000
02FD00
1E0780
3801D0
B000E0
E000E0
E000D0
E002C0
B00780
781E00
1BE400
ENDCHAR
STARTCHAR uni1ED8
ENCODING 7896
SWIDTH 600 0
DWIDTH 12 0
BBX 11 21 1 -4
BITMAP
001F40
0076C0
018090
000000
01BE40
0B41D0
1D00B0
380074
B00074
E00074
E00074
D000B0
D000E0
E001D0
B00380
781E00
1BE400
000000
000000
0B4000
0F0000
ENDCHAR
STARTCHAR uni1ED9
ENCODING 7897
SWIDTH 600 0
DWIDTH 12 0
BBX 10 19 1 -4
BITMAP
002E00
00A780
024080
000000
000000
02FD00
1E0780
3801D0
B000E0
E000E0
E000D0
E002C0
B00780
781E00
1BE400
000000
000000
0B4000
0F0000
ENDCHAR
STARTCHAR uni1EDA
ENCODING 7898
SWIDTH 600 0
DWIDTH 12 0
BBX 12 17 1 0
BITMAP
000090
00078A
00190A
00000D
01BEA4
0B41D0
1D00B0
380074
B00074
E00074
E00074
D000B0
D000E0
E001D0
B00380
781E00
1BE400
ENDCHAR
STARTCHAR uni1EDB
ENCODING 7899
SWIDTH 600 0
DWIDTH 12 0
BBX 11 16 1 0
BITMAP
000180
000780
001E00
002418
00001C
000024
02FE90
1E07C0
3801D0
B000E0
E000E0
E000D0
E002C0
B00780
781E00
1BE400
ENDCHAR
STARTCHAR uni1EDC
ENCODING 7900
SWIDTH 600 0
DWIDTH 12 0
BBX 12 18 1 0
BITMAP
002000
007800
001D0A
00060A
00000D
01BEA4
0B41D0
1D00B0
380074
B00074
E00074
E00074
D000B0
D000E0
E001D0
B00380
781E00
1BE400
ENDCHAR
STARTCHAR uni1EDD
ENCODING 7901
SWIDTH 600 0
DWIDTH 12 0
BBX 11 16 1 0
BITMAP
006000
007400
002D00
000918
00001C
000024
02FE90
1E07C0
3801D0
B000E0
E000E0
E000D0
E002C0
B00780
781E00
1BE400
ENDCHAR
STARTCHAR uni1EDE
ENCODING 7902
SWIDTH 600 0
DWIDTH 12 0
BBX 12 18 1 0
BITMAP
001E00
000700
000B0A
00180A
00000D
01BEA4
0B41D0
1D00B0
380074
B00074
E00074
E00074
D000B0
D000E0
E001D0
B00380
781E00
1BE400
ENDCHAR
STARTCHAR uni1EDF
ENCODING 7903
SWIDTH 600 0
DWIDTH 12 0
BBX 11 15 1 0
BITMAP
002D00
000B00
000A18
00281C
000024
02FE90
1E07C0
3801D0
B000E0
E000E0
E000D0
E002C0
B00780
781E00
1BE400
ENDCHAR
STARTCHAR uni1EE0
ENCODING 7904
SWIDTH 600 0
DWIDTH 12 0
BBX 12 16 1 0
BITMAP
02F8AA
060B8A
00000D
01BEA4
0B41D0
1D00B0
380074
B00074
E00074
E00074
D000B0
D000E0
E001D0
B00380
781E00
1BE400
ENDCHAR
STARTCHAR uni1EE1
ENCODING 7905
SWIDTH 600 0
DWIDTH 12 0
BBX 11 15 1 0
BITMAP
019050
07B5C0
091F58
00001C
000024
02FE90
1E07C0
3801D0
B000E0
E000E0
E000D0
E002C0
B00780
781E00
1BE400
ENDCHAR
STARTCHAR uni1EE2
ENCODING 7906
SWIDTH 600 0
DWIDTH 12 0
BBX 12 20 1 -4
BITMAP
00000A
00000A
00000D
01BEA4
0B41D0
1D00B0
380074
B00074
E00074
E00074
D000B0
D000E0
E001D0
B00380
781E00
1BE400
000000
000000
0B4000
0F0000
ENDCHAR
STARTCHAR uni1EE3
ENCODING 7907
SWIDTH 600 0
DWIDTH 12 0
BBX 11 17 1 -4
BITMAP
000018
00001C
000024
02FE90
1E07C0
3801D0
B000E0
E000E0
E000D0
E002C0
B00780
781E00
1BE400
000000
000000
0B4000
0F0000
ENDCHAR
STARTCHAR uni1EE4
ENCODING 7908
SWIDTH 600 0
DWIDTH 12 0
BBX 11 17 1 -4
BITMAP
0D0038
1D0034
2C0074
2C0070
3800B0
3400E0
7400D0
B001D0
B001C0
B00280
700740
381E00
1BE400
000000
000000
0B4000
0F0000
ENDCHAR
STARTCHAR uni1EE5
ENCODING 7909
SWIDTH 600 0
DWIDTH 12 0
BBX 10 14 1 -4
BITMAP
2C00B0
2800E0
3800D0
7401D0
7001C0
B002C0
A00280
E00B80
B46740
2F8300
000000
000000
0B4000
0B4000
ENDCHAR
STARTCHAR uni1EE6
ENCODING 7910
SWIDTH 600 0
DWIDTH 12 0
BBX 11 18 1 0
BITMAP
001E00
000700
000B00
001800
000000
0D0038
1D0034
2C0074
2C0070
3800B0
3400E0
7400D0
B001D0
B001C0
B00280
700740
381E00
1BE400
ENDCHAR
STARTCHAR uni1EE7
ENCODING 7911
SWIDTH 600 0
DWIDTH 12 0
BBX 10 15 1 0
BITMAP
002D00
000B00
000A00
002800
000000
2C00B0
2800E0
3800D0
7401D0
7001C0
B002C0
A00280
E00B80
B46740
2F8300
ENDCHAR
STARTCHAR uni1EE8
ENCODING 7912
SWIDTH 600 0
DWIDTH 12 0
BBX 14 17 1 0
BITMAP
00009000
000780C0
001900D0
000002C0
0D003E00
1D003400
2C007400
2C007000
3800B000
3400E000
7400D000
B001D000
B001C000
B0028000
70074000
381E0000
1BE40000
ENDCHAR
STARTCHAR uni1EE9
ENCODING 7913
SWIDTH 600 0
DWIDTH 12 0
BBX 12 16 1 0
BITMAP
000180
000780
002D02
002407
000007
00001E
2C00B8
2800E0
3800E0
7401D0
7001C0
B002C0
A00280
E00B80
B46740
2F8300
ENDCHAR
STARTCHAR uni1EEA
ENCODING 7914
SWIDTH 600 0
DWIDTH 12 0
BBX 14 18 1 0
BITMAP
00200000
00780000
001D00C0
000600D0
000002C0
0D003E00
1D003400
2C007400
2C007000
3800B000
3400E000
7400D000
B001D000
B001C000
B0028000
70074000
381E0000
1BE40000
ENDCHAR
STARTCHAR uni1EEB
ENCODING 7915
SWIDTH 600 0
DWIDTH 12 0
BBX 12 16 1 0
BITMAP
006000
007400
002D02
000907
000007
00001E
2C00B8
2800E0
3800E0
7401D0
7001C0
B002C0
A00280
E00B80
B46740
2F8300
ENDCHAR
STARTCHAR uni1EEC
ENCODING 7916
SWIDTH 600 0
DWIDTH 12 0
BBX 14 18 1 0
BITMAP
001E0000
00070000
000B00C0
001800D0
000002C0
0D003E00
1D003400
2C007400
2C007000
3800B000
3400E000
7400D000
B001D000
B001C000
B0028000
70074000
381E0000
1BE40000
ENDCHAR
STARTCHAR uni1EED
ENCODING 7917
SWIDTH 600 0
DWIDTH 12 0
BBX 12 15 1 0
BITMAP
002D00
000B02
000A07
002807
00001E
2C00B8
2800E0
3800E0
7401D0
7001C0
B002C0
A00280
E00B80
B46740
2F8300
ENDCHAR
STARTCHAR uni1EEE
ENCODING 7918
SWIDTH 600 0
DWIDTH 12 0
BBX 14 17 1 0
BITMAP
00100000
00FD34C0
0247E0D0
000002C0
0D003E00
1D003400
2C007400
2C007000
3800B000
3400E000
7400D000
B001D000
B001C000
B0028000
70074000
381E0000
1BE40000
ENDCHAR
STARTCHAR uni1EEF
ENCODING 7919
SWIDTH 600 0
DWIDTH 12 0
BBX 12 15 1 0
BITMAP
00A050
02A8A2
060B87
000007
00001E
2C00B8
2800E0
3800E0
7401D0
7001C0
B002C0
A00280
E00B80
B46740
2F8300
ENDCHAR
STARTCHAR uni1EF0
ENCODING 7920
SWIDTH 600 0
DWIDTH 12 0
BBX 14 20 1 -4
BITMAP
000000C0
000000D0
000002C0
0D003E00
1D003400
2C007400
2C007000
3800B000
3400E000
7400D000
B001D000
B001C000
B0028000
70074000
381E0000
1BE40000
00000000
00000000
0B400000
0F000000
ENDCHAR
STARTCHAR uni1EF1
ENCODING 7921
SWIDTH 600 0
DWIDTH 12 0
BBX 12 18 1 -4
BITMAP
000002
000007
000007
00001E
2C00B8
2800E0
3800E0
7401D0
7001C0
B002C0
A00280
E00B80
B46740
2F8300
000000
000000
0B4000
0B4000
ENDCHAR
STARTCHAR Ygrave
ENCODING 7922
SWIDTH 600 0
DWIDTH 12 0
BBX 11 18 2 0
BITMAP
018000
02D000
00B400
002400
000000
B00074
7401D0
380380
2C0B00
1C1D00
0D3800
0AA000
07C000
034000
074000
0B0000
0A0000
0E0000
ENDCHAR
STARTCHAR ygrave
ENCODING 7923
SWIDTH 600 0
DWIDTH 12 0
BBX 13 20 -1 -4
BITMAP
00060000
000B4000
0002C000
00009000
00000000
00000000
03400740
03800A00
02801C00
01C03800
00D0B000
00E1D000
00A28000
00770000
003D0000
003C0000
00740000
00E00000
02800000
BE000000
ENDCHAR
STARTCHAR uni1EF4
ENCODING 7924
SWIDTH 600 0
DWIDTH 12 0
BBX 11 17 2 -4
BITMAP
B00074
7401D0
380380
2C0B00
1C1D00
0D3800
0AA000
07C000
034000
074000
0B0000
0A0000
0E0000
000000
000000
2D0000
3C0000
ENDCHAR
STARTCHAR uni1EF5
ENCODING 7925
SWIDTH 600 0
DWIDTH 12 0
BBX 13 14 -1 -4
BITMAP
03400740
03800A00
02801C00
01C03800
00D0B000
00E1D000
00A28000
00770000
003D0000
003C0000
00740000
00E00000
0281E000
BE01E000
ENDCHAR
STARTCHAR uni1EF6
ENCODING 7926
SWIDTH 600 0
DWIDTH 12 0
BBX 11 18 2 0
BITMAP
00B400
002C00
002800
00A000
000000
B00074
7401D0
380380
2C0B00
1C1D00
0D3800
0AA000
07C000
034000
074000
0B0000
0A0000
0E0000
ENDCHAR
STARTCHAR uni1EF7
ENCODING 7927
SWIDTH 600 0
DWIDTH 12 0
BBX 13 19 -1 -4
BITMAP
00029000
0000A000
0000A000
00028000
00000000
03400740
03800A00
02801C00
01C03800
00D0B000
00E1D000
00A28000
00770000
003D0000
003C0000
00740000
00E00000
02800000
BE000000
ENDCHAR
STARTCHAR uni1EF8
ENCODING 7928
SWIDTH 600 0
DWIDTH 12 0
BBX 11 17 2 0
BITMAP
004000
07F5C0
091F40
000000
B00074
7401D0
380380
2C0B00
1C1D00
0D3800
0AA000
07C000
034000
074000
0B0000
0A0000
0E0000
ENDCHAR
STARTCHAR uni1EF9
ENCODING 7929
SWIDTH 600 0
DWIDTH 12 0
BBX 13 19 -1 -4
BITMAP
000A0500
002A8A00
0060B800
00000000
00000000
03400740
03800A00
02801C00
01C03800
00D0B000
00E1D000
00A28000
00770000
003D0000
003C0000
00740000
00E00000
02800000
BE000000
ENDCHAR
STARTCHAR uni2007
ENCODING 8199
SWIDTH 600 0
DWIDTH 12 0
BBX 1 1 0 0
BITMAP
00
ENDCHAR
STARTCHAR uni2010
ENCODING 8208
SWIDTH 600 0
DWIDTH 12 0
BBX 10 1 1 6
BITMAP
7FFFD0
ENDCHAR
STARTCHAR figuredash
ENCODING 8210
SWIDTH 600 0
DWIDTH 12 0
BBX 10 1 1 5
BITMAP
BFFFD0
ENDCHAR
STARTCHAR endash
ENCODING 8211
SWIDTH 600 0
DWIDTH 12 0
BBX 10 1 1 5
BITMAP
BFFFD0
ENDCHAR
STARTCHAR emdash
ENCODING 8212
SWIDTH 600 0
DWIDTH 12 0
BBX 13 1 -1 5
BITMAP
7FFFFF80
ENDCHAR
STARTCHAR uni2015
ENCODING 8213
SWIDTH 600 0
DWIDTH 12 0
BBX 13 1 -1 5
BITMAP
7FFFFF80
ENDCHAR
STARTCHAR uni2016
ENCODING 8214
SWIDTH 600 0
DWIDTH 12 0
BBX 6 20 3 -5
BITMAP
A0B0
A0B0
A0B0
A0B0
A0B0
A0B0
A0B0
A0B0
A0B0
A0B0
A0B0
A0B0
A0B0
A0B0
A0B0
A0B0
A0B0
A0B0
A0B0
A0B0
ENDCHAR
STARTCHAR underscoredbl
ENCODING 8215
SWIDTH 600 0
DWIDTH 12 0
BBX 11 3 -1 -5
BITMAP
7FFFF4
000000
FFFFE0
ENDCHAR
STARTCHAR quoteleft
ENCODING 8216
SWIDTH 600 0
DWIDTH 12 0
BBX 5 7 5 7
BITMAP
0240
1E00
3400
B000
BC00
BD00
7800
ENDCHAR
STARTCHAR quoteright
ENCODING 8217
SWIDTH 600 0
DWIDTH 12 0
BBX 5 7 4 7
BITMAP
0B40
1FC0
0FC0
0380
0700
2D00
6000
ENDCHAR
STARTCHAR quotesinglbase
ENCODING 8218
SWIDTH 600 0
DWIDTH 12 0
BBX 5 7 3 -4
BITMAP
0F00
2F40
1F40
0740
0A00
6800
9000
ENDCHAR
STARTCHAR quotereversed
ENCODING 8219
SWIDTH 600 0
DWIDTH 12 0
BBX 4 7 4 7
BITMAP
1E
3F
7E
70
34
1D
06
ENDCHAR
STARTCHAR quotedblleft
ENCODING 8220
SWIDTH 600 0
DWIDTH 12 0
BBX 9 7 3 7
BITMAP
064180
1D0A40
742800
E07400
F8BD00
FCBE00
B47C00
ENDCHAR
STARTCHAR quotedblright
ENCODING 8221
SWIDTH 600 0
DWIDTH 12 0
BBX 9 7 2 7
BITMAP
0B4780
1F8FC0
1F8BC0
0342C0
0A0740
6C1E00
A02400
ENDCHAR
STARTCHAR quotedblbase
ENCODING 8222
SWIDTH 600 0
DWIDTH 12 0
BBX 9 7 2 -4
BITMAP
0B4780
1F8FC0
1F8BC0
0342C0
0A0740
6C1E00
A02400
ENDCHAR
STARTCHAR dagger
ENCODING 8224
SWIDTH 600 0
DWIDTH 12 0
BBX 7 16 3 -2
BITMAP
01C0
01C0
0280
7FFC
0340
0300
0600
0A00
0900
0D00
1C00
1C00
2800
2400
3400
2000
ENDCHAR
STARTCHAR daggerdbl
ENCODING 8225
SWIDTH 600 0
DWIDTH 12 0
BBX 9 15 2 -1
BITMAP
003000
007000
006000
1FFF40
00D000
00C000
01C000
028000
024000
034000
030000
FFF800
0A0000
090000
0D0000
ENDCHAR
STARTCHAR bullet
ENCODING 8226
SWIDTH 600 0
DWIDTH 12 0
BBX 6 6 3 2
BITMAP
1F80
7FE0
FFE0
FFE0
FFC0
6E40
ENDCHAR
STARTCHAR ellipsis
ENCODING 8230
SWIDTH 600 0
DWIDTH 12 0
BBX 12 3 -1 0
BITMAP
2D2D2C
7D7D7D
383838
ENDCHAR
STARTCHAR uni202F
ENCODING 8239
SWIDTH 600 0
DWIDTH 12 0
BBX 1 1 0 0
BITMAP
00
ENDCHAR
STARTCHAR perthousand
ENCODING 8240
SWIDTH 600 0
DWIDTH 12 0
BBX 12 13 0 0
BITMAP
02E000
0D2400
182400
1C7006
0B91B9
001E40
069000
040000
2F46E0
618D34
919824
D25860
7E0B80
ENDCHAR
STARTCHAR uni2032
ENCODING 8242
SWIDTH 600 0
DWIDTH 12 0
BBX 3 5 6 9
BITMAP
38
74
60
90
C0
ENDCHAR
STARTCHAR uni2033
ENCODING 8243
SWIDTH 600 0
DWIDTH 12 0
BBX 7 5 4 9
BITMAP
2C34
3470
70A0
60D0
9180
ENDCHAR
STARTCHAR uni2035
ENCODING 8245
SWIDTH 600 0
DWIDTH 12 0
BBX 3 5 6 9
BITMAP
D0
A0
70
34
24
ENDCHAR
STARTCHAR guilsinglleft
ENCODING 8249
SWIDTH 600 0
DWIDTH 12 0
BBX 5 8 3 1
BITMAP
0080
0740
1E00
3800
7400
2C00
0D00
0600
ENDCHAR
STARTCHAR guilsinglright
ENCODING 8250
SWIDTH 600 0
DWIDTH 12 0
BBX 5 8 3 1
BITMAP
1800
1D00
0B00
0740
0740
1D00
7400
9000
ENDCHAR
STARTCHAR exclamdbl
ENCODING 8252
SWIDTH 600 0
DWIDTH 12 0
BBX 10 13 1 0
BITMAP
0380E0
0340D0
0701D0
0B01C0
0A0280
0D0240
0C0340
1C0700
000000
000000
781E00
BC2F00
B41D00
ENDCHAR
STARTCHAR uni203D
ENCODING 8253
SWIDTH 600 0
DWIDTH 12 0
BBX 8 13 3 0
BITMAP
1BE4
B42C
001D
071C
0634
0A90
0E00
0D00
0000
0000
2C00
BD00
7800
ENDCHAR
STARTCHAR uni203E
ENCODING 8254
SWIDTH 600 0
DWIDTH 12 0
BBX 10 1 2 12
BITMAP
7FFFE0
ENDCHAR
STARTCHAR uni203F
ENCODING 8255
SWIDTH 600 0
DWIDTH 12 0
BBX 17 3 -4 -5
BITMAP
D000000680
2E5005B900
01BFFA4000
ENDCHAR
STARTCHAR fraction
ENCODING 8260
SWIDTH 600 0
DWIDTH 12 0
BBX 13 12 -1 1
BITMAP
00000080
00000380
00000D00
00002400
00004000
00000000
00000000
00400000
01800000
0A000000
28000000
60000000
ENDCHAR
STARTCHAR uni2047
ENCODING 8263
SWIDTH 600 0
DWIDTH 12 0
BBX 13 13 0 0
BITMAP
0BE1BD00
187A4B40
00280740
00740B00
01E01D00
0740B400
0A01D000
1C028000
00000000
00000000
2C078000
7D0FC000
780B4000
ENDCHAR
STARTCHAR uni2048
ENCODING 8264
SWIDTH 600 0
DWIDTH 12 0
BBX 11 13 0 0
BITMAP
0BE02C
187838
002834
007474
01E070
0740A0
0A0090
1C00D0
000000
000000
2C02C0
7D07D0
780780
ENDCHAR
STARTCHAR uni2049
ENCODING 8265
SWIDTH 600 0
DWIDTH 12 0
BBX 12 13 1 0
BITMAP
0746F4
07092D
0B001D
0A002C
0D0074
1C02D0
180740
280A00
000000
000000
B41E00
F83F00
B42D00
ENDCHAR
STARTCHAR zero.sups
ENCODING 8304
SWIDTH 600 0
DWIDTH 12 0
BBX 7 9 3 7
BITMAP
06E0
0D24
2818
3418
3018
7028
7030
34A0
1F80
ENDCHAR
STARTCHAR i.sups
ENCODING 8305
SWIDTH 600 0
DWIDTH 12 0
BBX 6 9 4 8
BITMAP
0740
0000
0000
BE00
0A00
0900
0C00
1C00
0BD0
ENDCHAR
STARTCHAR four.sups
ENCODING 8308
SWIDTH 600 0
DWIDTH 12 0
BBX 7 9 3 7
BITMAP
0090
0180
0700
0D70
2860
7FF8
0090
00D0
00C0
ENDCHAR
STARTCHAR five.sups
ENCODING 8309
SWIDTH 600 0
DWIDTH 12 0
BBX 6 8 4 7
BITMAP
1FF0
2400
3F40
11C0
00D0
00C0
D280
7E00
ENDCHAR
STARTCHAR six.sups
ENCODING 8310
SWIDTH 600 0
DWIDTH 12 0
BBX 6 9 4 7
BITMAP
0BE0
2810
7000
A000
AF80
E0D0
9090
61C0
2E40
ENDCHAR
STARTCHAR seven.sups
ENCODING 8311
SWIDTH 600 0
DWIDTH 12 0
BBX 6 8 5 7
BITMAP
FFD0
0240
0600
0C00
2800
3000
6000
9000
ENDCHAR
STARTCHAR eight.sups
ENCODING 8312
SWIDTH 600 0
DWIDTH 12 0
BBX 6 9 4 7
BITMAP
0B80
24A0
3060
29D0
2F40
A280
C0C0
D1C0
7E40
ENDCHAR
STARTCHAR nine.sups
ENCODING 8313
SWIDTH 600 0
DWIDTH 12 0
BBX 6 9 4 7
BITMAP
1F40
35D0
60A0
A0A0
71E0
2E90
00C0
4240
BD00
ENDCHAR
STARTCHAR parenleft.sups
ENCODING 8317
SWIDTH 600 0
DWIDTH 12 0
BBX 4 11 5 6
BITMAP
02
0A
0C
28
34
70
70
60
70
30
24
ENDCHAR
STARTCHAR parenright.sups
ENCODING 8318
SWIDTH 600 0
DWIDTH 12 0
BBX 4 11 4 6
BITMAP
05
06
03
03
03
03
06
09
1C
24
60
ENDCHAR
STARTCHAR n.sups
ENCODING 8319
SWIDTH 600 0
DWIDTH 12 0
BBX 7 7 4 7
BITMAP
36E0
7874
6030
A070
D060
C0A0
8050
ENDCHAR
STARTCHAR zero.subs
ENCODING 8320
SWIDTH 600 0
DWIDTH 12 0
BBX 7 9 2 -4
BITMAP
0B90
2870
3030
A034
9030
9070
90A0
61C0
2E40
ENDCHAR
STARTCHAR one.subs
ENCODING 8321
SWIDTH 600 0
DWIDTH 12 0
BBX 6 8 2 -4
BITMAP
1AC0
0180
0280
0340
0340
0700
0600
FFF0
ENDCHAR
STARTCHAR two.subs
ENCODING 8322
SWIDTH 600 0
DWIDTH 12 0
BBX 6 8 2 -4
BITMAP
0BD0
1470
0070
00A0
01C0
0700
2800
BFD0
ENDCHAR
STARTCHAR three.subs
ENCODING 8323
SWIDTH 600 0
DWIDTH 12 0
BBX 6 9 2 -4
BITMAP
1BD0
14B0
0070
01A0
0B80
01D0
0090
91D0
2F40
ENDCHAR
STARTCHAR four.subs
ENCODING 8324
SWIDTH 600 0
DWIDTH 12 0
BBX 6 9 2 -4
BITMAP
0180
0340
0900
2890
70C0
BFF0
0180
0180
0240
ENDCHAR
STARTCHAR five.subs
ENCODING 8325
SWIDTH 600 0
DWIDTH 12 0
BBX 7 8 2 -4
BITMAP
0FF4
1800
2F80
10A0
0060
00A0
91D0
2E40
ENDCHAR
STARTCHAR six.subs
ENCODING 8326
SWIDTH 600 0
DWIDTH 12 0
BBX 6 9 2 -4
BITMAP
06E0
1D10
3400
7000
7B80
74A0
6060
3490
1F40
ENDCHAR
STARTCHAR seven.subs
ENCODING 8327
SWIDTH 600 0
DWIDTH 12 0
BBX 6 8 3 -4
BITMAP
BFE0
0180
0300
0900
1C00
2800
3000
7000
ENDCHAR
STARTCHAR eight.subs
ENCODING 8328
SWIDTH 600 0
DWIDTH 12 0
BBX 6 9 2 -4
BITMAP
0BD0
1870
2830
1DA0
1F80
75D0
90A0
A1D0
2F40
ENDCHAR
STARTCHAR nine.subs
ENCODING 8329
SWIDTH 600 0
DWIDTH 12 0
BBX 6 9 2 -4
BITMAP
0B80
28A0
3070
3030
34B0
1FA0
0090
4180
7E00
ENDCHAR
STARTCHAR parenleft.subs
ENCODING 8333
SWIDTH 600 0
DWIDTH 12 0
BBX 4 11 4 -5
BITMAP
06
0C
24
70
A0
90
D0
D0
90
90
60
ENDCHAR
STARTCHAR parenright.subs
ENCODING 8334
SWIDTH 600 0
DWIDTH 12 0
BBX 4 11 3 -5
BITMAP
08
0D
09
0A
0A
09
0D
1C
24
60
80
ENDCHAR
STARTCHAR uni0259.sups
ENCODING 8340
SWIDTH 600 0
DWIDTH 12 0
BBX 6 6 4 8
BITMAP
2F80
50A0
FFF0
C0A0
D1D0
7E40
ENDCHAR
STARTCHAR colonmonetary
ENCODING 8353
SWIDTH 600 0
DWIDTH 12 0
BBX 11 17 1 -2
BITMAP
000220
000550
006FD0
02E8B4
075550
0D2200
2C2200
386500
349800
748800
759400
366400
3E2040
1E6780
0AF900
088000
094000
ENDCHAR
STARTCHAR franc
ENCODING 8355
SWIDTH 600 0
DWIDTH 12 0
BBX 12 13 0 0
BITMAP
00FFFE
00D000
01D000
02C000
02C000
038000
03FFE0
074000
0B0000
7FFC00
0E0000
0D0000
1D0000
ENDCHAR
STARTCHAR lira
ENCODING 8356
SWIDTH 600 0
DWIDTH 12 0
BBX 11 13 0 0
BITMAP
001BE4
00742C
00E000
01D000
01D000
0FFFD0
00D000
1FFF80
00D000
01C000
038000
0A0000
7FFFD0
ENDCHAR
STARTCHAR uni20A6
ENCODING 8358
SWIDTH 600 0
DWIDTH 12 0
BBX 11 13 1 0
BITMAP
0780A0
078090
0AC0D0
0DC0C0
0C91C0
BFFFF4
186280
FFFFF0
243300
343700
702A00
602E00
A01D00
ENDCHAR
STARTCHAR peseta
ENCODING 8359
SWIDTH 600 0
DWIDTH 12 0
BBX 11 13 1 0
BITMAP
03FE40
0706C0
0700E0
0B00A0
7FFFFC
0D01D0
1D0780
1FF900
280000
280000
340000
740000
700000
ENDCHAR
STARTCHAR uni20A9
ENCODING 8361
SWIDTH 600 0
DWIDTH 12 0
BBX 11 13 1 0
BITMAP
1D041C
1C2C28
1C2C34
1C6870
2898A0
2898D0
FFFFF4
295980
261640
362700
392A00
3C2D00
382C00
ENDCHAR
STARTCHAR dong
ENCODING 8363
SWIDTH 600 0
DWIDTH 12 0
BBX 11 13 1 0
BITMAP
0000D0
007FF8
0001C0
0001C0
02FA80
0E0740
280340
340700
340700
281E00
1BEA00
000000
BFFE00
ENDCHAR
STARTCHAR Euro
ENCODING 8364
SWIDTH 600 0
DWIDTH 12 0
BBX 12 13 0 0
BITMAP
000BF8
00791A
00E001
02C000
038000
2FFFE0
0B0000
7FFF40
0A0000
0B0000
074010
03D1B4
00BF80
ENDCHAR
STARTCHAR uni20AE
ENCODING 8366
SWIDTH 600 0
DWIDTH 12 0
BBX 10 13 2 0
BITMAP
7FFFE0
00A000
00E000
00D100
01EA00
06E000
6BC500
53E400
1F8000
974000
070000
0B0000
0E0000
ENDCHAR
STARTCHAR uni20B1
ENCODING 8369
SWIDTH 600 0
DWIDTH 12 0
BBX 11 13 1 0
BITMAP
07FE40
0701D0
3FFFFC
0A00E0
6FAAF4
1D56D0
1C0740
2EB900
294000
380000
340000
700000
B00000
ENDCHAR
STARTCHAR uni20B2
ENCODING 8370
SWIDTH 600 0
DWIDTH 12 0
BBX 10 17 1 -2
BITMAP
000300
000600
006F90
02D0B0
0B0000
1D0000
380000
740000
700000
B01FD0
B001C0
7001C0
340280
2D0740
0BF900
01C000
018000
ENDCHAR
STARTCHAR uni20B4
ENCODING 8372
SWIDTH 600 0
DWIDTH 12 0
BBX 10 13 1 0
BITMAP
01BE40
0342C0
0001D0
0001D0
000780
3FFFF0
02E400
BFFFD0
2C0000
380000
380000
2D0B00
0BF900
ENDCHAR
STARTCHAR uni20B5
ENCODING 8373
SWIDTH 600 0
DWIDTH 12 0
BBX 11 17 1 -2
BITMAP
000240
000300
006FD0
02DA74
074900
0E0C00
2C0C00
381800
341800
742400
742400
343000
286040
1E6780
06F900
00C000
00C000
ENDCHAR
STARTCHAR uni20B8
ENCODING 8376
SWIDTH 600 0
DWIDTH 12 0
BBX 10 13 2 0
BITMAP
3FFFE0
000000
BFFFD0
01D000
01D000
02C000
028000
038000
034000
074000
070000
0B0000
0E0000
ENDCHAR
STARTCHAR uni20B9
ENCODING 8377
SWIDTH 600 0
DWIDTH 12 0
BBX 10 13 2 0
BITMAP
2FFFE0
006800
000D00
7FFFC0
000D00
002C00
01B400
FF8000
0E0000
074000
02C000
01D000
00B000
ENDCHAR
STARTCHAR uni20BA
ENCODING 8378
SWIDTH 600 0
DWIDTH 12 0
BBX 10 13 1 0
BITMAP
01C000
02C000
039A40
03E400
6F4600
57A800
1F4000
AE0050
0E00D0
1D00D0
1C0280
2C5E00
3FA400
ENDCHAR
STARTCHAR uni20BD
ENCODING 8381
SWIDTH 600 0
DWIDTH 12 0
BBX 12 13 0 0
BITMAP
003FF8
00741E
00B00B
00A00B
00E00E
00D06C
3FFFA0
02C000
7FFFF0
038000
034000
074000
070000
ENDCHAR
STARTCHAR uni2105
ENCODING 8453
SWIDTH 600 0
DWIDTH 12 0
BBX 13 13 -1 0
BITMAP
06E00000
1D1001C0
24000700
34001800
34006000
28400000
0B800000
0001B900
00834B00
074A0700
1D090600
740A1D00
0002E400
ENDCHAR
STARTCHAR uni2113
ENCODING 8467
SWIDTH 600 0
DWIDTH 12 0
BBX 9 14 2 0
BITMAP
006E00
00E340
02C280
038340
034600
070D00
0B2400
0A9000
0F4000
2D0000
AC0000
1C0000
1E1800
07E400
ENDCHAR
STARTCHAR uni2116
ENCODING 8470
SWIDTH 600 0
DWIDTH 12 0
BBX 14 13 -1 0
BITMAP
0781D000
078287C0
0A835CA0
0AC32460
0DC724A0
1CCA3490
1CDA25C0
28DD1F40
289D0000
34AC7F40
30B80000
70780000
D0740000
ENDCHAR
STARTCHAR uni2117
ENCODING 8471
SWIDTH 600 0
DWIDTH 12 0
BBX 12 13 0 0
BITMAP
006FD0
029068
0A000D
187F85
2061D6
20A0D6
60D2C6
50FE09
61C00C
618024
300060
1D0680
06F900
ENDCHAR
STARTCHAR uni2120
ENCODING 8480
SWIDTH 600 0
DWIDTH 12 0
BBX 12 7 1 7
BITMAP
2F490A
314E1D
341A29
1D265C
07269C
833298
7D3018
ENDCHAR
STARTCHAR trademark
ENCODING 8482
SWIDTH 600 0
DWIDTH 12 0
BBX 12 7 1 7
BITMAP
7FDA0B
090E0A
0C0A1A
0C1A69
18199D
18258C
24240C
ENDCHAR
STARTCHAR uni2126
ENCODING 8486
SWIDTH 600 0
DWIDTH 12 0
BBX 13 13 -1 0
BITMAP
001BF400
00741D00
01D00B00
03400740
0B000740
0E000740
0D000740
0D000B00
0D000E00
0E001C00
0A003400
0341D000
7F83FD00
ENDCHAR
STARTCHAR estimated
ENCODING 8494
SWIDTH 600 0
DWIDTH 12 0
BBX 12 13 0 0
BITMAP
01BE40
064190
1C0034
3C0038
7C003C
7C003D
7FFFFD
7C0000
7C0000
3C0000
1C0020
064180
01BE00
ENDCHAR
STARTCHAR uni2150
ENCODING 8528
SWIDTH 600 0
DWIDTH 12 0
BBX 13 13 -1 0
BITMAP
0AC00080
01C00380
02800D00
02402400
03404000
03000000
00000000
0042FF40
01800900
0A002800
28007000
60009000
0000C000
ENDCHAR
STARTCHAR uni2151
ENCODING 8529
SWIDTH 600 0
DWIDTH 12 0
BBX 13 13 -1 0
BITMAP
0AC00080
01C00380
02800D00
02402400
03404000
03000000
00000000
0041B800
01834A00
0A030A00
2802EA00
60051C00
0007E400
ENDCHAR
STARTCHAR uni2152
ENCODING 8530
SWIDTH 600 0
DWIDTH 12 0
BBX 11 13 1 0
BITMAP
068000
174000
034000
070018
0106E4
007900
1A4000
100B80
BC34C0
1C6090
2860C0
286280
342E00
ENDCHAR
STARTCHAR onethird
ENCODING 8531
SWIDTH 600 0
DWIDTH 12 0
BBX 13 13 -1 0
BITMAP
0AC00080
01C00380
02800D00
02402400
03404000
03000000
00000000
0040BD00
01814A00
0A007800
28000D00
60060D00
0002F400
ENDCHAR
STARTCHAR twothirds
ENCODING 8532
SWIDTH 600 0
DWIDTH 12 0
BBX 13 13 -1 0
BITMAP
0BD00080
14A00380
00A00D00
02802400
19004000
7FE00000
00000000
0040BD00
01814A00
0A007800
28000D00
60060D00
0002F400
ENDCHAR
STARTCHAR uni2155
ENCODING 8533
SWIDTH 600 0
DWIDTH 12 0
BBX 13 13 -1 0
BITMAP
0AC00080
01C00380
02800D00
02402400
03404000
03000000
00000000
0040FE00
01818000
0A02F800
28010900
60050D00
0002F400
ENDCHAR
STARTCHAR uni2156
ENCODING 8534
SWIDTH 600 0
DWIDTH 12 0
BBX 13 13 -1 0
BITMAP
0BD00080
14A00380
00A00D00
02802400
19004000
7FE00000
00000000
0040FE00
01818000
0A02F800
28010900
60050D00
0002F400
ENDCHAR
STARTCHAR uni2157
ENCODING 8535
SWIDTH 600 0
DWIDTH 12 0
BBX 13 13 -1 0
BITMAP
07E00080
04700380
03C00D00
00A02400
24A04000
1F800000
00000000
0040FE00
01818000
0A02F800
28010900
60050D00
0002F400
ENDCHAR
STARTCHAR uni2158
ENCODING 8536
SWIDTH 600 0
DWIDTH 12 0
BBX 13 13 -1 0
BITMAP
01800080
03000380
09500D00
24902400
7FF04000
01C00000
00000000
0040FE00
01818000
0A02F800
28010900
60050D00
0002F400
ENDCHAR
STARTCHAR uni2159
ENCODING 8537
SWIDTH 600 0
DWIDTH 12 0
BBX 13 13 -1 0
BITMAP
0AC00080
01C00380
02800D00
02402400
03404000
03000000
00000000
00407E00
01828100
0A03BD00
28074A00
60074900
0001F800
ENDCHAR
STARTCHAR uni215A
ENCODING 8538
SWIDTH 600 0
DWIDTH 12 0
BBX 13 13 -1 0
BITMAP
0BF00080
0C000380
1FD00D00
04702400
20A04000
1F800000
00000000
00407E00
01828100
0A03BD00
28074A00
60074900
0001F800
ENDCHAR
STARTCHAR oneeighth
ENCODING 8539
SWIDTH 600 0
DWIDTH 12 0
BBX 13 13 -1 0
BITMAP
0AC00080
01C00380
02800D00
02402400
03404000
03000000
00000000
0041BD00
01828A00
0A01F800
28035D00
60060D00
0002F800
ENDCHAR
STARTCHAR threeeighths
ENCODING 8540
SWIDTH 600 0
DWIDTH 12 0
BBX 13 13 -1 0
BITMAP
07E00080
04700380
03C00D00
00A02400
24A04000
1F800000
00000000
0041BD00
01828A00
0A01F800
28035D00
60060D00
0002F800
ENDCHAR
STARTCHAR fiveeighths
ENCODING 8541
SWIDTH 600 0
DWIDTH 12 0
BBX 13 13 -1 0
BITMAP
0BF00080
0C000380
1FD00D00
04702400
20A04000
1F800000
00000000
0041BD00
01828A00
0A01F800
28035D00
60060D00
0002F800
ENDCHAR
STARTCHAR seveneighths
ENCODING 8542
SWIDTH 600 0
DWIDTH 12 0
BBX 13 13 -1 0
BITMAP
1FF80080
00600380
01C00D00
03402400
07004000
0A000000
00000000
0041BD00
01828A00
0A01F800
28035D00
60060D00
0002F800
ENDCHAR
STARTCHAR uni2189
ENCODING 8585
SWIDTH 600 0
DWIDTH 12 0
BBX 13 13 -1 0
BITMAP
07E00080
1D240380
34280D00
30242400
34704000
1F800000
00000000
0040BD00
01814A00
0A007800
28000D00
60060D00
0002F400
ENDCHAR
STARTCHAR uni2190
ENCODING 8592
SWIDTH 600 0
DWIDTH 12 0
BBX 12 11 0 0
BITMAP
001000
007400
02D000
0B4000
2C0000
7FFFFD
2C0000
0B4000
02D000
007400
001000
ENDCHAR
STARTCHAR arrowup
ENCODING 8593
SWIDTH 600 0
DWIDTH 12 0
BBX 10 11 1 0
BITMAP
00A000
02F800
07AD00
1CA340
74A1D0
D0A070
00A000
00A000
00A000
00A000
00A000
ENDCHAR
STARTCHAR uni2192
ENCODING 8594
SWIDTH 600 0
DWIDTH 12 0
BBX 12 11 0 0
BITMAP
000400
001D00
000740
0001E0
000038
7FFFFD
000038
0001E0
000780
001D00
000400
ENDCHAR
STARTCHAR arrowdown
ENCODING 8595
SWIDTH 600 0
DWIDTH 12 0
BBX 10 11 1 0
BITMAP
00A000
00A000
00A000
00A000
00A000
D0A070
74A1D0
1CA340
07AD00
02F800
00A000
ENDCHAR
STARTCHAR arrowboth
ENCODING 8596
SWIDTH 600 0
DWIDTH 12 0
BBX 12 9 0 1
BITMAP
010040
0A00A0
2C0038
70000D
FFFFFF
70000D
2C0038
0A00A0
010040
ENDCHAR
STARTCHAR arrowupdn
ENCODING 8597
SWIDTH 600 0
DWIDTH 12 0
BBX 8 12 2 -1
BITMAP
0280
0BE0
7AAD
D287
0280
0280
0280
0280
D287
7AAD
0BE0
0280
ENDCHAR
STARTCHAR uni2196
ENCODING 8598
SWIDTH 600 0
DWIDTH 12 0
BBX 8 8 2 1
BITMAP
FFFD
F554
ED00
CB40
C2D0
C0B4
D02D
800B
ENDCHAR
STARTCHAR uni2197
ENCODING 8599
SWIDTH 600 0
DWIDTH 12 0
BBX 8 8 2 1
BITMAP
BFFF
556F
007B
01D7
0747
1D07
7407
D006
ENDCHAR
STARTCHAR uni2198
ENCODING 8600
SWIDTH 600 0
DWIDTH 12 0
BBX 8 8 2 1
BITMAP
E002
7807
1E03
0783
01E3
007B
555F
6BFF
ENDCHAR
STARTCHAR uni2199
ENCODING 8601
SWIDTH 600 0
DWIDTH 12 0
BBX 8 8 2 1
BITMAP
9007
D01D
D074
D1D0
D740
ED00
F955
FFFA
ENDCHAR
STARTCHAR arrowupdnbse
ENCODING 8616
SWIDTH 600 0
DWIDTH 12 0
BBX 10 14 1 -3
BITMAP
00A000
07FD00
1DA740
34A1C0
00A000
00A000
00A000
00A000
34A1C0
1DA740
03FC00
00A000
000000
BFFFE0
ENDCHAR
STARTCHAR uni21D0
ENCODING 8656
SWIDTH 600 0
DWIDTH 12 0
BBX 12 10 0 0
BITMAP
002400
00A000
038000
0FFFFD
740000
740000
0FFFFD
038000
00A000
002400
ENDCHAR
STARTCHAR uni21D1
ENCODING 8657
SWIDTH 600 0
DWIDTH 12 0
BBX 10 11 1 0
BITMAP
00A000
02A800
070D00
1E0B40
7A0AD0
D60970
060900
060900
060900
060900
060900
ENDCHAR
STARTCHAR uni21D2
ENCODING 8658
SWIDTH 600 0
DWIDTH 12 0
BBX 12 10 0 0
BITMAP
001800
000A00
000280
7FFFF0
00001D
00001D
7FFFF0
000280
000A00
001800
ENDCHAR
STARTCHAR uni21D3
ENCODING 8659
SWIDTH 600 0
DWIDTH 12 0
BBX 10 11 1 0
BITMAP
060900
060900
060900
060900
060900
D60970
7A0AD0
1E0B40
070D00
02A800
00A000
ENDCHAR
STARTCHAR uni2200
ENCODING 8704
SWIDTH 600 0
DWIDTH 12 0
BBX 11 13 2 0
BITMAP
E00074
E000E0
A001C0
B00380
BAAB00
755D00
742C00
343400
34A000
34D000
2A8000
2B4000
2E0000
ENDCHAR
STARTCHAR partialdiff
ENCODING 8706
SWIDTH 600 0
DWIDTH 12 0
BBX 10 13 1 0
BITMAP
00BF40
0181D0
0000A0
0000B0
0000B0
06F9A0
2D07E0
7401D0
E002C0
E00780
E00A00
B47800
2F9000
ENDCHAR
STARTCHAR uni2203
ENCODING 8707
SWIDTH 600 0
DWIDTH 12 0
BBX 11 13 0 0
BITMAP
07FFF8
000034
000074
000070
0000B0
0000A0
07FFD0
0001D0
0001C0
0002C0
000280
000340
FFFF40
ENDCHAR
STARTCHAR uni2206
ENCODING 8710
SWIDTH 600 0
DWIDTH 12 0
BBX 12 13 -1 0
BITMAP
0002D0
0007E0
000AA0
001CB0
003470
007070
00D074
02C034
034038
0A0028
1D002C
28001C
7FFFFD
ENDCHAR
STARTCHAR product
ENCODING 8719
SWIDTH 600 0
DWIDTH 12 0
BBX 10 15 1 -2
BITMAP
FFFFF0
E000B0
E000B0
E000B0
E000B0
E000B0
E000B0
E000B0
E000B0
E000B0
E000B0
E000B0
E000B0
E000B0
E000B0
ENDCHAR
STARTCHAR summation
ENCODING 8721
SWIDTH 600 0
DWIDTH 12 0
BBX 10 15 1 -2
BITMAP
BFFFD0
380000
1D0000
0B0000
038000
01D000
00B000
003800
00B000
01D000
038000
0B0000
1D0000
740000
BFFFE0
ENDCHAR
STARTCHAR minus
ENCODING 8722
SWIDTH 600 0
DWIDTH 12 0
BBX 10 1 1 6
BITMAP
7FFFD0
ENDCHAR
STARTCHAR uni2215
ENCODING 8725
SWIDTH 600 0
DWIDTH 12 0
BBX 13 12 -1 1
BITMAP
00000080
00000380
00000D00
00002400
00004000
00000000
00000000
00400000
01800000
0A000000
28000000
60000000
ENDCHAR
STARTCHAR uni2219
ENCODING 8729
SWIDTH 600 0
DWIDTH 12 0
BBX 4 3 3 6
BITMAP
2D
7D
78
ENDCHAR
STARTCHAR radical
ENCODING 8730
SWIDTH 600 0
DWIDTH 12 0
BBX 11 18 1 -2
BITMAP
000014
000024
000030
000070
000060
000090
0000C0
0001C0
000180
2C0240
590300
060300
030600
024900
018800
00DC00
006800
003400
ENDCHAR
STARTCHAR infinity
ENCODING 8734
SWIDTH 600 0
DWIDTH 12 0
BBX 12 7 0 3
BITMAP
2F42F8
A1DA1E
D0B807
D07407
A0AC07
2F4A09
0002F8
ENDCHAR
STARTCHAR orthogonal
ENCODING 8735
SWIDTH 600 0
DWIDTH 12 0
BBX 10 9 1 2
BITMAP
600000
700000
700000
700000
700000
700000
700000
700000
7FFFD0
ENDCHAR
STARTCHAR intersection
ENCODING 8745
SWIDTH 600 0
DWIDTH 12 0
BBX 8 9 2 2
BITMAP
0BE0
341C
A00A
D007
D007
D007
D007
D007
D007
ENDCHAR
STARTCHAR integral
ENCODING 8747
SWIDTH 600 0
DWIDTH 12 0
BBX 5 19 4 -3
BITMAP
0B80
1C00
2800
2800
2800
2800
2800
2800
2C00
1C00
1C00
1D00
0D00
0D00
0D00
0D00
0D00
2C00
F400
ENDCHAR
STARTCHAR uni2237
ENCODING 8759
SWIDTH 600 0
DWIDTH 12 0
BBX 10 10 1 2
BITMAP
0B41E0
1F43F0
1E02D0
000000
000000
000000
000000
780B40
FC1F80
B40F40
ENDCHAR
STARTCHAR approxequal
ENCODING 8776
SWIDTH 600 0
DWIDTH 12 0
BBX 10 7 1 3
BITMAP
1B8090
34A1C0
602E40
000000
1B8090
34A1C0
602E40
ENDCHAR
STARTCHAR notequal
ENCODING 8800
SWIDTH 600 0
DWIDTH 12 0
BBX 10 11 1 1
BITMAP
000240
000700
000900
7FFFD0
003400
00A000
01C000
7FFFD0
060000
0D0000
180000
ENDCHAR
STARTCHAR equivalence
ENCODING 8801
SWIDTH 600 0
DWIDTH 12 0
BBX 10 9 1 2
BITMAP
7FFFD0
000000
000000
000000
7FFFD0
000000
000000
000000
7FFFD0
ENDCHAR
STARTCHAR lessequal
ENCODING 8804
SWIDTH 600 0
DWIDTH 12 0
BBX 10 10 1 0
BITMAP
0006D0
007900
1B9000
780000
1B9000
006D00
0006D0
000000
000000
7FFFD0
ENDCHAR
STARTCHAR greaterequal
ENCODING 8805
SWIDTH 600 0
DWIDTH 12 0
BBX 10 10 1 0
BITMAP
790000
069000
006E40
0002D0
006E40
079000
790000
000000
000000
7FFFD0
ENDCHAR
STARTCHAR house
ENCODING 8962
SWIDTH 600 0
DWIDTH 12 0
BBX 10 13 1 0
BITMAP
00F000
02A800
070D00
1D0740
3802C0
B000E0
D00070
D00070
D00070
D00070
D00070
D00070
FFFFF0
ENDCHAR
STARTCHAR revlogicalnot
ENCODING 8976
SWIDTH 600 0
DWIDTH 12 0
BBX 10 5 1 2
BITMAP
7FFFD0
700000
700000
700000
700000
ENDCHAR
STARTCHAR uni231C
ENCODING 8988
SWIDTH 600 0
DWIDTH 12 0
BBX 9 15 3 -1
BITMAP
03FF40
070000
0A0000
0A0000
0D0000
0C0000
1C0000
280000
280000
340000
300000
700000
A00000
A00000
400000
ENDCHAR
STARTCHAR uni231D
ENCODING 8989
SWIDTH 600 0
DWIDTH 12 0
BBX 6 15 3 -1
BITMAP
7FF0
0070
00A0
0090
00D0
00C0
01C0
0280
0240
0340
0300
0700
0A00
0900
0400
ENDCHAR
STARTCHAR uni231E
ENCODING 8990
SWIDTH 600 0
DWIDTH 12 0
BBX 6 14 3 -1
BITMAP
0600
0A00
0900
0D00
1C00
1800
2800
2400
3400
7000
6000
A000
9000
FFD0
ENDCHAR
STARTCHAR uni231F
ENCODING 8991
SWIDTH 600 0
DWIDTH 12 0
BBX 9 14 0 -1
BITMAP
000180
000280
000240
000340
000700
000600
000A00
000900
000D00
000C00
001C00
002800
002400
7FF400
ENDCHAR
STARTCHAR integraltp
ENCODING 8992
SWIDTH 600 0
DWIDTH 12 0
BBX 4 24 5 -8
BITMAP
2F
74
B0
A0
A0
A0
A0
A0
A0
A0
A0
A0
A0
A0
A0
A0
A0
A0
A0
A0
A0
A0
A0
50
ENDCHAR
STARTCHAR integralbt
ENCODING 8993
SWIDTH 600 0
DWIDTH 12 0
BBX 4 23 3 -3
BITMAP
0A
0A
0A
0A
0A
0A
0A
0A
0A
0A
0A
0A
0A
0A
0A
0A
0A
0A
0A
0A
0A
1D
B8
ENDCHAR
STARTCHAR uni2500
ENCODING 9472
SWIDTH 600 0
DWIDTH 12 0
BBX 14 1 -1 5
BITMAP
BFFFFFE0
ENDCHAR
STARTCHAR uni2501
ENCODING 9473
SWIDTH 600 0
DWIDTH 12 0
BBX 14 3 -1 4
BITMAP
BFFFFFE0
BFFFFFE0
BFFFFFE0
ENDCHAR
STARTCHAR uni2502
ENCODING 9474
SWIDTH 600 0
DWIDTH 12 0
BBX 2 28 5 -8
BITMAP
A0
A0
A0
A0
A0
A0
A0
A0
A0
A0
A0
A0
A0
A0
A0
A0
A0
A0
A0
A0
A0
A0
A0
A0
A0
A0
A0
A0
ENDCHAR
STARTCHAR uni2503
ENCODING 9475
SWIDTH 600 0
DWIDTH 12 0
BBX 4 28 4 -8
BITMAP
BE
BE
BE
BE
BE
BE
BE
BE
BE
BE
BE
BE
BE
BE
BE
BE
BE
BE
BE
BE
BE
BE
BE
BE
BE
BE
BE
BE
ENDCHAR
STARTCHAR uni2504
ENCODING 9476
SWIDTH 600 0
DWIDTH 12 0
BBX 12 1 0 5
BITMAP
7D7D7D
ENDCHAR
STARTCHAR uni2505
ENCODING 9477
SWIDTH 600 0
DWIDTH 12 0
BBX 12 3 0 4
BITMAP
7D7D7D
7D7D7D
7D7D7D
ENDCHAR
STARTCHAR uni2506
ENCODING 9478
SWIDTH 600 0
DWIDTH 12 0
BBX 2 21 5 -5
BITMAP
A0
A0
A0
A0
A0
00
00
A0
A0
A0
A0
A0
A0
00
00
A0
A0
A0
A0
A0
A0
ENDCHAR
STARTCHAR uni2507
ENCODING 9479
SWIDTH 600 0
DWIDTH 12 0
BBX 4 21 4 -5
BITMAP
BE
BE
BE
BE
BE
00
00
00
BE
BE
BE
BE
BE
00
00
00
BE
BE
BE
BE
BE
ENDCHAR
STARTCHAR uni2508
ENCODING 9480
SWIDTH 600 0
DWIDTH 12 0
BBX 12 1 0 5
BITMAP
BAEBAE
ENDCHAR
STARTCHAR uni2509
ENCODING 9481
SWIDTH 600 0
DWIDTH 12 0
BBX 12 3 0 4
BITMAP
BAEBAE
BAEBAE
BAEBAE
ENDCHAR
STARTCHAR uni250A
ENCODING 9482
SWIDTH 600 0
DWIDTH 12 0
BBX 2 24 5 -6
BITMAP
A0
A0
A0
A0
A0
00
A0
A0
A0
A0
A0
00
A0
A0
A0
A0
A0
00
00
A0
A0
A0
A0
A0
ENDCHAR
STARTCHAR uni250B
ENCODING 9483
SWIDTH 600 0
DWIDTH 12 0
BBX 4 24 4 -6
BITMAP
BE
BE
BE
BE
BE
00
BE
BE
BE
BE
BE
00
BE
BE
BE
BE
BE
00
00
BE
BE
BE
BE
BE
ENDCHAR
STARTCHAR uni250C
ENCODING 9484
SWIDTH 600 0
DWIDTH 12 0
BBX 8 15 5 -9
BITMAP
BFFE
A000
A000
A000
A000
A000
A000
A000
A000
A000
A000
A000
A000
A000
5000
ENDCHAR
STARTCHAR uni250D
ENCODING 9485
SWIDTH 600 0
DWIDTH 12 0
BBX 8 16 5 -9
BITMAP
BFFE
BFFE
BFFE
A000
A000
A000
A000
A000
A000
A000
A000
A000
A000
A000
A000
5000
ENDCHAR
STARTCHAR uni250E
ENCODING 9486
SWIDTH 600 0
DWIDTH 12 0
BBX 9 15 4 -9
BITMAP
BFFF80
BE0000
BE0000
BE0000
BE0000
BE0000
BE0000
BE0000
BE0000
BE0000
BE0000
BE0000
BE0000
BE0000
140000
ENDCHAR
STARTCHAR uni250F
ENCODING 9487
SWIDTH 600 0
DWIDTH 12 0
BBX 9 16 4 -9
BITMAP
BFFF80
BFFF80
BFFF80
BE0000
BE0000
BE0000
BE0000
BE0000
BE0000
BE0000
BE0000
BE0000
BE0000
BE0000
BE0000
550000
ENDCHAR
STARTCHAR uni2510
ENCODING 9488
SWIDTH 600 0
DWIDTH 12 0
BBX 8 15 -1 -9
BITMAP
BFFE
000A
000A
000A
000A
000A
000A
000A
000A
000A
000A
000A
000A
000A
0005
ENDCHAR
STARTCHAR uni2511
ENCODING 9489
SWIDTH 600 0
DWIDTH 12 0
BBX 8 16 -1 -9
BITMAP
BFFE
BFFE
BFFE
000A
000A
000A
000A
000A
000A
000A
000A
000A
000A
000A
000A
0005
ENDCHAR
STARTCHAR uni2512
ENCODING 9490
SWIDTH 600 0
DWIDTH 12 0
BBX 9 15 -1 -9
BITMAP
BFFF80
002F80
002F80
002F80
002F80
002F80
002F80
002F80
002F80
002F80
002F80
002F80
002F80
002F80
000500
ENDCHAR
STARTCHAR uni2513
ENCODING 9491
SWIDTH 600 0
DWIDTH 12 0
BBX 9 16 -1 -9
BITMAP
BFFF80
BFFF80
BFFF80
002F80
002F80
002F80
002F80
002F80
002F80
002F80
002F80
002F80
002F80
002F80
002F80
001540
ENDCHAR
STARTCHAR uni2514
ENCODING 9492
SWIDTH 600 0
DWIDTH 12 0
BBX 8 15 5 5
BITMAP
5000
A000
A000
A000
A000
A000
A000
A000
A000
A000
A000
A000
A000
A000
BFFE
ENDCHAR
STARTCHAR uni2515
ENCODING 9493
SWIDTH 600 0
DWIDTH 12 0
BBX 8 16 5 4
BITMAP
5000
A000
A000
A000
A000
A000
A000
A000
A000
A000
A000
A000
A000
BFFE
BFFE
BFFE
ENDCHAR
STARTCHAR uni2516
ENCODING 9494
SWIDTH 600 0
DWIDTH 12 0
BBX 9 15 4 5
BITMAP
140000
BE0000
BE0000
BE0000
BE0000
BE0000
BE0000
BE0000
BE0000
BE0000
BE0000
BE0000
BE0000
BE0000
BFFF80
ENDCHAR
STARTCHAR uni2517
ENCODING 9495
SWIDTH 600 0
DWIDTH 12 0
BBX 9 16 4 4
BITMAP
550000
BE0000
BE0000
BE0000
BE0000
BE0000
BE0000
BE0000
BE0000
BE0000
BE0000
BE0000
BE0000
BFFF80
BFFF80
BFFF80
ENDCHAR
STARTCHAR uni2518
ENCODING 9496
SWIDTH 600 0
DWIDTH 12 0
BBX 8 15 -1 5
BITMAP
0005
000A
000A
000A
000A
000A
000A
000A
000A
000A
000A
000A
000A
000A
BFFE
ENDCHAR
STARTCHAR uni2519
ENCODING 9497
SWIDTH 600 0
DWIDTH 12 0
BBX 8 16 -1 4
BITMAP
0005
000A
000A
000A
000A
000A
000A
000A
000A
000A
000A
000A
000A
BFFE
BFFE
BFFE
ENDCHAR
STARTCHAR uni251A
ENCODING 9498
SWIDTH 600 0
DWIDTH 12 0
BBX 9 15 -1 5
BITMAP
000500
002F80
002F80
002F80
002F80
002F80
002F80
002F80
002F80
002F80
002F80
002F80
002F80
002F80
BFFF80
ENDCHAR
STARTCHAR uni251B
ENCODING 9499
SWIDTH 600 0
DWIDTH 12 0
BBX 9 16 -1 4
BITMAP
001540
002F80
002F80
002F80
002F80
002F80
002F80
002F80
002F80
002F80
002F80
002F80
002F80
BFFF80
BFFF80
BFFF80
ENDCHAR
STARTCHAR uni251C
ENCODING 9500
SWIDTH 600 0
DWIDTH 12 0
BBX 8 29 5 -9
BITMAP
5000
A000
A000
A000
A000
A000
A000
A000
A000
A000
A000
A000
A000
A000
BFFE
A000
A000
A000
A000
A000
A000
A000
A000
A000
A000
A000
A000
A000
5000
ENDCHAR
STARTCHAR uni251D
ENCODING 9501
SWIDTH 600 0
DWIDTH 12 0
BBX 8 29 5 -9
BITMAP
5000
A000
A000
A000
A000
A000
A000
A000
A000
A000
A000
A000
A000
BFFE
BFFE
BFFE
A000
A000
A000
A000
A000
A000
A000
A000
A000
A000
A000
A000
5000
ENDCHAR
STARTCHAR uni251E
ENCODING 9502
SWIDTH 600 0
DWIDTH 12 0
BBX 9 29 4 -9
BITMAP
140000
BE0000
BE0000
BE0000
BE0000
BE0000
BE0000
BE0000
BE0000
BE0000
BE0000
BE0000
BE0000
BE0000
BFFF80
280000
280000
280000
280000
280000
280000
280000
280000
280000
280000
280000
280000
280000
140000
ENDCHAR
STARTCHAR uni251F
ENCODING 9503
SWIDTH 600 0
DWIDTH 12 0
BBX 9 29 4 -9
BITMAP
140000
280000
280000
280000
280000
280000
280000
280000
280000
280000
280000
280000
280000
280000
BFFF80
BE0000
BE0000
BE0000
BE0000
BE0000
BE0000
BE0000
BE0000
BE0000
BE0000
BE0000
BE0000
BE0000
140000
ENDCHAR
STARTCHAR uni2520
ENCODING 9504
SWIDTH 600 0
DWIDTH 12 0
BBX 9 29 4 -9
BITMAP
140000
BE0000
BE0000
BE0000
BE0000
BE0000
BE0000
BE0000
BE0000
BE0000
BE0000
BE0000
BE0000
BE0000
BFFF80
BE0000
BE0000
BE0000
BE0000
BE0000
BE0000
BE0000
BE0000
BE0000
BE0000
BE0000
BE0000
BE0000
140000
ENDCHAR
STARTCHAR uni2521
ENCODING 9505
SWIDTH 600 0
DWIDTH 12 0
BBX 9 29 4 -9
BITMAP
550000
BE0000
BE0000
BE0000
BE0000
BE0000
BE0000
BE0000
BE0000
BE0000
BE0000
BE0000
BE0000
BFFF80
BFFF80
BFFF80
280000
280000
280000
280000
280000
280000
280000
280000
280000
280000
280000
280000
140000
ENDCHAR
STARTCHAR uni2522
ENCODING 9506
SWIDTH 600 0
DWIDTH 12 0
BBX 9 29 4 -9
BITMAP
140000
280000
280000
280000
280000
280000
280000
280000
280000
280000
280000
280000
280000
BFFF80
BFFF80
BFFF80
BE0000
BE0000
BE0000
BE0000
BE0000
BE0000
BE0000
BE0000
BE0000
BE0000
BE0000
BE0000
550000
ENDCHAR
STARTCHAR uni2523
ENCODING 9507
SWIDTH 600 0
DWIDTH 12 0
BBX 9 29 4 -9
BITMAP
550000
BE0000
BE0000
BE0000
BE0000
BE0000
BE0000
BE0000
BE0000
BE0000
BE0000
BE0000
BE0000
BFFF80
BFFF80
BFFF80
BE0000
BE0000
BE0000
BE0000
BE0000
BE0000
BE0000
BE0000
BE0000
BE0000
BE0000
BE0000
550000
ENDCHAR
STARTCHAR uni2524
ENCODING 9508
SWIDTH 600 0
DWIDTH 12 0
BBX 8 29 -1 -9
BITMAP
0005
000A
000A
000A
000A
000A
000A
000A
000A
000A
000A
000A
000A
000A
BFFE
000A
000A
000A
000A
000A
000A
000A
000A
000A
000A
000A
000A
000A
0005
ENDCHAR
STARTCHAR uni2525
ENCODING 9509
SWIDTH 600 0
DWIDTH 12 0
BBX 8 29 -1 -9
BITMAP
0005
000A
000A
000A
000A
000A
000A
000A
000A
000A
000A
000A
000A
BFFE
BFFE
BFFE
000A
000A
000A
000A
000A
000A
000A
000A
000A
000A
000A
000A
0005
ENDCHAR
STARTCHAR uni2526
ENCODING 9510
SWIDTH 600 0
DWIDTH 12 0
BBX 9 29 -1 -9
BITMAP
000500
002F80
002F80
002F80
002F80
002F80
002F80
002F80
002F80
002F80
002F80
002F80
002F80
002F80
BFFF80
000A00
000A00
000A00
000A00
000A00
000A00
000A00
000A00
000A00
000A00
000A00
000A00
000A00
000500
ENDCHAR
STARTCHAR uni2527
ENCODING 9511
SWIDTH 600 0
DWIDTH 12 0
BBX 9 29 -1 -9
BITMAP
000500
000A00
000A00
000A00
000A00
000A00
000A00
000A00
000A00
000A00
000A00
000A00
000A00
000A00
BFFF80
002F80
002F80
002F80
002F80
002F80
002F80
002F80
002F80
002F80
002F80
002F80
002F80
002F80
000500
ENDCHAR
STARTCHAR uni2528
ENCODING 9512
SWIDTH 600 0
DWIDTH 12 0
BBX 9 29 -1 -9
BITMAP
000500
002F80
002F80
002F80
002F80
002F80
002F80
002F80
002F80
002F80
002F80
002F80
002F80
002F80
BFFF80
002F80
002F80
002F80
002F80
002F80
002F80
002F80
002F80
002F80
002F80
002F80
002F80
002F80
000500
ENDCHAR
STARTCHAR uni2529
ENCODING 9513
SWIDTH 600 0
DWIDTH 12 0
BBX 9 29 -1 -9
BITMAP
001540
002F80
002F80
002F80
002F80
002F80
002F80
002F80
002F80
002F80
002F80
002F80
002F80
BFFF80
BFFF80
BFFF80
000A00
000A00
000A00
000A00
000A00
000A00
000A00
000A00
000A00
000A00
000A00
000A00
000500
ENDCHAR
STARTCHAR uni252A
ENCODING 9514
SWIDTH 600 0
DWIDTH 12 0
BBX 9 29 -1 -9
BITMAP
000500
000A00
000A00
000A00
000A00
000A00
000A00
000A00
000A00
000A00
000A00
000A00
000A00
BFFF80
BFFF80
BFFF80
002F80
002F80
002F80
002F80
002F80
002F80
002F80
002F80
002F80
002F80
002F80
002F80
001540
ENDCHAR
STARTCHAR uni252B
ENCODING 9515
SWIDTH 600 0
DWIDTH 12 0
BBX 9 29 -1 -9
BITMAP
001540
002F80
002F80
002F80
002F80
002F80
002F80
002F80
002F80
002F80
002F80
002F80
002F80
BFFF80
BFFF80
BFFF80
002F80
002F80
002F80
002F80
002F80
002F80
002F80
002F80
002F80
002F80
002F80
002F80
001540
ENDCHAR
STARTCHAR uni252C
ENCODING 9516
SWIDTH 600 0
DWIDTH 12 0
BBX 14 15 -1 -9
BITMAP
BFFFFFE0
000A0000
000A0000
000A0000
000A0000
000A0000
000A0000
000A0000
000A0000
000A0000
000A0000
000A0000
000A0000
000A0000
00050000
ENDCHAR
STARTCHAR uni252D
ENCODING 9517
SWIDTH 600 0
DWIDTH 12 0
BBX 14 16 -1 -9
BITMAP
BFFE0000
BFFFFFE0
BFFE0000
000A0000
000A0000
000A0000
000A0000
000A0000
000A0000
000A0000
000A0000
000A0000
000A0000
000A0000
000A0000
00050000
ENDCHAR
STARTCHAR uni252E
ENCODING 9518
SWIDTH 600 0
DWIDTH 12 0
BBX 14 16 -1 -9
BITMAP
000BFFE0
BFFFFFE0
000BFFE0
000A0000
000A0000
000A0000
000A0000
000A0000
000A0000
000A0000
000A0000
000A0000
000A0000
000A0000
000A0000
00050000
ENDCHAR
STARTCHAR uni252F
ENCODING 9519
SWIDTH 600 0
DWIDTH 12 0
BBX 14 16 -1 -9
BITMAP
BFFFFFE0
BFFFFFE0
BFFFFFE0
000A0000
000A0000
000A0000
000A0000
000A0000
000A0000
000A0000
000A0000
000A0000
000A0000
000A0000
000A0000
00050000
ENDCHAR
STARTCHAR uni2530
ENCODING 9520
SWIDTH 600 0
DWIDTH 12 0
BBX 14 15 -1 -9
BITMAP
BFFFFFE0
002F8000
002F8000
002F8000
002F8000
002F8000
002F8000
002F8000
002F8000
002F8000
002F8000
002F8000
002F8000
002F8000
00050000
ENDCHAR
STARTCHAR uni2531
ENCODING 9521
SWIDTH 600 0
DWIDTH 12 0
BBX 14 16 -1 -9
BITMAP
BFFF8000
BFFFFFE0
BFFF8000
002F8000
002F8000
002F8000
002F8000
002F8000
002F8000
002F8000
002F8000
002F8000
002F8000
002F8000
002F8000
00154000
ENDCHAR
STARTCHAR uni2532
ENCODING 9522
SWIDTH 600 0
DWIDTH 12 0
BBX 14 16 -1 -9
BITMAP
002FFFE0
BFFFFFE0
002FFFE0
002F8000
002F8000
002F8000
002F8000
002F8000
002F8000
002F8000
002F8000
002F8000
002F8000
002F8000
002F8000
00154000
ENDCHAR
STARTCHAR uni2533
ENCODING 9523
SWIDTH 600 0
DWIDTH 12 0
BBX 14 16 -1 -9
BITMAP
BFFFFFE0
BFFFFFE0
BFFFFFE0
002F8000
002F8000
002F8000
002F8000
002F8000
002F8000
002F8000
002F8000
002F8000
002F8000
002F8000
002F8000
00154000
ENDCHAR
STARTCHAR uni2534
ENCODING 9524
SWIDTH 600 0
DWIDTH 12 0
BBX 14 15 -1 5
BITMAP
00050000
000A0000
000A0000
000A0000
000A0000
000A0000
000A0000
000A0000
000A0000
000A0000
000A0000
000A0000
000A0000
000A0000
BFFFFFE0
ENDCHAR
STARTCHAR uni2535
ENCODING 9525
SWIDTH 600 0
DWIDTH 12 0
BBX 14 16 -1 4
BITMAP
00050000
000A0000
000A0000
000A0000
000A0000
000A0000
000A0000
000A0000
000A0000
000A0000
000A0000
000A0000
000A0000
BFFE0000
BFFFFFE0
BFFE0000
ENDCHAR
STARTCHAR uni2536
ENCODING 9526
SWIDTH 600 0
DWIDTH 12 0
BBX 14 16 -1 4
BITMAP
00050000
000A0000
000A0000
000A0000
000A0000
000A0000
000A0000
000A0000
000A0000
000A0000
000A0000
000A0000
000A0000
000BFFE0
BFFFFFE0
000BFFE0
ENDCHAR
STARTCHAR uni2537
ENCODING 9527
SWIDTH 600 0
DWIDTH 12 0
BBX 14 16 -1 4
BITMAP
00050000
000A0000
000A0000
000A0000
000A0000
000A0000
000A0000
000A0000
000A0000
000A0000
000A0000
000A0000
000A0000
BFFFFFE0
BFFFFFE0
BFFFFFE0
ENDCHAR
STARTCHAR uni2538
ENCODING 9528
SWIDTH 600 0
DWIDTH 12 0
BBX 14 15 -1 5
BITMAP
00050000
002F8000
002F8000
002F8000
002F8000
002F8000
002F8000
002F8000
002F8000
002F8000
002F8000
002F8000
002F8000
002F8000
BFFFFFE0
ENDCHAR
STARTCHAR uni2539
ENCODING 9529
SWIDTH 600 0
DWIDTH 12 0
BBX 14 16 -1 4
BITMAP
00154000
002F8000
002F8000
002F8000
002F8000
002F8000
002F8000
002F8000
002F8000
002F8000
002F8000
002F8000
002F8000
BFFF8000
BFFFFFE0
BFFF8000
ENDCHAR
STARTCHAR uni253A
ENCODING 9530
SWIDTH 600 0
DWIDTH 12 0
BBX 14 16 -1 4
BITMAP
00154000
002F8000
002F8000
002F8000
002F8000
002F8000
002F8000
002F8000
002F8000
002F8000
002F8000
002F8000
002F8000
002FFFE0
BFFFFFE0
002FFFE0
ENDCHAR
STARTCHAR uni253B
ENCODING 9531
SWIDTH 600 0
DWIDTH 12 0
BBX 14 16 -1 4
BITMAP
00154000
002F8000
002F8000
002F8000
002F8000
002F8000
002F8000
002F8000
002F8000
002F8000
002F8000
002F8000
002F8000
BFFFFFE0
BFFFFFE0
BFFFFFE0
ENDCHAR
STARTCHAR uni253C
ENCODING 9532
SWIDTH 600 0
DWIDTH 12 0
BBX 14 29 -1 -9
BITMAP
00050000
000A0000
000A0000
000A0000
000A0000
000A0000
000A0000
000A0000
000A0000
000A0000
000A0000
000A0000
000A0000
000A0000
BFFFFFE0
000A0000
000A0000
000A0000
000A0000
000A0000
000A0000
000A0000
000A0000
000A0000
000A0000
000A0000
000A0000
000A0000
00050000
ENDCHAR
STARTCHAR uni253D
ENCODING 9533
SWIDTH 600 0
DWIDTH 12 0
BBX 14 29 -1 -9
BITMAP
00050000
000A0000
000A0000
000A0000
000A0000
000A0000
000A0000
000A0000
000A0000
000A0000
000A0000
000A0000
000A0000
BFFE0000
BFFFFFE0
BFFE0000
000A0000
000A0000
000A0000
000A0000
000A0000
000A0000
000A0000
000A0000
000A0000
000A0000
000A0000
000A0000
00050000
ENDCHAR
STARTCHAR uni253E
ENCODING 9534
SWIDTH 600 0
DWIDTH 12 0
BBX 14 29 -1 -9
BITMAP
00050000
000A0000
000A0000
000A0000
000A0000
000A0000
000A0000
000A0000
000A0000
000A0000
000A0000
000A0000
000A0000
000BFFE0
BFFFFFE0
000BFFE0
000A0000
000A0000
000A0000
000A0000
000A0000
000A0000
000A0000
000A0000
000A0000
000A0000
000A0000
000A0000
00050000
ENDCHAR
STARTCHAR uni253F
ENCODING 9535
SWIDTH 600 0
DWIDTH 12 0
BBX 14 29 -1 -9
BITMAP
00050000
000A0000
000A0000
000A0000
000A0000
000A0000
000A0000
000A0000
000A0000
000A0000
000A0000
000A0000
000A0000
BFFFFFE0
BFFFFFE0
BFFFFFE0
000A0000
000A0000
000A0000
000A0000
000A0000
000A0000
000A0000
000A0000
000A0000
000A0000
000A0000
000A0000
00050000
ENDCHAR
STARTCHAR uni2540
ENCODING 9536
SWIDTH 600 0
DWIDTH 12 0
BBX 14 29 -1 -9
BITMAP
00050000
002F8000
002F8000
002F8000
002F8000
002F8000
002F8000
002F8000
002F8000
002F8000
002F8000
002F8000
002F8000
002F8000
BFFFFFE0
000A0000
000A0000
000A0000
000A0000
000A0000
000A0000
000A0000
000A0000
000A0000
000A0000
000A0000
000A0000
000A0000
00050000
ENDCHAR
STARTCHAR uni2541
ENCODING 9537
SWIDTH 600 0
DWIDTH 12 0
BBX 14 29 -1 -9
BITMAP
00050000
000A0000
000A0000
000A0000
000A0000
000A0000
000A0000
000A0000
000A0000
000A0000
000A0000
000A0000
000A0000
000A0000
BFFFFFE0
002F8000
002F8000
002F8000
002F8000
002F8000
002F8000
002F8000
002F8000
002F8000
002F8000
002F8000
002F8000
002F8000
00050000
ENDCHAR
STARTCHAR uni2542
ENCODING 9538
SWIDTH 600 0
DWIDTH 12 0
BBX 14 29 -1 -9
BITMAP
00050000
002F8000
002F8000
002F8000
002F8000
002F8000
002F8000
002F8000
002F8000
002F8000
002F8000
002F8000
002F8000
002F8000
BFFFFFE0
002F8000
002F8000
002F8000
002F8000
002F8000
002F8000
002F8000
002F8000
002F8000
002F8000
002F8000
002F8000
002F8000
00050000
ENDCHAR
STARTCHAR uni2543
ENCODING 9539
SWIDTH 600 0
DWIDTH 12 0
BBX 14 29 -1 -9
BITMAP
00154000
002F8000
002F8000
002F8000
002F8000
002F8000
002F8000
002F8000
002F8000
002F8000
002F8000
002F8000
002F8000
BFFF8000
BFFFFFE0
BFFF8000
000A0000
000A0000
000A0000
000A0000
000A0000
000A0000
000A0000
000A0000
000A0000
000A0000
000A0000
000A0000
00050000
ENDCHAR
STARTCHAR uni2544
ENCODING 9540
SWIDTH 600 0
DWIDTH 12 0
BBX 14 29 -1 -9
BITMAP
00154000
002F8000
002F8000
002F8000
002F8000
002F8000
002F8000
002F8000
002F8000
002F8000
002F8000
002F8000
002F8000
002FFFE0
BFFFFFE0
002FFFE0
000A0000
000A0000
000A0000
000A0000
000A0000
000A0000
000A0000
000A0000
000A0000
000A0000
000A0000
000A0000
00050000
ENDCHAR
STARTCHAR uni2545
ENCODING 9541
SWIDTH 600 0
DWIDTH 12 0
BBX 14 29 -1 -9
BITMAP
00050000
000A0000
000A0000
000A0000
000A0000
000A0000
000A0000
000A0000
000A0000
000A0000
000A0000
000A0000
000A0000
BFFF8000
BFFFFFE0
BFFF8000
002F8000
002F8000
002F8000
002F8000
002F8000
002F8000
002F8000
002F8000
002F8000
002F8000
002F8000
002F8000
00154000
ENDCHAR
STARTCHAR uni2546
ENCODING 9542
SWIDTH 600 0
DWIDTH 12 0
BBX 14 29 -1 -9
BITMAP
00050000
000A0000
000A0000
000A0000
000A0000
000A0000
000A0000
000A0000
000A0000
000A0000
000A0000
000A0000
000A0000
002FFFE0
BFFFFFE0
002FFFE0
002F8000
002F8000
002F8000
002F8000
002F8000
002F8000
002F8000
002F8000
002F8000
002F8000
002F8000
002F8000
00154000
ENDCHAR
STARTCHAR uni2547
ENCODING 9543
SWIDTH 600 0
DWIDTH 12 0
BBX 14 29 -1 -9
BITMAP
00154000
002F8000
002F8000
002F8000
002F8000
002F8000
002F8000
002F8000
002F8000
002F8000
002F8000
002F8000
002F8000
BFFFFFE0
BFFFFFE0
BFFFFFE0
000A0000
000A0000
000A0000
000A0000
000A0000
000A0000
000A0000
000A0000
000A0000
000A0000
000A0000
000A0000
00050000
ENDCHAR
STARTCHAR uni2548
ENCODING 9544
SWIDTH 600 0
DWIDTH 12 0
BBX 14 29 -1 -9
BITMAP
00050000
000A0000
000A0000
000A0000
000A0000
000A0000
000A0000
000A0000
000A0000
000A0000
000A0000
000A0000
000A0000
BFFFFFE0
BFFFFFE0
BFFFFFE0
002F8000
002F8000
002F8000
002F8000
002F8000
002F8000
002F8000
002F8000
002F8000
002F8000
002F8000
002F8000
00154000
ENDCHAR
STARTCHAR uni2549
ENCODING 9545
SWIDTH 600 0
DWIDTH 12 0
BBX 14 29 -1 -9
BITMAP
00154000
002F8000
002F8000
002F8000
002F8000
002F8000
002F8000
002F8000
002F8000
002F8000
002F8000
002F8000
002F8000
BFFF8000
BFFFFFE0
BFFF8000
002F8000
002F8000
002F8000
002F8000
002F8000
002F8000
002F8000
002F8000
002F8000
002F8000
002F8000
002F8000
00154000
ENDCHAR
STARTCHAR uni254A
ENCODING 9546
SWIDTH 600 0
DWIDTH 12 0
BBX 14 29 -1 -9
BITMAP
00154000
002F8000
002F8000
002F8000
002F8000
002F8000
002F8000
002F8000
002F8000
002F8000
002F8000
002F8000
002F8000
002FFFE0
BFFFFFE0
002FFFE0
002F8000
002F8000
002F8000
002F8000
002F8000
002F8000
002F8000
002F8000
002F8000
002F8000
002F8000
002F8000
00154000
ENDCHAR
STARTCHAR uni254B
ENCODING 9547
SWIDTH 600 0
DWIDTH 12 0
BBX 14 29 -1 -9
BITMAP
00154000
002F8000
002F8000
002F8000
002F8000
002F8000
002F8000
002F8000
002F8000
002F8000
002F8000
002F8000
002F8000
BFFFFFE0
BFFFFFE0
BFFFFFE0
002F8000
002F8000
002F8000
002F8000
002F8000
002F8000
002F8000
002F8000
002F8000
002F8000
002F8000
002F8000
00154000
ENDCHAR
STARTCHAR uni254C
ENCODING 9548
SWIDTH 600 0
DWIDTH 12 0
BBX 10 1 1 5
BITMAP
BE0BE0
ENDCHAR
STARTCHAR uni254D
ENCODING 9549
SWIDTH 600 0
DWIDTH 12 0
BBX 10 3 1 4
BITMAP
BE0BE0
BE0BE0
BE0BE0
ENDCHAR
STARTCHAR uni254E
ENCODING 9550
SWIDTH 600 0
DWIDTH 12 0
BBX 2 18 5 -3
BITMAP
A0
A0
A0
A0
A0
A0
00
00
00
00
00
00
A0
A0
A0
A0
A0
A0
ENDCHAR
STARTCHAR uni254F
ENCODING 9551
SWIDTH 600 0
DWIDTH 12 0
BBX 4 18 4 -3
BITMAP
BE
BE
BE
BE
BE
BE
00
00
00
00
00
00
BE
BE
BE
BE
BE
BE
ENDCHAR
STARTCHAR uni2550
ENCODING 9552
SWIDTH 600 0
DWIDTH 12 0
BBX 14 4 -1 4
BITMAP
BFFFFFE0
00000000
00000000
BFFFFFE0
ENDCHAR
STARTCHAR uni2551
ENCODING 9553
SWIDTH 600 0
DWIDTH 12 0
BBX 6 28 3 -8
BITMAP
75D0
75D0
75D0
75D0
75D0
75D0
75D0
75D0
75D0
75D0
75D0
75D0
75D0
75D0
75D0
75D0
75D0
75D0
75D0
75D0
75D0
75D0
75D0
75D0
75D0
75D0
75D0
75D0
ENDCHAR
STARTCHAR uni2552
ENCODING 9554
SWIDTH 600 0
DWIDTH 12 0
BBX 8 16 5 -8
BITMAP
BFFE
A000
A000
BFFE
A000
A000
A000
A000
A000
A000
A000
A000
A000
A000
A000
A000
ENDCHAR
STARTCHAR uni2553
ENCODING 9555
SWIDTH 600 0
DWIDTH 12 0
BBX 10 15 3 -9
BITMAP
7FFFE0
75D000
75D000
75D000
75D000
75D000
75D000
75D000
75D000
75D000
75D000
75D000
75D000
75D000
104000
ENDCHAR
STARTCHAR uni2554
ENCODING 9556
SWIDTH 600 0
DWIDTH 12 0
BBX 10 16 3 -8
BITMAP
7FFFE0
740000
740000
75FFE0
75D000
75D000
75D000
75D000
75D000
75D000
75D000
75D000
75D000
75D000
75D000
649000
ENDCHAR
STARTCHAR uni2555
ENCODING 9557
SWIDTH 600 0
DWIDTH 12 0
BBX 8 16 -1 -8
BITMAP
BFFE
000A
000A
BFFE
000A
000A
000A
000A
000A
000A
000A
000A
000A
000A
000A
000A
ENDCHAR
STARTCHAR uni2556
ENCODING 9558
SWIDTH 600 0
DWIDTH 12 0
BBX 10 15 -1 -9
BITMAP
BFFFD0
0075D0
0075D0
0075D0
0075D0
0075D0
0075D0
0075D0
0075D0
0075D0
0075D0
0075D0
0075D0
0075D0
001040
ENDCHAR
STARTCHAR uni2557
ENCODING 9559
SWIDTH 600 0
DWIDTH 12 0
BBX 10 16 -1 -8
BITMAP
BFFFD0
0001D0
0001D0
BFF5D0
0075D0
0075D0
0075D0
0075D0
0075D0
0075D0
0075D0
0075D0
0075D0
0075D0
0075D0
006190
ENDCHAR
STARTCHAR uni2558
ENCODING 9560
SWIDTH 600 0
DWIDTH 12 0
BBX 8 16 5 4
BITMAP
A000
A000
A000
A000
A000
A000
A000
A000
A000
A000
A000
A000
BFFE
A000
A000
BFFE
ENDCHAR
STARTCHAR uni2559
ENCODING 9561
SWIDTH 600 0
DWIDTH 12 0
BBX 10 15 3 5
BITMAP
104000
75D000
75D000
75D000
75D000
75D000
75D000
75D000
75D000
75D000
75D000
75D000
75D000
75D000
7FFFE0
ENDCHAR
STARTCHAR uni255A
ENCODING 9562
SWIDTH 600 0
DWIDTH 12 0
BBX 10 16 3 4
BITMAP
649000
75D000
75D000
75D000
75D000
75D000
75D000
75D000
75D000
75D000
75D000
75D000
75FFE0
740000
740000
7FFFE0
ENDCHAR
STARTCHAR uni255B
ENCODING 9563
SWIDTH 600 0
DWIDTH 12 0
BBX 8 16 -1 4
BITMAP
000A
000A
000A
000A
000A
000A
000A
000A
000A
000A
000A
000A
BFFE
000A
000A
BFFE
ENDCHAR
STARTCHAR uni255C
ENCODING 9564
SWIDTH 600 0
DWIDTH 12 0
BBX 10 15 -1 5
BITMAP
001040
0075D0
0075D0
0075D0
0075D0
0075D0
0075D0
0075D0
0075D0
0075D0
0075D0
0075D0
0075D0
0075D0
BFFFD0
ENDCHAR
STARTCHAR uni255D
ENCODING 9565
SWIDTH 600 0
DWIDTH 12 0
BBX 10 16 -1 4
BITMAP
006190
0075D0
0075D0
0075D0
0075D0
0075D0
0075D0
0075D0
0075D0
0075D0
0075D0
0075D0
BFF5D0
0001D0
0001D0
BFFFD0
ENDCHAR
STARTCHAR uni255E
ENCODING 9566
SWIDTH 600 0
DWIDTH 12 0
BBX 8 28 5 -8
BITMAP
A000
A000
A000
A000
A000
A000
A000
A000
A000
A000
A000
A000
BFFE
A000
A000
BFFE
A000
A000
A000
A000
A000
A000
A000
A000
A000
A000
A000
A000
ENDCHAR
STARTCHAR uni255F
ENCODING 9567
SWIDTH 600 0
DWIDTH 12 0
BBX 10 29 3 -9
BITMAP
744000
75D000
75D000
75D000
75D000
75D000
75D000
75D000
75D000
75D000
75D000
75D000
75D000
75D000
75FFE0
75D000
75D000
75D000
75D000
75D000
75D000
75D000
75D000
75D000
75D000
75D000
75D000
75D000
004000
ENDCHAR
STARTCHAR uni2560
ENCODING 9568
SWIDTH 600 0
DWIDTH 12 0
BBX 10 28 3 -8
BITMAP
749000
75D000
75D000
75D000
75D000
75D000
75D000
75D000
75D000
75D000
75D000
75D000
75FFE0
740000
740000
75FFE0
75D000
75D000
75D000
75D000
75D000
75D000
75D000
75D000
75D000
75D000
75D000
749000
ENDCHAR
STARTCHAR uni2561
ENCODING 9569
SWIDTH 600 0
DWIDTH 12 0
BBX 8 28 -1 -8
BITMAP
000A
000A
000A
000A
000A
000A
000A
000A
000A
000A
000A
000A
BFFE
000A
000A
BFFE
000A
000A
000A
000A
000A
000A
000A
000A
000A
000A
000A
000A
ENDCHAR
STARTCHAR uni2562
ENCODING 9570
SWIDTH 600 0
DWIDTH 12 0
BBX 10 29 -1 -9
BITMAP
0011D0
0075D0
0075D0
0075D0
0075D0
0075D0
0075D0
0075D0
0075D0
0075D0
0075D0
0075D0
0075D0
0075D0
BFF5D0
0075D0
0075D0
0075D0
0075D0
0075D0
0075D0
0075D0
0075D0
0075D0
0075D0
0075D0
0075D0
0075D0
001000
ENDCHAR
STARTCHAR uni2563
ENCODING 9571
SWIDTH 600 0
DWIDTH 12 0
BBX 10 28 -1 -8
BITMAP
0061D0
0075D0
0075D0
0075D0
0075D0
0075D0
0075D0
0075D0
0075D0
0075D0
0075D0
0075D0
BFF5D0
0001D0
0001D0
BFF5D0
0075D0
0075D0
0075D0
0075D0
0075D0
0075D0
0075D0
0075D0
0075D0
0075D0
0075D0
0061D0
ENDCHAR
STARTCHAR uni2564
ENCODING 9572
SWIDTH 600 0
DWIDTH 12 0
BBX 14 16 -1 -8
BITMAP
BFFFFFE0
00000000
00000000
BFFFFFE0
000A0000
000A0000
000A0000
000A0000
000A0000
000A0000
000A0000
000A0000
000A0000
000A0000
000A0000
000A0000
ENDCHAR
STARTCHAR uni2565
ENCODING 9573
SWIDTH 600 0
DWIDTH 12 0
BBX 14 15 -1 -9
BITMAP
BFFFFFE0
0075D000
0075D000
0075D000
0075D000
0075D000
0075D000
0075D000
0075D000
0075D000
0075D000
0075D000
0075D000
0075D000
00104000
ENDCHAR
STARTCHAR uni2566
ENCODING 9574
SWIDTH 600 0
DWIDTH 12 0
BBX 14 16 -1 -8
BITMAP
BFFFFFE0
00000000
00000000
BFF5FFE0
0075D000
0075D000
0075D000
0075D000
0075D000
0075D000
0075D000
0075D000
0075D000
0075D000
0075D000
00609000
ENDCHAR
STARTCHAR uni2567
ENCODING 9575
SWIDTH 600 0
DWIDTH 12 0
BBX 14 16 -1 4
BITMAP
000A0000
000A0000
000A0000
000A0000
000A0000
000A0000
000A0000
000A0000
000A0000
000A0000
000A0000
000A0000
BFFFFFE0
00000000
00000000
BFFFFFE0
ENDCHAR
STARTCHAR uni2568
ENCODING 9576
SWIDTH 600 0
DWIDTH 12 0
BBX 14 15 -1 5
BITMAP
00104000
0075D000
0075D000
0075D000
0075D000
0075D000
0075D000
0075D000
0075D000
0075D000
0075D000
0075D000
0075D000
0075D000
BFFFFFE0
ENDCHAR
STARTCHAR uni2569
ENCODING 9577
SWIDTH 600 0
DWIDTH 12 0
BBX 14 16 -1 4
BITMAP
00609000
0075D000
0075D000
0075D000
0075D000
0075D000
0075D000
0075D000
0075D000
0075D000
0075D000
0075D000
BFF5FFE0
00000000
00000000
BFFFFFE0
ENDCHAR
STARTCHAR uni256A
ENCODING 9578
SWIDTH 600 0
DWIDTH 12 0
BBX 14 28 -1 -8
BITMAP
000A0000
000A0000
000A0000
000A0000
000A0000
000A0000
000A0000
000A0000
000A0000
000A0000
000A0000
000A0000
BFFFFFE0
000A0000
000A0000
BFFFFFE0
000A0000
000A0000
000A0000
000A0000
000A0000
000A0000
000A0000
000A0000
000A0000
000A0000
000A0000
000A0000
ENDCHAR
STARTCHAR uni256B
ENCODING 9579
SWIDTH 600 0
DWIDTH 12 0
BBX 14 29 -1 -9
BITMAP
00104000
0075D000
0075D000
0075D000
0075D000
0075D000
0075D000
0075D000
0075D000
0075D000
0075D000
0075D000
0075D000
0075D000
BFFFFFE0
0075D000
0075D000
0075D000
0075D000
0075D000
0075D000
0075D000
0075D000
0075D000
0075D000
0075D000
0075D000
0075D000
00104000
ENDCHAR
STARTCHAR uni256C
ENCODING 9580
SWIDTH 600 0
DWIDTH 12 0
BBX 14 28 -1 -8
BITMAP
00609000
0075D000
0075D000
0075D000
0075D000
0075D000
0075D000
0075D000
0075D000
0075D000
0075D000
0075D000
BFF5FFE0
00000000
00000000
BFF5FFE0
0075D000
0075D000
0075D000
0075D000
0075D000
0075D000
0075D000
0075D000
0075D000
0075D000
0075D000
00609000
ENDCHAR
STARTCHAR uni256D
ENCODING 9581
SWIDTH 600 0
DWIDTH 12 0
BBX 8 15 5 -9
BITMAP
01BE
0B90
2D00
7800
B000
B000
A000
A000
A000
A000
A000
A000
A000
A000
5000
ENDCHAR
STARTCHAR uni256E
ENCODING 9582
SWIDTH 600 0
DWIDTH 12 0
BBX 8 15 -1 -9
BITMAP
BE40
06E0
0078
002D
000E
000E
000A
000A
000A
000A
000A
000A
000A
000A
0005
ENDCHAR
STARTCHAR uni256F
ENCODING 9583
SWIDTH 600 0
DWIDTH 12 0
BBX 8 15 -1 5
BITMAP
0005
000A
000A
000A
000A
000A
000A
000A
000A
000E
000E
002D
0078
06E0
BE40
ENDCHAR
STARTCHAR uni2570
ENCODING 9584
SWIDTH 600 0
DWIDTH 12 0
BBX 8 15 5 5
BITMAP
5000
A000
A000
A000
A000
A000
A000
A000
A000
B000
B000
7800
2D00
0B90
01BE
ENDCHAR
STARTCHAR uni2571
ENCODING 9585
SWIDTH 600 0
DWIDTH 12 0
BBX 12 24 0 -6
BITMAP
000003
00000B
00000E
00002C
000038
0000B0
0000E0
0002C0
000380
000B00
000E00
002C00
003800
00B000
00E000
02C000
038000
0B0000
0E0000
2C0000
380000
B00000
E00000
C00000
ENDCHAR
STARTCHAR uni2572
ENCODING 9586
SWIDTH 600 0
DWIDTH 12 0
BBX 12 24 0 -6
BITMAP
C00000
E00000
B00000
380000
2C0000
0E0000
0B0000
038000
02C000
00E000
00B000
003800
002C00
000E00
000B00
000380
0002C0
0000E0
0000B0
000038
00002C
00000E
00000B
000003
ENDCHAR
STARTCHAR uni2573
ENCODING 9587
SWIDTH 600 0
DWIDTH 12 0
BBX 12 24 0 -6
BITMAP
C00003
E0000B
B0000E
38002C
2C0038
0E00B0
0B00E0
0382C0
02C380
00EB00
00BE00
003C00
003C00
00BE00
00EB00
02C380
0382C0
0B00E0
0E00B0
2C0038
38002C
B0000E
E0000B
C00003
ENDCHAR
STARTCHAR uni2574
ENCODING 9588
SWIDTH 600 0
DWIDTH 12 0
BBX 8 1 -1 5
BITMAP
BFFE
ENDCHAR
STARTCHAR uni2575
ENCODING 9589
SWIDTH 600 0
DWIDTH 12 0
BBX 2 15 5 5
BITMAP
A0
A0
A0
A0
A0
A0
A0
A0
A0
A0
A0
A0
A0
A0
A0
ENDCHAR
STARTCHAR uni2576
ENCODING 9590
SWIDTH 600 0
DWIDTH 12 0
BBX 8 1 5 5
BITMAP
BFFE
ENDCHAR
STARTCHAR uni2577
ENCODING 9591
SWIDTH 600 0
DWIDTH 12 0
BBX 2 15 5 -8
BITMAP
A0
A0
A0
A0
A0
A0
A0
A0
A0
A0
A0
A0
A0
A0
A0
ENDCHAR
STARTCHAR uni2578
ENCODING 9592
SWIDTH 600 0
DWIDTH 12 0
BBX 8 3 -1 4
BITMAP
BFFE
BFFE
BFFE
ENDCHAR
STARTCHAR uni2579
ENCODING 9593
SWIDTH 600 0
DWIDTH 12 0
BBX 4 15 4 5
BITMAP
BE
BE
BE
BE
BE
BE
BE
BE
BE
BE
BE
BE
BE
BE
BE
ENDCHAR
STARTCHAR uni257A
ENCODING 9594
SWIDTH 600 0
DWIDTH 12 0
BBX 8 3 5 4
BITMAP
BFFE
BFFE
BFFE
ENDCHAR
STARTCHAR uni257B
ENCODING 9595
SWIDTH 600 0
DWIDTH 12 0
BBX 4 15 4 -8
BITMAP
BE
BE
BE
BE
BE
BE
BE
BE
BE
BE
BE
BE
BE
BE
BE
ENDCHAR
STARTCHAR uni257C
ENCODING 9596
SWIDTH 600 0
DWIDTH 12 0
BBX 14 3 -1 4
BITMAP
000AAAA0
BFFFFFE0
000AAAA0
ENDCHAR
STARTCHAR uni257D
ENCODING 9597
SWIDTH 600 0
DWIDTH 12 0
BBX 4 28 4 -8
BITMAP
28
28
28
28
28
28
28
28
28
28
28
28
28
7D
BE
BE
BE
BE
BE
BE
BE
BE
BE
BE
BE
BE
BE
BE
ENDCHAR
STARTCHAR uni257E
ENCODING 9598
SWIDTH 600 0
DWIDTH 12 0
BBX 14 3 -1 4
BITMAP
AAAA0000
BFFFFFE0
AAAA0000
ENDCHAR
STARTCHAR uni257F
ENCODING 9599
SWIDTH 600 0
DWIDTH 12 0
BBX 4 28 4 -8
BITMAP
BE
BE
BE
BE
BE
BE
BE
BE
BE
BE
BE
BE
BE
BE
7D
28
28
28
28
28
28
28
28
28
28
28
28
28
ENDCHAR
STARTCHAR uni2580
ENCODING 9600
SWIDTH 600 0
DWIDTH 12 0
BBX 12 14 0 6
BITMAP
FFFFFF
FFFFFF
FFFFFF
FFFFFF
FFFFFF
FFFFFF
FFFFFF
FFFFFF
FFFFFF
FFFFFF
FFFFFF
FFFFFF
FFFFFF
FFFFFF
ENDCHAR
STARTCHAR uni2581
ENCODING 9601
SWIDTH 600 0
DWIDTH 12 0
BBX 12 3 0 -8
BITMAP
FFFFFF
FFFFFF
FFFFFF
ENDCHAR
STARTCHAR uni2582
ENCODING 9602
SWIDTH 600 0
DWIDTH 12 0
BBX 12 7 0 -8
BITMAP
FFFFFF
FFFFFF
FFFFFF
FFFFFF
FFFFFF
FFFFFF
FFFFFF
ENDCHAR
STARTCHAR uni2583
ENCODING 9603
SWIDTH 600 0
DWIDTH 12 0
BBX 12 11 0 -8
BITMAP
FFFFFF
FFFFFF
FFFFFF
FFFFFF
FFFFFF
FFFFFF
FFFFFF
FFFFFF
FFFFFF
FFFFFF
FFFFFF
ENDCHAR
STARTCHAR uni2584
ENCODING 9604
SWIDTH 600 0
DWIDTH 12 0
BBX 12 14 0 -8
BITMAP
FFFFFF
FFFFFF
FFFFFF
FFFFFF
FFFFFF
FFFFFF
FFFFFF
FFFFFF
FFFFFF
FFFFFF
FFFFFF
FFFFFF
FFFFFF
FFFFFF
ENDCHAR
STARTCHAR uni2585
ENCODING 9605
SWIDTH 600 0
DWIDTH 12 0
BBX 12 18 0 -8
BITMAP
FFFFFF
FFFFFF
FFFFFF
FFFFFF
FFFFFF
FFFFFF
FFFFFF
FFFFFF
FFFFFF
FFFFFF
FFFFFF
FFFFFF
FFFFFF
FFFFFF
FFFFFF
FFFFFF
FFFFFF
FFFFFF
ENDCHAR
STARTCHAR uni2586
ENCODING 9606
SWIDTH 600 0
DWIDTH 12 0
BBX 12 21 0 -8
BITMAP
FFFFFF
FFFFFF
FFFFFF
FFFFFF
FFFFFF
FFFFFF
FFFFFF
FFFFFF
FFFFFF
FFFFFF
FFFFFF
FFFFFF
FFFFFF
FFFFFF
FFFFFF
FFFFFF
FFFFFF
FFFFFF
FFFFFF
FFFFFF
FFFFFF
ENDCHAR
STARTCHAR uni2587
ENCODING 9607
SWIDTH 600 0
DWIDTH 12 0
BBX 12 25 0 -8
BITMAP
FFFFFF
FFFFFF
FFFFFF
FFFFFF
FFFFFF
FFFFFF
FFFFFF
FFFFFF
FFFFFF
FFFFFF
FFFFFF
FFFFFF
FFFFFF
FFFFFF
FFFFFF
FFFFFF
FFFFFF
FFFFFF
FFFFFF
FFFFFF
FFFFFF
FFFFFF
FFFFFF
FFFFFF
FFFFFF
ENDCHAR
STARTCHAR uni2588
ENCODING 9608
SWIDTH 600 0
DWIDTH 12 0
BBX 12 28 0 -8
BITMAP
FFFFFF
FFFFFF
FFFFFF
FFFFFF
FFFFFF
FFFFFF
FFFFFF
FFFFFF
FFFFFF
FFFFFF
FFFFFF
FFFFFF
FFFFFF
FFFFFF
FFFFFF
FFFFFF
FFFFFF
FFFFFF
FFFFFF
FFFFFF
FFFFFF
FFFFFF
FFFFFF
FFFFFF
FFFFFF
FFFFFF
FFFFFF
FFFFFF
ENDCHAR
STARTCHAR uni2589
ENCODING 9609
SWIDTH 600 0
DWIDTH 12 0
BBX 11 28 0 -8
BITMAP
FFFFF8
FFFFF8
FFFFF8
FFFFF8
FFFFF8
FFFFF8
FFFFF8
FFFFF8
FFFFF8
FFFFF8
FFFFF8
FFFFF8
FFFFF8
FFFFF8
FFFFF8
FFFFF8
FFFFF8
FFFFF8
FFFFF8
FFFFF8
FFFFF8
FFFFF8
FFFFF8
FFFFF8
FFFFF8
FFFFF8
FFFFF8
FFFFF8
ENDCHAR
STARTCHAR uni258A
ENCODING 9610
SWIDTH 600 0
DWIDTH 12 0
BBX 9 28 0 -8
BITMAP
FFFFC0
FFFFC0
FFFFC0
FFFFC0
FFFFC0
FFFFC0
FFFFC0
FFFFC0
FFFFC0
FFFFC0
FFFFC0
FFFFC0
FFFFC0
FFFFC0
FFFFC0
FFFFC0
FFFFC0
FFFFC0
FFFFC0
FFFFC0
FFFFC0
FFFFC0
FFFFC0
FFFFC0
FFFFC0
FFFFC0
FFFFC0
FFFFC0
ENDCHAR
STARTCHAR uni258B
ENCODING 9611
SWIDTH 600 0
DWIDTH 12 0
BBX 8 28 0 -8
BITMAP
FFFE
FFFE
FFFE
FFFE
FFFE
FFFE
FFFE
FFFE
FFFE
FFFE
FFFE
FFFE
FFFE
FFFE
FFFE
FFFE
FFFE
FFFE
FFFE
FFFE
FFFE
FFFE
FFFE
FFFE
FFFE
FFFE
FFFE
FFFE
ENDCHAR
STARTCHAR uni258C
ENCODING 9612
SWIDTH 600 0
DWIDTH 12 0
BBX 6 28 0 -8
BITMAP
FFF0
FFF0
FFF0
FFF0
FFF0
FFF0
FFF0
FFF0
FFF0
FFF0
FFF0
FFF0
FFF0
FFF0
FFF0
FFF0
FFF0
FFF0
FFF0
FFF0
FFF0
FFF0
FFF0
FFF0
FFF0
FFF0
FFF0
FFF0
ENDCHAR
STARTCHAR uni258D
ENCODING 9613
SWIDTH 600 0
DWIDTH 12 0
BBX 5 28 0 -8
BITMAP
FF80
FF80
FF80
FF80
FF80
FF80
FF80
FF80
FF80
FF80
FF80
FF80
FF80
FF80
FF80
FF80
FF80
FF80
FF80
FF80
FF80
FF80
FF80
FF80
FF80
FF80
FF80
FF80
ENDCHAR
STARTCHAR uni258E
ENCODING 9614
SWIDTH 600 0
DWIDTH 12 0
BBX 3 28 0 -8
BITMAP
FC
FC
FC
FC
FC
FC
FC
FC
FC
FC
FC
FC
FC
FC
FC
FC
FC
FC
FC
FC
FC
FC
FC
FC
FC
FC
FC
FC
ENDCHAR
STARTCHAR uni258F
ENCODING 9615
SWIDTH 600 0
DWIDTH 12 0
BBX 2 28 0 -8
BITMAP
E0
E0
E0
E0
E0
E0
E0
E0
E0
E0
E0
E0
E0
E0
E0
E0
E0
E0
E0
E0
E0
E0
E0
E0
E0
E0
E0
E0
ENDCHAR
STARTCHAR uni2590
ENCODING 9616
SWIDTH 600 0
DWIDTH 12 0
BBX 6 28 6 -8
BITMAP
FFF0
FFF0
FFF0
FFF0
FFF0
FFF0
FFF0
FFF0
FFF0
FFF0
FFF0
FFF0
FFF0
FFF0
FFF0
FFF0
FFF0
FFF0
FFF0
FFF0
FFF0
FFF0
FFF0
FFF0
FFF0
FFF0
FFF0
FFF0
ENDCHAR
STARTCHAR uni2591
ENCODING 9617
SWIDTH 600 0
DWIDTH 12 0
BBX 12 27 -1 -8
BITMAP
0A0A0A
050505
000000
000000
050505
050505
000000
000000
050505
050505
000000
000000
050505
050505
000000
000000
050505
050505
000000
000000
050505
050505
000000
000000
050505
050505
505050
ENDCHAR
STARTCHAR uni2592
ENCODING 9618
SWIDTH 600 0
DWIDTH 12 0
BBX 12 28 -1 -9
BITMAP
0A0A0A
0F0F0F
505050
505050
0F0F0F
0F0F0F
505050
505050
0F0F0F
0F0F0F
505050
505050
0F0F0F
0F0F0F
505050
505050
0F0F0F
0F0F0F
505050
505050
0F0F0F
0F0F0F
505050
505050
0F0F0F
0F0F0F
505050
A0A0A0
ENDCHAR
STARTCHAR uni2593
ENCODING 9619
SWIDTH 600 0
DWIDTH 12 0
BBX 13 29 -1 -9
BITMAP
1F5F5F40
2FAFAF80
1F5F5F40
F0F0F000
FAFAF900
2FAFAF40
2FAFAF40
FAFAF900
FAFAF900
2FAFAF40
2FAFAF40
FAFAF900
FAFAF900
2FAFAF40
2FAFAF40
FAFAF900
FAFAF900
2FAFAF40
2FAFAF40
FAFAF900
FAFAF900
2FAFAF40
2FAFAF40
FAFAF900
FAFAF900
2FAFAF40
2FAFAF40
FAFAF900
A0A0A000
ENDCHAR
STARTCHAR uni2594
ENCODING 9620
SWIDTH 600 0
DWIDTH 12 0
BBX 12 3 0 17
BITMAP
FFFFFF
FFFFFF
FFFFFF
ENDCHAR
STARTCHAR uni2595
ENCODING 9621
SWIDTH 600 0
DWIDTH 12 0
BBX 2 28 10 -8
BITMAP
B0
B0
B0
B0
B0
B0
B0
B0
B0
B0
B0
B0
B0
B0
B0
B0
B0
B0
B0
B0
B0
B0
B0
B0
B0
B0
B0
B0
ENDCHAR
STARTCHAR uni2596
ENCODING 9622
SWIDTH 600 0
DWIDTH 12 0
BBX 6 14 0 -8
BITMAP
FFF0
FFF0
FFF0
FFF0
FFF0
FFF0
FFF0
FFF0
FFF0
FFF0
FFF0
FFF0
FFF0
FFF0
ENDCHAR
STARTCHAR uni2597
ENCODING 9623
SWIDTH 600 0
DWIDTH 12 0
BBX 6 14 6 -8
BITMAP
FFF0
FFF0
FFF0
FFF0
FFF0
FFF0
FFF0
FFF0
FFF0
FFF0
FFF0
FFF0
FFF0
FFF0
ENDCHAR
STARTCHAR uni2598
ENCODING 9624
SWIDTH 600 0
DWIDTH 12 0
BBX 6 14 0 6
BITMAP
FFF0
FFF0
FFF0
FFF0
FFF0
FFF0
FFF0
FFF0
FFF0
FFF0
FFF0
FFF0
FFF0
FFF0
ENDCHAR
STARTCHAR uni2599
ENCODING 9625
SWIDTH 600 0
DWIDTH 12 0
BBX 12 28 0 -8
BITMAP
FFF000
FFF000
FFF000
FFF000
FFF000
FFF000
FFF000
FFF000
FFF000
FFF000
FFF000
FFF000
FFF000
FFF000
FFFFFF
FFFFFF
FFFFFF
FFFFFF
FFFFFF
FFFFFF
FFFFFF
FFFFFF
FFFFFF
FFFFFF
FFFFFF
FFFFFF
FFFFFF
FFFFFF
ENDCHAR
STARTCHAR uni259A
ENCODING 9626
SWIDTH 600 0
DWIDTH 12 0
BBX 12 28 0 -8
BITMAP
FFF000
FFF000
FFF000
FFF000
FFF000
FFF000
FFF000
FFF000
FFF000
FFF000
FFF000
FFF000
FFF000
FFF000
000FFF
000FFF
000FFF
000FFF
000FFF
000FFF
000FFF
000FFF
000FFF
000FFF
000FFF
000FFF
000FFF
000FFF
ENDCHAR
STARTCHAR uni259B
ENCODING 9627
SWIDTH 600 0
DWIDTH 12 0
BBX 12 28 0 -8
BITMAP
FFFFFF
FFFFFF
FFFFFF
FFFFFF
FFFFFF
FFFFFF
FFFFFF
FFFFFF
FFFFFF
FFFFFF
FFFFFF
FFFFFF
FFFFFF
FFFFFF
FFF000
FFF000
FFF000
FFF000
FFF000
FFF000
FFF000
FFF000
FFF000
FFF000
FFF000
FFF000
FFF000
FFF000
ENDCHAR
STARTCHAR uni259C
ENCODING 9628
SWIDTH 600 0
DWIDTH 12 0
BBX 12 28 0 -8
BITMAP
FFFFFF
FFFFFF
FFFFFF
FFFFFF
FFFFFF
FFFFFF
FFFFFF
FFFFFF
FFFFFF
FFFFFF
FFFFFF
FFFFFF
FFFFFF
FFFFFF
000FFF
000FFF
000FFF
000FFF
000FFF
000FFF
000FFF
000FFF
000FFF
000FFF
000FFF
000FFF
000FFF
000FFF
ENDCHAR
STARTCHAR uni259D
ENCODING 9629
SWIDTH 600 0
DWIDTH 12 0
BBX 6 14 6 6
BITMAP
FFF0
FFF0
FFF0
FFF0
FFF0
FFF0
FFF0
FFF0
FFF0
FFF0
FFF0
FFF0
FFF0
FFF0
ENDCHAR
STARTCHAR uni259E
ENCODING 9630
SWIDTH 600 0
DWIDTH 12 0
BBX 12 28 0 -8
BITMAP
000FFF
000FFF
000FFF
000FFF
000FFF
000FFF
000FFF
000FFF
000FFF
000FFF
000FFF
000FFF
000FFF
000FFF
FFF000
FFF000
FFF000
FFF000
FFF000
FFF000
FFF000
FFF000
FFF000
FFF000
FFF000
FFF000
FFF000
FFF000
ENDCHAR
STARTCHAR uni259F
ENCODING 9631
SWIDTH 600 0
DWIDTH 12 0
BBX 12 28 0 -8
BITMAP
000FFF
000FFF
000FFF
000FFF
000FFF
000FFF
000FFF
000FFF
000FFF
000FFF
000FFF
000FFF
000FFF
000FFF
FFFFFF
FFFFFF
FFFFFF
FFFFFF
FFFFFF
FFFFFF
FFFFFF
FFFFFF
FFFFFF
FFFFFF
FFFFFF
FFFFFF
FFFFFF
FFFFFF
ENDCHAR
STARTCHAR uni25A0
ENCODING 9632
SWIDTH 600 0
DWIDTH 12 0
BBX 10 8 1 3
BITMAP
7FFFD0
7FFFD0
7FFFD0
7FFFD0
7FFFD0
7FFFD0
7FFFD0
7FFFD0
ENDCHAR
STARTCHAR uni25A1
ENCODING 9633
SWIDTH 600 0
DWIDTH 12 0
BBX 10 9 1 2
BITMAP
BFFFE0
A000A0
A000A0
A000A0
A000A0
A000A0
A000A0
A000A0
BFFFE0
ENDCHAR
STARTCHAR uni25AA
ENCODING 9642
SWIDTH 600 0
DWIDTH 12 0
BBX 6 5 3 3
BITMAP
BFE0
BFE0
BFE0
BFE0
BFE0
ENDCHAR
STARTCHAR uni25AB
ENCODING 9643
SWIDTH 600 0
DWIDTH 12 0
BBX 6 6 3 2
BITMAP
FFF0
C030
C030
C030
C030
FFF0
ENDCHAR
STARTCHAR filledrect
ENCODING 9644
SWIDTH 600 0
DWIDTH 12 0
BBX 12 2 0 4
BITMAP
FFFFFF
FFFFFF
ENDCHAR
STARTCHAR triagup
ENCODING 9650
SWIDTH 600 0
DWIDTH 12 0
BBX 10 10 1 2
BITMAP
005000
00A000
01F400
02F800
07FD00
0BFE00
0FFF00
2FFF80
3FFFC0
BFFFE0
ENDCHAR
STARTCHAR uni25B3
ENCODING 9651
SWIDTH 600 0
DWIDTH 12 0
BBX 10 10 1 2
BITMAP
005000
00A000
01A400
025800
020800
090600
080200
240180
3000C0
BFFFE0
ENDCHAR
STARTCHAR uni25B4
ENCODING 9652
SWIDTH 600 0
DWIDTH 12 0
BBX 6 6 3 3
BITMAP
0500
0A00
1F40
3FC0
7FD0
FFF0
ENDCHAR
STARTCHAR uni25B5
ENCODING 9653
SWIDTH 600 0
DWIDTH 12 0
BBX 8 6 2 2
BITMAP
0280
0280
0820
1824
2008
7FFD
ENDCHAR
STARTCHAR uni25B6
ENCODING 9654
SWIDTH 600 0
DWIDTH 12 0
BBX 10 10 1 1
BITMAP
900000
BD0000
BFD000
BFFE00
BFFFE0
BFFF80
BFF800
BF4000
B40000
400000
ENDCHAR
STARTCHAR uni25B7
ENCODING 9655
SWIDTH 600 0
DWIDTH 12 0
BBX 10 10 1 1
BITMAP
900000
950000
805000
800500
8002E0
806F80
86F800
BF4000
B40000
400000
ENDCHAR
STARTCHAR uni25B8
ENCODING 9656
SWIDTH 600 0
DWIDTH 12 0
BBX 6 6 3 2
BITMAP
9000
BD00
BFD0
BFD0
BD00
9000
ENDCHAR
STARTCHAR uni25B9
ENCODING 9657
SWIDTH 600 0
DWIDTH 12 0
BBX 7 7 3 2
BITMAP
9000
E900
8680
8074
8680
E900
9000
ENDCHAR
STARTCHAR triagrt
ENCODING 9658
SWIDTH 600 0
DWIDTH 12 0
BBX 12 10 0 1
BITMAP
A40000
BE4000
BFF900
BFFFD0
BFFFFE
BFFFF9
BFFE40
BFE000
B90000
400000
ENDCHAR
STARTCHAR triagdn
ENCODING 9660
SWIDTH 600 0
DWIDTH 12 0
BBX 10 10 1 1
BITMAP
BFFFE0
3FFFC0
2FFF80
0FFF00
0BFE00
03FC00
02F800
00F000
00A000
005000
ENDCHAR
STARTCHAR uni25BD
ENCODING 9661
SWIDTH 600 0
DWIDTH 12 0
BBX 10 10 1 1
BITMAP
BFFFE0
3000C0
240180
080200
090600
020800
025800
00A000
00A000
005000
ENDCHAR
STARTCHAR uni25BE
ENCODING 9662
SWIDTH 600 0
DWIDTH 12 0
BBX 6 6 3 2
BITMAP
FFF0
7FD0
3FC0
1F40
0A00
0500
ENDCHAR
STARTCHAR uni25BF
ENCODING 9663
SWIDTH 600 0
DWIDTH 12 0
BBX 8 6 2 2
BITMAP
7FFD
2008
1824
0820
0280
0280
ENDCHAR
STARTCHAR uni25C0
ENCODING 9664
SWIDTH 600 0
DWIDTH 12 0
BBX 10 10 1 1
BITMAP
000060
0007E0
00BFE0
0BFFE0
BFFFE0
2FFFE0
02FFE0
001FE0
0001E0
000010
ENDCHAR
STARTCHAR uni25C1
ENCODING 9665
SWIDTH 600 0
DWIDTH 12 0
BBX 10 10 1 1
BITMAP
000060
000560
005020
050020
B80020
2F9020
02F920
001FE0
0001E0
000010
ENDCHAR
STARTCHAR uni25C2
ENCODING 9666
SWIDTH 600 0
DWIDTH 12 0
BBX 6 6 3 2
BITMAP
0060
07E0
7FE0
7FE0
07E0
0060
ENDCHAR
STARTCHAR uni25C3
ENCODING 9667
SWIDTH 600 0
DWIDTH 12 0
BBX 7 7 2 2
BITMAP
0018
01AC
0A48
7408
0A48
01AC
0018
ENDCHAR
STARTCHAR triaglf
ENCODING 9668
SWIDTH 600 0
DWIDTH 12 0
BBX 12 10 0 1
BITMAP
00001A
0001BE
006FFE
07FFFE
BFFFFE
6FFFFE
01BFFE
000BFE
00006E
000001
ENDCHAR
STARTCHAR uni25C6
ENCODING 9670
SWIDTH 600 0
DWIDTH 12 0
BBX 10 11 1 1
BITMAP
005000
01F400
07FD00
1FFF40
7FFFD0
FFFFF0
7FFFD0
1FFF40
07FD00
01F400
005000
ENDCHAR
STARTCHAR uni25C9
ENCODING 9673
SWIDTH 600 0
DWIDTH 12 0
BBX 10 10 1 2
BITMAP
06F900
2D0780
72F8D0
97FD60
CBFE30
CBFE30
97FD60
71A4D0
2D0780
06F900
ENDCHAR
STARTCHAR lozenge
ENCODING 9674
SWIDTH 600 0
DWIDTH 12 0
BBX 8 13 2 0
BITMAP
03C0
0690
0D70
2828
341C
A00A
D007
A00A
341C
2828
0D70
0690
03C0
ENDCHAR
STARTCHAR uni25CB
ENCODING 9675
SWIDTH 600 0
DWIDTH 12 0
BBX 10 9 1 2
BITMAP
06F900
2D0780
7000D0
A000A0
900060
A000A0
7000D0
2D0780
06F900
ENDCHAR
STARTCHAR uni25CC
ENCODING 9676
SWIDTH 600 0
DWIDTH 12 0
BBX 10 10 1 0
BITMAP
009000
0C0900
6000C0
000000
000000
C00090
000000
6000C0
0C0900
009000
ENDCHAR
STARTCHAR uni25CF
ENCODING 9679
SWIDTH 600 0
DWIDTH 12 0
BBX 10 9 1 2
BITMAP
06F900
1FFF40
3FFFC0
7FFFD0
7FFFD0
7FFFD0
3FFFC0
1FFF40
06F900
ENDCHAR
STARTCHAR invbullet
ENCODING 9688
SWIDTH 600 0
DWIDTH 12 0
BBX 6 7 3 2
BITMAP
FFF0
D070
8020
4010
8020
D070
FFF0
ENDCHAR
STARTCHAR invcircle
ENCODING 9689
SWIDTH 600 0
DWIDTH 12 0
BBX 10 9 1 2
BITMAP
B906E0
A2F8A0
4FFF20
5FFF50
1FFF40
5FFF50
4BFE20
A2F8A0
B906E0
ENDCHAR
STARTCHAR uni25E6
ENCODING 9702
SWIDTH 600 0
DWIDTH 12 0
BBX 7 6 2 2
BITMAP
07E0
2828
700C
601C
3474
1F90
ENDCHAR
STARTCHAR uni2610
ENCODING 9744
SWIDTH 600 0
DWIDTH 12 0
BBX 14 13 -1 0
BITMAP
2FFFFFE0
900000E0
900000E0
900000E0
900000E0
900000E0
900000E0
900000E0
900000E0
900000E0
900000E0
900000D0
BFFFFFC0
ENDCHAR
STARTCHAR uni2611
ENCODING 9745
SWIDTH 600 0
DWIDTH 12 0
BBX 15 15 -1 0
BITMAP
00000018
000000B4
2FFFFFE0
900007E0
90000DE0
900028E0
900034E0
9180A0E0
91C0D0E0
90A180E0
903240E0
902B00E0
901E00E0
900000D0
BFFFFFC0
ENDCHAR
STARTCHAR uni2615
ENCODING 9749
SWIDTH 600 0
DWIDTH 12 0
BBX 14 12 -1 1
BITMAP
06FF8000
2D006400
60000800
92FF8500
9E1A6140
9E1BF020
52FF8630
60000A70
300005D0
18002E40
0A41A000
01BE4000
ENDCHAR
STARTCHAR smileface
ENCODING 9786
SWIDTH 600 0
DWIDTH 12 0
BBX 12 11 0 1
BITMAP
02BE40
1E41B0
34001C
61C349
919646
91C346
910046
624189
35BE5C
1E41B4
02BE40
ENDCHAR
STARTCHAR invsmileface
ENCODING 9787
SWIDTH 600 0
DWIDTH 12 0
BBX 12 10 0 2
BITMAP
01BE40
0BFFE0
2FFFF8
3E7EBC
7E3CBD
7FFFFD
7EFFBD
2CBE38
0E41B0
01BE40
ENDCHAR
STARTCHAR sun
ENCODING 9788
SWIDTH 600 0
DWIDTH 12 0
BBX 12 12 0 1
BITMAP
002800
142814
2DBD78
0B82E0
060090
090060
FD007F
0A00A0
0741D0
1EBEB4
242828
002800
ENDCHAR
STARTCHAR female
ENCODING 9792
SWIDTH 600 0
DWIDTH 12 0
BBX 10 15 1 -1
BITMAP
06F900
2D0780
7401D0
A000A0
A000A0
A000A0
7001D0
2D0780
06F900
00A000
00A000
1FFF40
00A000
00A000
005000
ENDCHAR
STARTCHAR male
ENCODING 9794
SWIDTH 600 0
DWIDTH 12 0
BBX 14 13 -1 0
BITMAP
00005540
0000ABD0
00000BD0
00002D90
02FEB4D0
0E42D0D0
2800A000
34003400
70003400
34003400
2800A000
0E46D000
02FE0000
ENDCHAR
STARTCHAR spade
ENCODING 9824
SWIDTH 600 0
DWIDTH 12 0
BBX 12 14 0 0
BITMAP
002800
00BE00
02FF80
07FFD0
1FFFF4
3FFFFC
BFFFFE
BFFFFE
BFFFFE
7FEBFD
1A69A4
007D00
01FF40
0FFFF0
ENDCHAR
STARTCHAR club
ENCODING 9827
SWIDTH 600 0
DWIDTH 12 0
BBX 12 14 0 0
BITMAP
00BE00
02FF80
03FFC0
02FF80
01FF40
1AFFA4
7FFFFD
BFFFFE
BFFFFE
7FEBFD
1A69A4
007D00
01FF40
0FFFF0
ENDCHAR
STARTCHAR heart
ENCODING 9829
SWIDTH 600 0
DWIDTH 12 0
BBX 12 14 0 0
BITMAP
1F82F4
7FEBFD
BFFFFE
BFFFFE
BFFFFE
BFFFFE
7FFFFD
3FFFFC
1FFFF4
0BFFE0
03FFC0
01FF40
007D00
002800
ENDCHAR
STARTCHAR diamond
ENCODING 9830
SWIDTH 600 0
DWIDTH 12 0
BBX 12 14 0 0
BITMAP
001400
007D00
01FF40
03FFC0
0BFFE0
2FFFF8
BFFFFE
BFFFFE
2FFFF8
0BFFE0
03FFC0
01FF40
007D00
001400
ENDCHAR
STARTCHAR musicalnote
ENCODING 9834
SWIDTH 600 0
DWIDTH 12 0
BBX 10 15 1 -1
BITMAP
003400
003D00
003F40
0036C0
0030D0
003090
003090
003080
003000
003000
003000
1BF000
3FF000
7FD000
2F4000
ENDCHAR
STARTCHAR musicalnotedbl
ENCODING 9835
SWIDTH 600 0
DWIDTH 12 0
BBX 12 16 0 -1
BITMAP
000001
0016BE
00BFFE
00B946
009006
009006
009006
009006
009006
009006
0091BE
0097FE
2FD7FE
BFD2F8
BF8000
7E0000
ENDCHAR
STARTCHAR uni2713
ENCODING 10003
SWIDTH 600 0
DWIDTH 12 0
BBX 12 14 0 0
BITMAP
000001
00000E
000028
0000B0
0001D0
000380
000700
000D00
D02800
703400
386000
1C9000
0EC000
078000
ENDCHAR
STARTCHAR uni2752
ENCODING 10066
SWIDTH 600 0
DWIDTH 12 0
BBX 10 9 1 2
BITMAP
2FFFE0
9000A0
9000A0
9000A0
9000A0
9000A0
9000A0
9000A0
BFFFC0
ENDCHAR
STARTCHAR uni2764
ENCODING 10084
SWIDTH 600 0
DWIDTH 12 0
BBX 16 13 -2 0
BITMAP
07F41FD0
2FFD7FF8
7FFFFFFD
7FFFFFFD
7FFFFFFD
7FFFFFFD
3FFFFFFC
1FFFFFF4
07FFFFD0
01BFFE40
002FF800
0007D000
00014000
ENDCHAR
STARTCHAR uni27E6
ENCODING 10214
SWIDTH 600 0
DWIDTH 12 0
BBX 10 17 2 -3
BITMAP
03BFD0
036000
066000
0A9000
098000
0CC000
0D8000
198000
2A4000
270000
330000
360000
660000
A90000
9C0000
DC0000
FFF000
ENDCHAR
STARTCHAR uni27E7
ENCODING 10215
SWIDTH 600 0
DWIDTH 12 0
BBX 10 17 0 -3
BITMAP
01FFB0
000660
000690
000990
0008C0
000DC0
001980
001A40
002640
002300
003700
006600
006900
009900
00CC00
00DC00
BFF800
ENDCHAR
STARTCHAR uni2E18
ENCODING 11800
SWIDTH 600 0
DWIDTH 12 0
BBX 8 14 1 -4
BITMAP
002D
007E
0038
0000
0000
0070
00B0
02E0
0AA0
2890
74D0
7400
381E
1BE4
ENDCHAR
STARTCHAR uni2E22
ENCODING 11810
SWIDTH 600 0
DWIDTH 12 0
BBX 8 9 4 5
BITMAP
0FFD
1C00
2800
2800
3400
3000
7000
6000
5000
ENDCHAR
STARTCHAR uni2E23
ENCODING 11811
SWIDTH 600 0
DWIDTH 12 0
BBX 6 9 3 5
BITMAP
7FF0
0070
00A0
0090
00D0
00C0
01C0
0180
0140
ENDCHAR
STARTCHAR uni2E24
ENCODING 11812
SWIDTH 600 0
DWIDTH 12 0
BBX 6 9 2 -3
BITMAP
0900
0D00
1C00
1C00
2800
2400
3400
3000
7FF0
ENDCHAR
STARTCHAR uni2E25
ENCODING 11813
SWIDTH 600 0
DWIDTH 12 0
BBX 8 9 0 -3
BITMAP
0009
000D
001C
0018
0028
0024
0034
0070
BFF0
ENDCHAR
STARTCHAR uniE0A0
ENCODING 57504
SWIDTH 600 0
DWIDTH 12 0
BBX 10 27 2 -6
BITMAP
E00000
E00000
E00000
E00600
E00F40
E03FC0
E0BFE0
E00B00
E00B00
E00B00
E00B00
E00B00
E00A00
D00E00
402D00
00B800
07D000
2E4000
780000
B00000
E00000
E00000
E00000
E00000
E00000
E00000
E00000
ENDCHAR
STARTCHAR uniE0A1
ENCODING 57505
SWIDTH 600 0
DWIDTH 12 0
BBX 10 21 1 -3
BITMAP
700000
700000
700000
700000
700000
700000
700000
700000
7FF800
000000
000000
000000
0380D0
03D0D0
03A0D0
0374D0
0368D0
034DD0
034A90
0343D0
0342D0
ENDCHAR
STARTCHAR uniE0A2
ENCODING 57506
SWIDTH 600 0
DWIDTH 12 0
BBX 10 18 1 -1
BITMAP
02F800
0E0B00
1C0340
1C0340
1C0340
1C0340
BFFFE0
FFFFF0
FFFFF0
FE0BF0
FD07F0
FE0BF0
FF5FF0
FF5FF0
FF0FF0
FF0FF0
FFFFF0
BFFFE0
ENDCHAR
STARTCHAR uniE0B0
ENCODING 57520
SWIDTH 600 0
DWIDTH 12 0
BBX 12 26 0 -5
BITMAP
400000
D00000
F40000
FD0000
FF4000
FFC000
FFF000
FFFC00
FFFE00
FFFF80
FFFFE0
FFFFF8
FFFFFE
FFFFFE
FFFFF8
FFFFE0
FFFF80
FFFE00
FFFC00
FFF000
FFC000
FF4000
FD0000
F40000
D00000
400000
ENDCHAR
STARTCHAR uniE0B1
ENCODING 57521
SWIDTH 600 0
DWIDTH 12 0
BBX 12 24 0 -4
BITMAP
900000
B40000
2D0000
0B4000
02C000
00B000
002C00
000B00
000280
0000A0
000038
00000E
00000E
000038
0000A0
000280
000B00
002C00
00B000
02C000
0B4000
2D0000
B40000
900000
ENDCHAR
STARTCHAR uniE0B2
ENCODING 57522
SWIDTH 600 0
DWIDTH 12 0
BBX 13 26 0 -5
BITMAP
00000140
00000740
00001F40
00003F40
0000FF40
0003FF40
000BFF40
002FFF40
00BFFF40
02FFFF40
0BFFFF40
2FFFFF40
BFFFFF40
BFFFFF40
2FFFFF40
0BFFFF40
02FFFF40
00BFFF40
002FFF40
000BFF40
0003FF40
0000FF40
00003F40
00001F40
00000740
00000140
ENDCHAR
STARTCHAR uniE0B3
ENCODING 57523
SWIDTH 600 0
DWIDTH 12 0
BBX 12 24 0 -4
BITMAP
000006
00001E
000078
0001E0
000380
000E00
003800
00E000
028000
0A0000
2C0000
B00000
B00000
2C0000
0A0000
028000
00E000
003800
000E00
000380
0001E0
000078
00001E
000006
ENDCHAR
STARTCHAR f_i
ENCODING 64257
SWIDTH 600 0
DWIDTH 12 0
BBX 11 14 1 0
BITMAP
00BDB4
0380B4
074000
0B0000
3FF0D0
0D01D0
1D02C0
1C0280
2C0380
280340
380740
740700
700B00
B00E00
ENDCHAR
STARTCHAR f_l
ENCODING 64258
SWIDTH 600 0
DWIDTH 12 0
BBX 10 14 1 0
BITMAP
00BD70
0380B0
0740A0
0B00E0
3FF1D0
0D01C0
1D02C0
1C0280
2C0380
280740
380700
740B00
700A00
B00B40
ENDCHAR
STARTCHAR uniFE0E
ENCODING 65038
SWIDTH 600 0
DWIDTH 12 0
BBX 12 12 0 1
BITMAP
6AAAA9
000000
A0000A
500005
6A41A9
014140
014140
014140
014140
014140
014140
01AA40
ENDCHAR
STARTCHAR uniFE0F
ENCODING 65039
SWIDTH 600 0
DWIDTH 12 0
BBX 12 11 0 1
BITMAP
025580
080020
100004
129684
421481
808202
450051
110044
101404
080020
025580
ENDCHAR
STARTCHAR uniFEFF
ENCODING 65279
SWIDTH 600 0
DWIDTH 12 0
BBX 1 1 0 0
BITMAP
00
ENDCHAR
STARTCHAR u1F3B5
ENCODING 127925
SWIDTH 600 0
DWIDTH 12 0
BBX 10 15 1 -1
BITMAP
002000
003800
003F00
003B80
0031D0
003090
003090
003090
003040
003000
003000
1BF000
3FF000
7FD000
2F4000
ENDCHAR
STARTCHAR u1F3B6
ENCODING 127926
SWIDTH 600 0
DWIDTH 12 0
BBX 12 16 0 -1
BITMAP
000001
0016BE
00BFFE
00B946
009006
009006
009006
009006
009006
009006
0091BE
0097FE
2FD7FE
BFD2F8
BF8000
7E0000
ENDCHAR
STARTCHAR u1F4A9
ENCODING 128169
SWIDTH 600 0
DWIDTH 12 0
BBX 12 13 0 1
BITMAP
000400
01BF40
03FFC0
03FFC0
0BFFE0
2D3CB8
3C283C
2DD778
2FFFF8
FD007E
FE00BF
BF41FE
2BFFE8
ENDCHAR
STARTCHAR u1F512
ENCODING 128274
SWIDTH 600 0
DWIDTH 12 0
BBX 10 18 1 -1
BITMAP
02F800
0E0B00
1C0340
1C0340
1C0340
1C0340
BFFFE0
FFFFF0
FFFFF0
FE0BF0
FD07F0
FE0BF0
FF5FF0
FF5FF0
FF0FF0
FF0FF0
FFFFF0
BFFFE0
ENDCHAR
STARTCHAR u1F916
ENCODING 129302
SWIDTH 600 0
DWIDTH 12 0
BBX 14 11 -1 1
BITMAP
01BFE400
07505D00
0C6F9300
258F2580
760909D0
7675D9D0
75BFE5D0
28000280
090A0600
03906C00
006F9000
ENDCHAR
STARTCHAR .notdef
ENCODING -1
SWIDTH 600 0
DWIDTH 12 0
BBX 10 13 1 0
BITMAP
BFFFE0
B803E0
AD07A0
A70DA0
A35CA0
A1F4A0
A0F0A0
A2A8A0
A35CA0
AA0AA0
AC07A0
B802E0
BFFFE0
ENDCHAR
STARTCHAR uni00470303
ENCODING -1
SWIDTH 600 0
DWIDTH 12 0
BBX 11 16 1 0
BITMAP
00BE18
0182E0
000000
006F90
02D0B4
0E0010
2C0000
380000
740000
B01FE0
B000E0
B000D0
B001C0
7401C0
2D0780
06F900
ENDCHAR
STARTCHAR uni004C00B7004C
ENCODING -1
SWIDTH 600 0
DWIDTH 12 0
BBX 11 13 0 0
BITMAP
0B0070
0A00B0
0E00A0
0D00E0
1DB5D0
2DF9C0
28F6C0
380280
740380
740740
B00700
A00B00
FF8BFC
ENDCHAR
STARTCHAR uni01320301
ENCODING -1
SWIDTH 600 0
DWIDTH 12 0
BBX 13 20 1 -3
BITMAP
00600240
02E01E40
06402400
00000000
0B007400
0A00B000
0E00A000
1D00E000
1C00D000
2C01D000
2802C000
38028000
74038000
70034000
B0074000
E00B0000
E00A0000
000E0000
001C0000
01F40000
ENDCHAR
STARTCHAR uni00670303
ENCODING -1
SWIDTH 600 0
DWIDTH 12 0
BBX 11 19 0 -4
BITMAP
001904
007B5C
0091F4
000000
000000
00BF5C
0391B8
0A0038
1D0034
2C0070
3800B0
3800A0
2C01E0
1E5AD0
02A1C0
0002C0
000380
641A00
2FE400
ENDCHAR
STARTCHAR uni006C00B7006C
ENCODING -1
SWIDTH 600 0
DWIDTH 12 0
BBX 11 14 0 0
BITMAP
FF4BF4
070070
0A00B0
0E00A0
0D00E0
1CB5D0
2DF9C0
28F6C0
380280
740340
700740
B00700
744744
2F81F8
ENDCHAR
STARTCHAR uni01330301
ENCODING -1
SWIDTH 600 0
DWIDTH 12 0
BBX 12 20 1 -4
BITMAP
002008
01F03D
0780E0
090180
000000
000000
0E02C0
0E0280
1D0380
1C0740
2C0700
280B00
380A00
740D00
701D00
B01C00
002C00
002800
007400
07D000
ENDCHAR
STARTCHAR uni014A.a
ENCODING -1
SWIDTH 600 0
DWIDTH 12 0
BBX 12 16 0 -3
BITMAP
03C00E
07D00D
07A01D
0AA01C
0A7028
0D3438
1D2834
1C1C70
2C0D70
280AA0
3407A0
7403D0
7002C0
0002C0
000340
003E00
ENDCHAR
STARTCHAR a.a
ENCODING -1
SWIDTH 600 0
DWIDTH 12 0
BBX 10 10 1 0
BITMAP
06FE40
1D42C0
0001D0
0001D0
01AFC0
2E52C0
B00280
E00780
F06B40
6F9300
ENDCHAR
STARTCHAR agrave.a
ENCODING -1
SWIDTH 600 0
DWIDTH 12 0
BBX 10 16 1 0
BITMAP
006000
007800
001D00
000900
000000
000000
06FE40
1D42C0
0001D0
0001D0
01AFC0
2E52C0
B00280
E00780
F06B40
6F9300
ENDCHAR
STARTCHAR aacute.a
ENCODING -1
SWIDTH 600 0
DWIDTH 12 0
BBX 10 16 1 0
BITMAP
000180
000780
001E00
002400
000000
000000
06FE40
1D42C0
0001D0
0001D0
01AFC0
2E52C0
B00280
E00780
F06B40
6F9300
ENDCHAR
STARTCHAR acircumflex.a
ENCODING -1
SWIDTH 600 0
DWIDTH 12 0
BBX 10 15 1 0
BITMAP
002F00
00A680
024080
000000
000000
06FE40
1D42C0
0001D0
0001D0
01AFC0
2E52C0
B00280
E00780
F06B40
6F9300
ENDCHAR
STARTCHAR atilde.a
ENCODING -1
SWIDTH 600 0
DWIDTH 12 0
BBX 10 15 1 0
BITMAP
006020
02AC60
034780
000000
000000
06FE40
1D42C0
0001D0
0001D0
01AFC0
2E52C0
B00280
E00780
F06B40
6F9300
ENDCHAR
STARTCHAR adieresis.a
ENCODING -1
SWIDTH 600 0
DWIDTH 12 0
BBX 10 14 1 0
BITMAP
01D1C0
01D2C0
000000
000000
06FE40
1D42C0
0001D0
0001D0
01AFC0
2E52C0
B00280
E00780
F06B40
6F9300
ENDCHAR
STARTCHAR amacron.a
ENCODING -1
SWIDTH 600 0
DWIDTH 12 0
BBX 10 13 1 0
BITMAP
01FFC0
000000
000000
06FE40
1D42C0
0001D0
0001D0
01AFC0
2E52C0
B00280
E00780
F06B40
6F9300
ENDCHAR
STARTCHAR abreve.a
ENCODING -1
SWIDTH 600 0
DWIDTH 12 0
BBX 10 14 1 0
BITMAP
018060
01D1C0
007E40
000000
06FE40
1D42C0
0001D0
0001D0
01AFC0
2E52C0
B00280
E00780
F06B40
6F9300
ENDCHAR
STARTCHAR aring.a
ENCODING -1
SWIDTH 600 0
DWIDTH 12 0
BBX 10 15 1 0
BITMAP
002E00
006280
00A240
007E00
000000
06FE40
1D42C0
0001D0
0001D0
01AFC0
2E52C0
B00280
E00780
F06B40
6F9300
ENDCHAR
STARTCHAR aringacute.a
ENCODING -1
SWIDTH 600 0
DWIDTH 12 0
BBX 10 17 1 0
BITMAP
000180
000A40
002F00
00A280
00A240
007E00
000000
06FE40
1D42C0
0001D0
0001D0
01AFC0
2E52C0
B00280
E00780
F06B40
6F9300
ENDCHAR
ENDFONT
